<svg width="334" height="346" viewBox="0 0 334 346" fill="none" xmlns="http://www.w3.org/2000/svg">
<g filter="url(#filter0_df_237_171)">
<path fill-rule="evenodd" clip-rule="evenodd" d="M52.3191 53.2601C50.673 58.3483 50.6037 65.6579 50.6037 74.892C50.6037 78.408 47.7534 81.2583 44.2374 81.2583C40.7214 81.2583 37.8711 78.408 37.8711 74.892C37.8711 74.6614 37.871 74.43 37.871 74.1978C37.8691 65.8828 37.8671 56.5666 40.2046 49.341C41.4657 45.4427 43.5562 41.6163 47.1319 38.8014C50.7665 35.9401 55.286 34.6338 60.4328 34.6338C63.9488 34.6338 66.7991 37.4841 66.7991 41.0001C66.7991 44.5161 63.9488 47.3664 60.4328 47.3664C57.4819 47.3664 55.9281 48.0814 55.0078 48.8059C54.0285 49.5768 53.0824 50.9006 52.3191 53.2601ZM270.437 41.0001C270.437 37.4841 273.288 34.6338 276.804 34.6338C281.951 34.6338 286.47 35.9401 290.105 38.8014C293.68 41.6163 295.771 45.4427 297.032 49.341C299.369 56.5666 299.367 65.8828 299.366 74.1978C299.365 74.43 299.365 74.6614 299.365 74.892C299.365 78.408 296.515 81.2583 292.999 81.2583C289.483 81.2583 286.633 78.408 286.633 74.892C286.633 65.6579 286.564 58.3483 284.917 53.2601C284.154 50.9006 283.208 49.5768 282.229 48.8059C281.308 48.0814 279.755 47.3664 276.804 47.3664C273.288 47.3664 270.437 44.5161 270.437 41.0001ZM34.6328 139.108C34.6328 135.592 37.4831 132.742 40.9991 132.742L292.999 132.742C296.515 132.742 299.365 135.592 299.365 139.109C299.365 142.625 296.515 145.475 292.999 145.475L40.9991 145.475C37.4831 145.475 34.6328 142.625 34.6328 139.108ZM44.2374 264.742C47.7534 264.742 50.6037 267.592 50.6037 271.108C50.6037 280.342 50.673 287.652 52.3191 292.74C53.0824 295.1 54.0285 296.423 55.0078 297.194C55.9281 297.919 57.4819 298.634 60.4328 298.634C63.9488 298.634 66.7991 301.484 66.7991 305C66.7991 308.516 63.9488 311.366 60.4328 311.366C55.286 311.366 50.7665 310.06 47.1319 307.199C43.5562 304.384 41.4657 300.557 40.2046 296.659C37.8671 289.434 37.8691 280.117 37.871 271.802C37.871 271.57 37.8711 271.339 37.8711 271.108C37.8711 267.592 40.7214 264.742 44.2374 264.742ZM292.999 264.742C296.515 264.742 299.365 267.592 299.365 271.108C299.365 271.339 299.365 271.57 299.366 271.802C299.367 280.117 299.369 289.434 297.032 296.659C295.771 300.557 293.68 304.384 290.105 307.199C286.47 310.06 281.951 311.366 276.804 311.366C273.288 311.366 270.437 308.516 270.437 305C270.437 301.484 273.288 298.634 276.804 298.634C279.755 298.634 281.308 297.919 282.229 297.194C283.208 296.423 284.154 295.1 284.917 292.74C286.564 287.652 286.633 280.342 286.633 271.108C286.633 267.592 289.483 264.742 292.999 264.742Z" fill="#FF0000"/>
</g>
<defs>
<filter id="filter0_df_237_171" x="0.254772" y="0.255749" width="333.489" height="345.489" filterUnits="userSpaceOnUse" color-interpolation-filters="sRGB">
<feFlood flood-opacity="0" result="BackgroundImageFix"/>
<feColorMatrix in="SourceAlpha" type="matrix" values="0 0 0 0 0 0 0 0 0 0 0 0 0 0 0 0 0 0 127 0" result="hardAlpha"/>
<feOffset/>
<feGaussianBlur stdDeviation="17.189"/>
<feComposite in2="hardAlpha" operator="out"/>
<feColorMatrix type="matrix" values="0 0 0 0 1 0 0 0 0 0 0 0 0 0 0 0 0 0 1 0"/>
<feBlend mode="normal" in2="BackgroundImageFix" result="effect1_dropShadow_237_171"/>
<feBlend mode="normal" in="SourceGraphic" in2="effect1_dropShadow_237_171" result="shape"/>
<feGaussianBlur stdDeviation="3.18315" result="effect2_foregroundBlur_237_171"/>
</filter>
</defs>
</svg>
