<svg width="862" height="77" viewBox="0 0 862 77" fill="none" xmlns="http://www.w3.org/2000/svg">
<path d="M803.932 76.6012V0.727539H807.79V76.6012H803.932ZM819.364 76.6012V0.727539H830.938V76.6012H819.364ZM834.795 76.6012V0.727539H838.653V76.6012H834.795ZM842.511 76.6012V0.727539H854.085V76.6012H842.511ZM857.943 76.6012V0.727539H861.801V76.6012H857.943Z" fill="black"/>
<path d="M742.143 76.6012V0.727539H746.001V76.6012H742.143ZM757.575 76.6012V0.727539H769.148V76.6012H757.575ZM773.006 76.6012V0.727539H776.864V76.6012H773.006ZM780.722 76.6012V0.727539H792.296V76.6012H780.722ZM796.154 76.6012V0.727539H800.012V76.6012H796.154Z" fill="black"/>
<path d="M680.355 76.6012V0.727539H684.213V76.6012H680.355ZM695.787 76.6012V0.727539H707.361V76.6012H695.787ZM711.219 76.6012V0.727539H715.077V76.6012H711.219ZM718.935 76.6012V0.727539H730.509V76.6012H718.935ZM734.367 76.6012V0.727539H738.225V76.6012H734.367Z" fill="black"/>
<path d="M618.566 76.6012V0.727539H622.424V76.6012H618.566ZM633.998 76.6012V0.727539H645.572V76.6012H633.998ZM649.43 76.6012V0.727539H653.288V76.6012H649.43ZM657.146 76.6012V0.727539H668.72V76.6012H657.146ZM672.578 76.6012V0.727539H676.436V76.6012H672.578Z" fill="black"/>
<path d="M556.779 76.6012V0.727539H560.637V76.6012H556.779ZM572.211 76.6012V0.727539H583.785V76.6012H572.211ZM587.643 76.6012V0.727539H591.501V76.6012H587.643ZM595.359 76.6012V0.727539H606.933V76.6012H595.359ZM610.791 76.6012V0.727539H614.649V76.6012H610.791Z" fill="black"/>
<path d="M494.992 76.6012V0.727539H498.85V76.6012H494.992ZM510.424 76.6012V0.727539H521.998V76.6012H510.424ZM525.856 76.6012V0.727539H529.714V76.6012H525.856ZM533.572 76.6012V0.727539H545.146V76.6012H533.572ZM549.004 76.6012V0.727539H552.862V76.6012H549.004Z" fill="black"/>
<path d="M433.203 76.6012V0.727539H437.061V76.6012H433.203ZM448.635 76.6012V0.727539H460.209V76.6012H448.635ZM464.067 76.6012V0.727539H467.925V76.6012H464.067ZM471.783 76.6012V0.727539H483.357V76.6012H471.783ZM487.215 76.6012V0.727539H491.073V76.6012H487.215Z" fill="black"/>
<path d="M371.416 76.6012V0.727539H375.274V76.6012H371.416ZM386.848 76.6012V0.727539H398.422V76.6012H386.848ZM402.28 76.6012V0.727539H406.138V76.6012H402.28ZM409.996 76.6012V0.727539H421.57V76.6012H409.996ZM425.428 76.6012V0.727539H429.286V76.6012H425.428Z" fill="black"/>
<path d="M309.627 76.6012V0.727539H313.485V76.6012H309.627ZM325.059 76.6012V0.727539H336.633V76.6012H325.059ZM340.491 76.6012V0.727539H344.349V76.6012H340.491ZM348.207 76.6012V0.727539H359.781V76.6012H348.207ZM363.639 76.6012V0.727539H367.497V76.6012H363.639Z" fill="black"/>
<path d="M247.84 76.6012V0.727539H251.698V76.6012H247.84ZM263.272 76.6012V0.727539H274.846V76.6012H263.272ZM278.704 76.6012V0.727539H282.562V76.6012H278.704ZM286.42 76.6012V0.727539H297.994V76.6012H286.42ZM301.852 76.6012V0.727539H305.71V76.6012H301.852Z" fill="black"/>
<path d="M186.051 76.6012V0.727539H189.909V76.6012H186.051ZM201.483 76.6012V0.727539H213.057V76.6012H201.483ZM216.915 76.6012V0.727539H220.773V76.6012H216.915ZM224.631 76.6012V0.727539H236.205V76.6012H224.631ZM240.062 76.6012V0.727539H243.92V76.6012H240.062Z" fill="black"/>
<path d="M124.264 76.6012V0.727539H128.122V76.6012H124.264ZM139.696 76.6012V0.727539H151.27V76.6012H139.696ZM155.128 76.6012V0.727539H158.985V76.6012H155.128ZM162.843 76.6012V0.727539H174.417V76.6012H162.843ZM178.275 76.6012V0.727539H182.133V76.6012H178.275Z" fill="black"/>
<path d="M62.4746 76.6012V0.727539H66.3326V76.6012H62.4746ZM77.9065 76.6012V0.727539H89.4805V76.6012H77.9065ZM93.3385 76.6012V0.727539H97.1964V76.6012H93.3385ZM101.054 76.6012V0.727539H112.628V76.6012H101.054ZM116.486 76.6012V0.727539H120.344V76.6012H116.486Z" fill="black"/>
<path d="M0.6875 76.6012V0.727539H4.54548V76.6012H0.6875ZM16.1194 76.6012V0.727539H27.6934V76.6012H16.1194ZM31.5513 76.6012V0.727539H35.4093V76.6012H31.5513ZM39.2673 76.6012V0.727539H50.8412V76.6012H39.2673ZM54.6992 76.6012V0.727539H58.5572V76.6012H54.6992Z" fill="black"/>
</svg>
