<svg width="1440" height="1024" viewBox="0 0 1440 1024" fill="none" xmlns="http://www.w3.org/2000/svg">
<g clip-path="url(#clip0_190_3947)">
<path d="M413 84C413 84.0405 412.979 84.4076 412.168 85.0813C411.377 85.738 410.091 86.4619 408.243 87.2044C404.566 88.6816 399.126 90.0536 392.259 91.2207C378.556 93.5492 359.548 95 338.5 95C317.452 95 298.444 93.5492 284.741 91.2207C277.874 90.0536 272.434 88.6816 268.757 87.2044C266.909 86.4619 265.623 85.738 264.832 85.0813C264.021 84.4076 264 84.0405 264 84C264 83.9595 264.021 83.5924 264.832 82.9187C265.623 82.262 266.909 81.5381 268.757 80.7956C272.434 79.3184 277.874 77.9464 284.741 76.7793C298.444 74.4508 317.452 73 338.5 73C359.548 73 378.556 74.4508 392.259 76.7793C399.126 77.9464 404.566 79.3184 408.243 80.7956C410.091 81.5381 411.377 82.262 412.168 82.9187C412.979 83.5924 413 83.9595 413 84Z" fill="#FF1313" stroke="black" stroke-width="4"/>
<path d="M263.402 85L255.61 108.222C254.549 111.382 257.592 114.377 260.735 113.266L263.999 112.112C265.822 111.468 267.844 112.22 268.804 113.897L274.157 123.253C275.313 125.275 277.945 125.885 279.873 124.578L289.57 118.005C291.254 116.863 293.528 117.168 294.852 118.714L304.249 129.683C305.776 131.466 308.503 131.557 310.145 129.879L320.91 118.884C322.465 117.295 325.017 117.28 326.591 118.849L338.066 130.284C339.588 131.801 342.037 131.844 343.612 130.382L356.245 118.651C357.833 117.176 360.308 117.235 361.825 118.784L372.216 129.398C374.018 131.239 377.066 130.921 378.449 128.747L384.526 119.196C385.667 117.404 388.01 116.816 389.862 117.857L402.513 124.974C404.484 126.082 406.98 125.338 408.023 123.333L412.368 114.978C413.468 112.864 416.169 112.189 418.134 113.538V113.538C421.375 115.764 425.531 112.425 424.057 108.78L414.437 85" stroke="black" stroke-width="4" stroke-linecap="round" stroke-linejoin="round"/>
<path d="M278 177C295.167 181.333 338.2 187.4 373 177" stroke="black" stroke-width="4" stroke-linecap="round" stroke-linejoin="round"/>
<path d="M190.5 460C241.5 498.5 446.5 498.5 488.5 460" stroke="black" stroke-width="4" stroke-linecap="round" stroke-linejoin="round"/>
<path d="M190.5 858C241.5 896.5 446.5 896.5 488.5 858" stroke="black" stroke-width="4" stroke-linecap="round" stroke-linejoin="round"/>
<path d="M278 152C296.5 158.5 333.5 160 347 152" stroke="black" stroke-width="4" stroke-linecap="round" stroke-linejoin="round"/>
<path d="M269 119C266.372 124.402 262.823 135.765 266.824 142.802C267.811 144.537 268.158 146.732 267.348 148.556C265.016 153.807 263.309 162.474 267.991 170.851C268.586 171.915 268.782 173.177 268.409 174.338L177.192 457.903C177.065 458.298 177 458.712 177 459.128V902.452C177 903.448 177.367 904.402 178.032 905.144C191.587 920.273 213.995 947.931 338 953" stroke="black" stroke-width="4" stroke-linecap="round" stroke-linejoin="round"/>
<path d="M410 119C412.628 124.402 416.177 135.765 412.176 142.802C411.189 144.537 410.842 146.732 411.652 148.556C413.984 153.807 415.691 162.474 411.009 170.851C410.414 171.915 410.218 173.177 410.591 174.338L501.808 457.903C501.935 458.298 502 458.712 502 459.128V902.452C502 903.448 501.633 904.402 500.968 905.144C487.413 920.273 465.005 947.931 341 953" stroke="black" stroke-width="4" stroke-linecap="round" stroke-linejoin="round"/>
<path d="M33 84C33 84.0405 32.9793 84.4076 32.168 85.0813C31.3773 85.738 30.0905 86.4619 28.2426 87.2044C24.5658 88.6816 19.1261 90.0536 12.2586 91.2207C-1.44415 93.5492 -20.4517 95 -41.5 95C-62.5483 95 -81.5559 93.5492 -95.2586 91.2207C-102.126 90.0536 -107.566 88.6816 -111.243 87.2044C-113.091 86.4619 -114.377 85.738 -115.168 85.0813C-115.979 84.4076 -116 84.0405 -116 84C-116 83.9595 -115.979 83.5924 -115.168 82.9187C-114.377 82.262 -113.091 81.5381 -111.243 80.7956C-107.566 79.3184 -102.126 77.9464 -95.2586 76.7793C-81.5559 74.4508 -62.5483 73 -41.5 73C-20.4517 73 -1.44415 74.4508 12.2586 76.7793C19.1261 77.9464 24.5658 79.3184 28.2426 80.7956C30.0905 81.5381 31.3773 82.262 32.168 82.9187C32.9793 83.5924 33 83.9595 33 84Z" fill="#FF1313" stroke="black" stroke-width="4"/>
<path d="M-116.598 85L-124.39 108.222C-125.451 111.382 -122.408 114.377 -119.265 113.266L-116.001 112.112C-114.178 111.468 -112.156 112.22 -111.196 113.897L-105.843 123.253C-104.687 125.275 -102.055 125.885 -100.127 124.578L-90.4305 118.005C-88.7458 116.863 -86.4723 117.168 -85.1482 118.714L-75.7512 129.683C-74.2241 131.466 -71.4973 131.557 -69.8551 129.879L-59.0903 118.884C-57.5352 117.295 -54.9832 117.28 -53.4086 118.849L-41.9337 130.284C-40.4116 131.801 -37.963 131.844 -36.3883 130.382L-23.7555 118.651C-22.1668 117.176 -19.692 117.235 -18.1754 118.784L-7.78424 129.398C-5.98186 131.239 -2.9345 130.921 -1.5513 128.747L4.52643 119.196C5.66713 117.404 8.01027 116.816 9.86214 117.857L22.5133 124.974C24.4835 126.082 26.98 125.338 28.0231 123.333L32.3684 114.978C33.4678 112.864 36.1695 112.189 38.1336 113.538V113.538C41.3749 115.764 45.5314 112.425 44.0569 108.78L34.4374 85" stroke="black" stroke-width="4" stroke-linecap="round" stroke-linejoin="round"/>
<path d="M-189.5 460C-138.5 498.5 66.5 498.5 108.5 460" stroke="black" stroke-width="4" stroke-linecap="round" stroke-linejoin="round"/>
<path d="M-189.5 858C-138.5 896.5 66.5 896.5 108.5 858" stroke="black" stroke-width="4" stroke-linecap="round" stroke-linejoin="round"/>
<path d="M30.0001 119C32.6282 124.402 36.1773 135.765 32.1759 142.802C31.1895 144.537 30.8415 146.732 31.6515 148.556C33.9837 153.807 35.6913 162.474 31.0092 170.851C30.4142 171.915 30.2177 173.177 30.5912 174.338L121.808 457.903C121.935 458.298 122 458.712 122 459.128V902.452C122 903.448 121.633 904.402 120.968 905.144C107.413 920.273 85.005 947.931 -39 953" stroke="black" stroke-width="4" stroke-linecap="round" stroke-linejoin="round"/>
<path d="M793 84C793 84.0405 792.979 84.4076 792.168 85.0813C791.377 85.738 790.091 86.4619 788.243 87.2044C784.566 88.6816 779.126 90.0536 772.259 91.2207C758.556 93.5492 739.548 95 718.5 95C697.452 95 678.444 93.5492 664.741 91.2207C657.874 90.0536 652.434 88.6816 648.757 87.2044C646.909 86.4619 645.623 85.738 644.832 85.0813C644.021 84.4076 644 84.0405 644 84C644 83.9595 644.021 83.5924 644.832 82.9187C645.623 82.262 646.909 81.5381 648.757 80.7956C652.434 79.3184 657.874 77.9464 664.741 76.7793C678.444 74.4508 697.452 73 718.5 73C739.548 73 758.556 74.4508 772.259 76.7793C779.126 77.9464 784.566 79.3184 788.243 80.7956C790.091 81.5381 791.377 82.262 792.168 82.9187C792.979 83.5924 793 83.9595 793 84Z" fill="#FF1313" stroke="black" stroke-width="4"/>
<path d="M643.402 85L635.61 108.222C634.549 111.382 637.592 114.377 640.735 113.266L643.999 112.112C645.822 111.468 647.844 112.22 648.804 113.897L654.157 123.253C655.313 125.275 657.945 125.885 659.873 124.578L669.57 118.005C671.254 116.863 673.528 117.168 674.852 118.714L684.249 129.683C685.776 131.466 688.503 131.557 690.145 129.879L700.91 118.884C702.465 117.295 705.017 117.28 706.591 118.849L718.066 130.284C719.588 131.801 722.037 131.844 723.612 130.382L736.245 118.651C737.833 117.176 740.308 117.235 741.825 118.784L752.216 129.398C754.018 131.239 757.066 130.921 758.449 128.747L764.526 119.196C765.667 117.404 768.01 116.816 769.862 117.857L782.513 124.974C784.484 126.082 786.98 125.338 788.023 123.333L792.368 114.978C793.468 112.864 796.169 112.189 798.134 113.538V113.538C801.375 115.764 805.531 112.425 804.057 108.78L794.437 85" stroke="black" stroke-width="4" stroke-linecap="round" stroke-linejoin="round"/>
<path d="M658 177C675.167 181.333 718.2 187.4 753 177" stroke="black" stroke-width="4" stroke-linecap="round" stroke-linejoin="round"/>
<path d="M570.5 460C621.5 498.5 826.5 498.5 868.5 460" stroke="black" stroke-width="4" stroke-linecap="round" stroke-linejoin="round"/>
<path d="M570.5 858C621.5 896.5 826.5 896.5 868.5 858" stroke="black" stroke-width="4" stroke-linecap="round" stroke-linejoin="round"/>
<path d="M658 152C676.5 158.5 713.5 160 727 152" stroke="black" stroke-width="4" stroke-linecap="round" stroke-linejoin="round"/>
<path d="M649 119C646.372 124.402 642.823 135.765 646.824 142.802C647.811 144.537 648.158 146.732 647.348 148.556C645.016 153.807 643.309 162.474 647.991 170.851C648.586 171.915 648.782 173.177 648.409 174.338L557.192 457.903C557.065 458.298 557 458.712 557 459.128V902.452C557 903.448 557.367 904.402 558.032 905.144C571.587 920.273 593.995 947.931 718 953" stroke="black" stroke-width="4" stroke-linecap="round" stroke-linejoin="round"/>
<path d="M790 119C792.628 124.402 796.177 135.765 792.176 142.802C791.189 144.537 790.842 146.732 791.652 148.556C793.984 153.807 795.691 162.474 791.009 170.851C790.414 171.915 790.218 173.177 790.591 174.338L881.808 457.903C881.935 458.298 882 458.712 882 459.128V902.452C882 903.448 881.633 904.402 880.968 905.144C867.413 920.273 845.005 947.931 721 953" stroke="black" stroke-width="4" stroke-linecap="round" stroke-linejoin="round"/>
<path d="M1173 84C1173 84.0405 1172.98 84.4076 1172.17 85.0813C1171.38 85.738 1170.09 86.4619 1168.24 87.2044C1164.57 88.6816 1159.13 90.0536 1152.26 91.2207C1138.56 93.5492 1119.55 95 1098.5 95C1077.45 95 1058.44 93.5492 1044.74 91.2207C1037.87 90.0536 1032.43 88.6816 1028.76 87.2044C1026.91 86.4619 1025.62 85.738 1024.83 85.0813C1024.02 84.4076 1024 84.0405 1024 84C1024 83.9595 1024.02 83.5924 1024.83 82.9187C1025.62 82.262 1026.91 81.5381 1028.76 80.7956C1032.43 79.3184 1037.87 77.9464 1044.74 76.7793C1058.44 74.4508 1077.45 73 1098.5 73C1119.55 73 1138.56 74.4508 1152.26 76.7793C1159.13 77.9464 1164.57 79.3184 1168.24 80.7956C1170.09 81.5381 1171.38 82.262 1172.17 82.9187C1172.98 83.5924 1173 83.9595 1173 84Z" fill="#FF1313" stroke="black" stroke-width="4"/>
<path d="M1023.4 85L1015.61 108.222C1014.55 111.382 1017.59 114.377 1020.73 113.266L1024 112.112C1025.82 111.468 1027.84 112.22 1028.8 113.897L1034.16 123.253C1035.31 125.275 1037.95 125.885 1039.87 124.578L1049.57 118.005C1051.25 116.863 1053.53 117.168 1054.85 118.714L1064.25 129.683C1065.78 131.466 1068.5 131.557 1070.14 129.879L1080.91 118.884C1082.46 117.295 1085.02 117.28 1086.59 118.849L1098.07 130.284C1099.59 131.801 1102.04 131.844 1103.61 130.382L1116.24 118.651C1117.83 117.176 1120.31 117.235 1121.82 118.784L1132.22 129.398C1134.02 131.239 1137.07 130.921 1138.45 128.747L1144.53 119.196C1145.67 117.404 1148.01 116.816 1149.86 117.857L1162.51 124.974C1164.48 126.082 1166.98 125.338 1168.02 123.333L1172.37 114.978C1173.47 112.864 1176.17 112.189 1178.13 113.538V113.538C1181.37 115.764 1185.53 112.425 1184.06 108.78L1174.44 85" stroke="black" stroke-width="4" stroke-linecap="round" stroke-linejoin="round"/>
<path d="M1038 177C1055.17 181.333 1098.2 187.4 1133 177" stroke="black" stroke-width="4" stroke-linecap="round" stroke-linejoin="round"/>
<path d="M950.5 460C1001.5 498.5 1206.5 498.5 1248.5 460" stroke="black" stroke-width="4" stroke-linecap="round" stroke-linejoin="round"/>
<path d="M950.5 858C1001.5 896.5 1206.5 896.5 1248.5 858" stroke="black" stroke-width="4" stroke-linecap="round" stroke-linejoin="round"/>
<path d="M1038 152C1056.5 158.5 1093.5 160 1107 152" stroke="black" stroke-width="4" stroke-linecap="round" stroke-linejoin="round"/>
<path d="M1029 119C1026.37 124.402 1022.82 135.765 1026.82 142.802C1027.81 144.537 1028.16 146.732 1027.35 148.556C1025.02 153.807 1023.31 162.474 1027.99 170.851C1028.59 171.915 1028.78 173.177 1028.41 174.338L937.192 457.903C937.065 458.298 937 458.712 937 459.128V902.452C937 903.448 937.367 904.402 938.032 905.144C951.587 920.273 973.995 947.931 1098 953" stroke="black" stroke-width="4" stroke-linecap="round" stroke-linejoin="round"/>
<path d="M1170 119C1172.63 124.402 1176.18 135.765 1172.18 142.802C1171.19 144.537 1170.84 146.732 1171.65 148.556C1173.98 153.807 1175.69 162.474 1171.01 170.851C1170.41 171.915 1170.22 173.177 1170.59 174.338L1261.81 457.903C1261.94 458.298 1262 458.712 1262 459.128V902.452C1262 903.448 1261.63 904.402 1260.97 905.144C1247.41 920.273 1225.01 947.931 1101 953" stroke="black" stroke-width="4" stroke-linecap="round" stroke-linejoin="round"/>
<path d="M1553 84C1553 84.0405 1552.98 84.4076 1552.17 85.0813C1551.38 85.738 1550.09 86.4619 1548.24 87.2044C1544.57 88.6816 1539.13 90.0536 1532.26 91.2207C1518.56 93.5492 1499.55 95 1478.5 95C1457.45 95 1438.44 93.5492 1424.74 91.2207C1417.87 90.0536 1412.43 88.6816 1408.76 87.2044C1406.91 86.4619 1405.62 85.738 1404.83 85.0813C1404.02 84.4076 1404 84.0405 1404 84C1404 83.9595 1404.02 83.5924 1404.83 82.9187C1405.62 82.262 1406.91 81.5381 1408.76 80.7956C1412.43 79.3184 1417.87 77.9464 1424.74 76.7793C1438.44 74.4508 1457.45 73 1478.5 73C1499.55 73 1518.56 74.4508 1532.26 76.7793C1539.13 77.9464 1544.57 79.3184 1548.24 80.7956C1550.09 81.5381 1551.38 82.262 1552.17 82.9187C1552.98 83.5924 1553 83.9595 1553 84Z" fill="#FF1313" stroke="black" stroke-width="4"/>
<path d="M1403.4 85L1395.61 108.222C1394.55 111.382 1397.59 114.377 1400.73 113.266L1404 112.112C1405.82 111.468 1407.84 112.22 1408.8 113.897L1414.16 123.253C1415.31 125.275 1417.95 125.885 1419.87 124.578L1429.57 118.005C1431.25 116.863 1433.53 117.168 1434.85 118.714L1444.25 129.683C1445.78 131.466 1448.5 131.557 1450.14 129.879L1460.91 118.884C1462.46 117.295 1465.02 117.28 1466.59 118.849L1478.07 130.284C1479.59 131.801 1482.04 131.844 1483.61 130.382L1496.24 118.651C1497.83 117.176 1500.31 117.235 1501.82 118.784L1512.22 129.398C1514.02 131.239 1517.07 130.921 1518.45 128.747L1524.53 119.196C1525.67 117.404 1528.01 116.816 1529.86 117.857L1542.51 124.974C1544.48 126.082 1546.98 125.338 1548.02 123.333L1552.37 114.978C1553.47 112.864 1556.17 112.189 1558.13 113.538V113.538C1561.37 115.764 1565.53 112.425 1564.06 108.78L1554.44 85" stroke="black" stroke-width="4" stroke-linecap="round" stroke-linejoin="round"/>
<path d="M1418 177C1435.17 181.333 1478.2 187.4 1513 177" stroke="black" stroke-width="4" stroke-linecap="round" stroke-linejoin="round"/>
<path d="M1330.5 460C1381.5 498.5 1586.5 498.5 1628.5 460" stroke="black" stroke-width="4" stroke-linecap="round" stroke-linejoin="round"/>
<path d="M1330.5 858C1381.5 896.5 1586.5 896.5 1628.5 858" stroke="black" stroke-width="4" stroke-linecap="round" stroke-linejoin="round"/>
<path d="M1418 152C1436.5 158.5 1473.5 160 1487 152" stroke="black" stroke-width="4" stroke-linecap="round" stroke-linejoin="round"/>
<path d="M1409 119C1406.37 124.402 1402.82 135.765 1406.82 142.802C1407.81 144.537 1408.16 146.732 1407.35 148.556C1405.02 153.807 1403.31 162.474 1407.99 170.851C1408.59 171.915 1408.78 173.177 1408.41 174.338L1317.19 457.903C1317.06 458.298 1317 458.712 1317 459.128V902.452C1317 903.448 1317.37 904.402 1318.03 905.144C1331.59 920.273 1353.99 947.931 1478 953" stroke="black" stroke-width="4" stroke-linecap="round" stroke-linejoin="round"/>
<path d="M47 975H1393" stroke="black" stroke-width="4" stroke-linecap="round" stroke-linejoin="round"/>
</g>
<defs>
<clipPath id="clip0_190_3947">
<rect width="1440" height="1024" fill="white"/>
</clipPath>
</defs>
</svg>
