<svg width="268" height="87" viewBox="0 0 268 87" fill="none" xmlns="http://www.w3.org/2000/svg">
<path d="M0 87V0H4.23776V87H0ZM16.9511 83.7852V0H29.6643V83.7852H16.9511ZM33.9021 83.7852V0H38.1399V83.7852H33.9021ZM42.3776 83.7852V0H55.0909V83.7852H42.3776ZM59.3287 83.7852V0H63.5665V83.7852H59.3287Z" fill="black"/>
<path d="M67.8704 83.7852V0H72.1082V83.7852H67.8704ZM84.8215 83.7852V0H97.5348V83.7852H84.8215ZM101.773 83.7852V0H106.01V83.7852H101.773ZM110.248 83.7852V0H122.961V83.7852H110.248ZM127.199 87V0H131.437V87H127.199Z" fill="black"/>
<path d="M135.741 87V0H139.979V87H135.741ZM152.692 83.7852V0H165.405V83.7852H152.692ZM169.643 83.7852V0H173.881V83.7852H169.643ZM178.119 83.7852V0H190.832V83.7852H178.119ZM195.07 83.7852V0H199.307V83.7852H195.07Z" fill="black"/>
<path d="M203.611 83.7852V0H207.849V83.7852H203.611ZM220.562 83.7852V0H233.276V83.7852H220.562ZM237.513 83.7852V0H241.751V83.7852H237.513ZM245.989 83.7852V0H258.702V83.7852H245.989ZM262.94 87V0H267.178V87H262.94Z" fill="black"/>
</svg>
