<svg width="274" height="39" viewBox="0 0 274 39" fill="none" xmlns="http://www.w3.org/2000/svg">
<path d="M0 39V0H2.1254V39H0ZM8.50161 37.5589V0H14.8778V37.5589H8.50161ZM17.0032 37.5589V0H19.1286V37.5589H17.0032ZM21.254 37.5589V0H27.6302V37.5589H21.254ZM29.7556 37.5589V0H31.881V37.5589H29.7556Z" fill="black"/>
<path d="M34.0397 37.5589V0H36.1651V37.5589H34.0397ZM42.5413 37.5589V0H48.9175V37.5589H42.5413ZM51.0429 37.5589V0H53.1683V37.5589H51.0429ZM55.2937 37.5589V0H61.6699V37.5589H55.2937ZM63.7953 39V0H65.9207V39H63.7953Z" fill="black"/>
<path d="M68.0793 39V0H70.2047V39H68.0793ZM76.5809 37.5589V0H82.9571V37.5589H76.5809ZM85.0825 37.5589V0H87.2079V37.5589H85.0825ZM89.3333 37.5589V0H95.7095V37.5589H89.3333ZM97.8349 37.5589V0H99.9603V37.5589H97.8349Z" fill="black"/>
<path d="M102.119 37.5589V0H104.244V37.5589H102.119ZM110.621 37.5589V0H116.997V37.5589H110.621ZM119.122 37.5589V0H121.248V37.5589H119.122ZM123.373 37.5589V0H129.749V37.5589H123.373ZM131.875 39V0H134V39H131.875Z" fill="black"/>
<path d="M140 39V0H142.125V39H140ZM148.502 37.5589V0H154.878V37.5589H148.502ZM157.003 37.5589V0H159.129V37.5589H157.003ZM161.254 37.5589V0H167.63V37.5589H161.254ZM169.756 37.5589V0H171.881V37.5589H169.756Z" fill="black"/>
<path d="M174.04 37.5589V0H176.165V37.5589H174.04ZM182.541 37.5589V0H188.917V37.5589H182.541ZM191.043 37.5589V0H193.168V37.5589H191.043ZM195.294 37.5589V0H201.67V37.5589H195.294ZM203.795 39V0H205.921V39H203.795Z" fill="black"/>
<path d="M208.079 39V0H210.205V39H208.079ZM216.581 37.5589V0H222.957V37.5589H216.581ZM225.083 37.5589V0H227.208V37.5589H225.083ZM229.333 37.5589V0H235.71V37.5589H229.333ZM237.835 37.5589V0H239.96V37.5589H237.835Z" fill="black"/>
<path d="M242.119 37.5589V0H244.244V37.5589H242.119ZM250.621 37.5589V0H256.997V37.5589H250.621ZM259.122 37.5589V0H261.248V37.5589H259.122ZM263.373 37.5589V0H269.749V37.5589H263.373ZM271.875 39V0H274V39H271.875Z" fill="black"/>
</svg>
