<svg width="486" height="383" viewBox="0 0 486 383" fill="none" xmlns="http://www.w3.org/2000/svg">
<g filter="url(#filter0_df_237_107)">
<path fill-rule="evenodd" clip-rule="evenodd" d="M52.9395 65.6432C52.5634 69.8798 52.5588 74.5264 52.5588 79.642C52.5588 83.158 49.7085 86.0083 46.1925 86.0083C42.6765 86.0083 39.8262 83.158 39.8262 79.642L39.8262 79.486C39.8261 74.546 39.8261 69.3692 40.2568 64.5173C40.6918 59.6179 41.5953 54.6099 43.6431 50.1082C45.7501 45.4761 49.0492 41.4335 54.036 38.6416C58.9189 35.9079 64.9524 34.6338 72.1565 34.6338C75.6725 34.6338 78.5228 37.4841 78.5228 41.0001C78.5228 44.5161 75.6725 47.3664 72.1565 47.3664C66.3786 47.3664 62.6756 48.3969 60.2561 49.7515C57.9405 51.0479 56.3714 52.8774 55.2329 55.3802C54.0352 58.0134 53.316 61.403 52.9395 65.6432ZM412.669 41.0001C412.669 37.4841 415.519 34.6338 419.035 34.6338C426.239 34.6338 432.273 35.9079 437.156 38.6416C442.142 41.4335 445.441 45.4761 447.549 50.1082C449.596 54.6099 450.5 59.6179 450.935 64.5173C451.366 69.3691 451.365 74.5459 451.365 79.4859V79.642C451.365 83.158 448.515 86.0083 444.999 86.0083C441.483 86.0083 438.633 83.158 438.633 79.642C438.633 74.5264 438.628 69.8798 438.252 65.6432C437.876 61.403 437.156 58.0134 435.959 55.3802C434.82 52.8774 433.251 51.0479 430.935 49.7515C428.516 48.3969 424.813 47.3664 419.035 47.3664C415.519 47.3664 412.669 44.5161 412.669 41.0001ZM34.6328 152.858C34.6328 149.342 37.4831 146.492 40.9991 146.492L444.999 146.492C448.515 146.492 451.365 149.342 451.365 152.859C451.365 156.375 448.515 159.225 444.999 159.225L40.9991 159.225C37.4831 159.225 34.6328 156.375 34.6328 152.858ZM46.1925 296.992C49.7085 296.992 52.5588 299.842 52.5588 303.358C52.5588 308.474 52.5634 313.12 52.9395 317.357C53.316 321.597 54.0352 324.987 55.2329 327.62C56.3714 330.123 57.9405 331.952 60.2561 333.249C62.6756 334.603 66.3786 335.634 72.1565 335.634C75.6725 335.634 78.5228 338.484 78.5228 342C78.5228 345.516 75.6725 348.366 72.1565 348.366C64.9524 348.366 58.9189 347.092 54.036 344.359C49.0492 341.567 45.7501 337.524 43.6431 332.892C41.5953 328.39 40.6918 323.382 40.2568 318.483C39.8261 313.631 39.8261 308.454 39.8262 303.514L39.8262 303.358C39.8262 299.842 42.6765 296.992 46.1925 296.992ZM444.999 296.992C448.515 296.992 451.365 299.842 451.365 303.358V303.514C451.365 308.454 451.366 313.631 450.935 318.483C450.5 323.382 449.596 328.39 447.549 332.892C445.441 337.524 442.142 341.567 437.156 344.359C432.273 347.092 426.239 348.366 419.035 348.366C415.519 348.366 412.669 345.516 412.669 342C412.669 338.484 415.519 335.634 419.035 335.634C424.813 335.634 428.516 334.603 430.935 333.249C433.251 331.952 434.82 330.123 435.959 327.62C437.156 324.987 437.876 321.597 438.252 317.357C438.628 313.12 438.633 308.474 438.633 303.358C438.633 299.842 441.483 296.992 444.999 296.992Z" fill="#FF0000"/>
</g>
<defs>
<filter id="filter0_df_237_107" x="0.254772" y="0.255749" width="485.489" height="382.489" filterUnits="userSpaceOnUse" color-interpolation-filters="sRGB">
<feFlood flood-opacity="0" result="BackgroundImageFix"/>
<feColorMatrix in="SourceAlpha" type="matrix" values="0 0 0 0 0 0 0 0 0 0 0 0 0 0 0 0 0 0 127 0" result="hardAlpha"/>
<feOffset/>
<feGaussianBlur stdDeviation="17.189"/>
<feComposite in2="hardAlpha" operator="out"/>
<feColorMatrix type="matrix" values="0 0 0 0 1 0 0 0 0 0 0 0 0 0 0 0 0 0 1 0"/>
<feBlend mode="normal" in2="BackgroundImageFix" result="effect1_dropShadow_237_107"/>
<feBlend mode="normal" in="SourceGraphic" in2="effect1_dropShadow_237_107" result="shape"/>
<feGaussianBlur stdDeviation="3.18315" result="effect2_foregroundBlur_237_107"/>
</filter>
</defs>
</svg>
