<svg width="73" height="102" viewBox="0 0 73 102" fill="none" xmlns="http://www.w3.org/2000/svg">
<path d="M7.62939e-06 -3.75918e-06L73 0L73 2.07964L7.55223e-06 2.07964L7.62939e-06 -3.75918e-06ZM2.69747 8.31857L73 8.31857L73 14.5575L2.69747 14.5575L2.69747 8.31857ZM2.69747 16.6371L73 16.6371L73 18.7168L2.69747 18.7168L2.69747 16.6371ZM2.69747 20.7964L73 20.7964L73 27.0354L2.69747 27.0354L2.69747 20.7964ZM2.69747 29.115L73 29.115L73 31.1946L2.69747 31.1946L2.69747 29.115Z" fill="black"/>
<path d="M2.69747 33.3068L73 33.3068L73 35.3864L2.69747 35.3864L2.69747 33.3068ZM2.69747 41.6254L73 41.6254L73 47.8643L2.69747 47.8643L2.69747 41.6254ZM2.69747 49.9439L73 49.9439L73 52.0236L2.69747 52.0236L2.69747 49.9439ZM2.69747 54.1032L73 54.1032L73 60.3421L2.69747 60.3421L2.69747 54.1032ZM5.31331e-06 62.4218L73 62.4218L73 64.5014L5.23614e-06 64.5014L5.31331e-06 62.4218Z" fill="black"/>
<path d="M5.15777e-06 66.6136L73 66.6136L73 68.6932L5.08061e-06 68.6932L5.15777e-06 66.6136ZM2.69747 74.9321L73 74.9321L73 81.1711L2.69747 81.1711L2.69747 74.9321ZM2.69747 83.2507L73 83.2507L73 85.3304L2.69747 85.3304L2.69747 83.2507ZM2.69747 87.41L73 87.41L73 93.6489L2.69747 93.6489L2.69747 87.41ZM2.69747 95.7286L73 95.7286L73 97.8082L2.69747 97.8082L2.69747 95.7286Z" fill="black"/>
<path d="M2.69747 99.9204L73 99.9204L73 102L2.69747 102L2.69747 99.9204Z" fill="black"/>
</svg>
