<svg width="215" height="27" viewBox="0 0 215 27" fill="none" xmlns="http://www.w3.org/2000/svg">
<path d="M0 27V0H3.41016V27H0ZM13.6406 26.0023V0H23.8711V26.0023H13.6406ZM27.2813 26.0023V0H30.6915V26.0023H27.2813ZM34.1016 26.0023V0H44.3321V26.0023H34.1016ZM47.7423 26.0023V0H51.1524V26.0023H47.7423Z" fill="black"/>
<path d="M54.6159 26.0023V0H58.026V26.0023H54.6159ZM68.2565 26.0023V0H78.487V26.0023H68.2565ZM81.8972 26.0023V0H85.3073V26.0023H81.8972ZM88.7175 26.0023V0H98.948V26.0023H88.7175ZM102.358 27V0H105.768V27H102.358Z" fill="black"/>
<path d="M109.232 27V0H112.642V27H109.232ZM122.872 26.0023V0H133.103V26.0023H122.872ZM136.513 26.0023V0H139.923V26.0023H136.513ZM143.333 26.0023V0H153.564V26.0023H143.333ZM156.974 26.0023V0H160.384V26.0023H156.974Z" fill="black"/>
<path d="M163.848 26.0023V0H167.258V26.0023H163.848ZM177.488 26.0023V0H187.719V26.0023H177.488ZM191.129 26.0023V0H194.539V26.0023H191.129ZM197.949 26.0023V0H208.18V26.0023H197.949ZM211.59 27V0H215V27H211.59Z" fill="black"/>
</svg>
