<svg width="426" height="359" viewBox="0 0 426 359" fill="none" xmlns="http://www.w3.org/2000/svg">
<g filter="url(#filter0_df_237_115)">
<path fill-rule="evenodd" clip-rule="evenodd" d="M54.0523 54.2774C51.8965 59.3995 51.7873 66.8049 51.7873 76.5609C51.7873 80.0769 48.937 82.9272 45.421 82.9272C41.905 82.9272 39.0547 80.0769 39.0547 76.5609C39.0547 76.2934 39.0546 76.0245 39.0545 75.7543C39.0513 67.0972 39.0475 57.1056 42.3167 49.3381C44.1212 45.0508 46.9927 41.1932 51.452 38.4949C55.8343 35.8432 61.2167 34.6338 67.529 34.6338C71.045 34.6338 73.8953 37.4841 73.8953 41.0001C73.8953 44.5161 71.045 47.3664 67.529 47.3664C62.7872 47.3664 59.8792 48.2778 58.0436 49.3885C56.2851 50.4526 55.0113 51.9988 54.0523 54.2774ZM356.525 41.0001C356.525 37.4841 359.375 34.6338 362.891 34.6338C369.203 34.6338 374.586 35.8432 378.968 38.4949C383.427 41.1932 386.299 45.0508 388.103 49.3381C391.373 57.1056 391.369 67.0971 391.366 75.7542C391.366 76.0244 391.365 76.2934 391.365 76.5609C391.365 80.0769 388.515 82.9272 384.999 82.9272C381.483 82.9272 378.633 80.0769 378.633 76.5609C378.633 66.8049 378.524 59.3995 376.368 54.2774C375.409 51.9988 374.135 50.4526 372.376 49.3885C370.541 48.2778 367.633 47.3664 362.891 47.3664C359.375 47.3664 356.525 44.5161 356.525 41.0001ZM34.6328 143.94C34.6328 140.424 37.4831 137.574 40.9991 137.574L384.999 137.574C388.515 137.574 391.365 140.424 391.365 143.94C391.365 147.456 388.515 150.307 384.999 150.307L40.9991 150.307C37.4831 150.307 34.6328 147.456 34.6328 143.94ZM45.421 276.073C48.937 276.073 51.7873 278.923 51.7873 282.439C51.7873 292.195 51.8965 299.601 54.0523 304.723C55.0113 307.001 56.2851 308.548 58.0436 309.612C59.8792 310.722 62.7872 311.634 67.529 311.634C71.045 311.634 73.8953 314.484 73.8953 318C73.8953 321.516 71.045 324.366 67.529 324.366C61.2167 324.366 55.8343 323.157 51.452 320.505C46.9927 317.807 44.1212 313.949 42.3167 309.662C39.0475 301.895 39.0513 291.903 39.0545 283.246C39.0546 282.976 39.0547 282.707 39.0547 282.439C39.0547 278.923 41.905 276.073 45.421 276.073ZM384.999 276.073C388.515 276.073 391.365 278.923 391.365 282.439C391.365 282.707 391.366 282.976 391.366 283.246C391.369 291.903 391.373 301.895 388.103 309.662C386.299 313.949 383.427 317.807 378.968 320.505C374.586 323.157 369.203 324.366 362.891 324.366C359.375 324.366 356.525 321.516 356.525 318C356.525 314.484 359.375 311.634 362.891 311.634C367.633 311.634 370.541 310.722 372.376 309.612C374.135 308.548 375.409 307.001 376.368 304.723C378.524 299.601 378.633 292.195 378.633 282.439C378.633 278.923 381.483 276.073 384.999 276.073Z" fill="#FF0000"/>
</g>
<defs>
<filter id="filter0_df_237_115" x="0.254772" y="0.255749" width="425.489" height="358.489" filterUnits="userSpaceOnUse" color-interpolation-filters="sRGB">
<feFlood flood-opacity="0" result="BackgroundImageFix"/>
<feColorMatrix in="SourceAlpha" type="matrix" values="0 0 0 0 0 0 0 0 0 0 0 0 0 0 0 0 0 0 127 0" result="hardAlpha"/>
<feOffset/>
<feGaussianBlur stdDeviation="17.189"/>
<feComposite in2="hardAlpha" operator="out"/>
<feColorMatrix type="matrix" values="0 0 0 0 1 0 0 0 0 0 0 0 0 0 0 0 0 0 1 0"/>
<feBlend mode="normal" in2="BackgroundImageFix" result="effect1_dropShadow_237_115"/>
<feBlend mode="normal" in="SourceGraphic" in2="effect1_dropShadow_237_115" result="shape"/>
<feGaussianBlur stdDeviation="3.18315" result="effect2_foregroundBlur_237_115"/>
</filter>
</defs>
</svg>
