<svg width="85" height="26" viewBox="0 0 85 26" fill="none" xmlns="http://www.w3.org/2000/svg">
<path d="M0 26L0 0L1.3482 0L1.3482 26H0ZM5.39281 25.0393L5.39281 0L9.43742 0L9.43742 25.0393H5.39281ZM10.7856 25.0393L10.7856 0L12.1338 0L12.1338 25.0393L10.7856 25.0393ZM13.482 25.0393L13.482 0L17.5266 0L17.5266 25.0393H13.482ZM18.8748 25.0393L18.8748 0L20.223 0L20.223 25.0393H18.8748Z" fill="black"/>
<path d="M21.5923 25.0393L21.5923 0L22.9405 0L22.9405 25.0393H21.5923ZM26.9851 25.0393L26.9851 0L31.0297 0L31.0297 25.0393H26.9851ZM32.3779 25.0393L32.3779 0L33.7261 0L33.7261 25.0393L32.3779 25.0393ZM35.0743 25.0393L35.0743 0L39.119 0L39.119 25.0393H35.0743ZM40.4672 26L40.4672 0L41.8154 0L41.8154 26H40.4672Z" fill="black"/>
<path d="M43.1846 26L43.1846 0L44.5328 0L44.5328 26H43.1846ZM48.5774 25.0393L48.5774 0L52.6221 0L52.6221 25.0393H48.5774ZM53.9703 25.0393L53.9703 0L55.3185 0L55.3185 25.0393L53.9703 25.0393ZM56.6667 25.0393L56.6667 0L60.7113 0L60.7113 25.0393H56.6667ZM62.0595 25.0393L62.0595 0L63.4077 0L63.4077 25.0393H62.0595Z" fill="black"/>
<path d="M64.777 25.0393V0L66.1252 0V25.0393H64.777ZM70.1698 25.0393V0L74.2144 0V25.0393H70.1698ZM75.5626 25.0393V0L76.9108 0V25.0393H75.5626ZM78.259 25.0393V0L82.3036 0V25.0393H78.259ZM83.6518 26V0L85 0V26H83.6518Z" fill="black"/>
</svg>
