<svg width="385" height="365" viewBox="0 0 385 365" fill="none" xmlns="http://www.w3.org/2000/svg">
<g filter="url(#filter0_df_237_123)">
<path fill-rule="evenodd" clip-rule="evenodd" d="M53.3123 54.2134C51.3449 59.6356 51.26 67.4228 51.26 77.3312C51.26 80.8472 48.4097 83.6975 44.8937 83.6975C41.3777 83.6975 38.5274 80.8472 38.5274 77.3312C38.5274 77.081 38.5273 76.8298 38.5273 76.5777C38.525 67.6733 38.5224 57.6445 41.3433 49.8704C42.8779 45.6414 45.3731 41.657 49.4516 38.7945C53.5235 35.9366 58.5513 34.6338 64.3667 34.6338C67.8827 34.6338 70.733 37.4841 70.733 41.0001C70.733 44.5161 67.8827 47.3664 64.3667 47.3664C60.4457 47.3664 58.171 48.2304 56.7662 49.2164C55.3679 50.1977 54.212 51.7342 53.3123 54.2134ZM318.16 41.0001C318.16 37.4841 321.01 34.6338 324.526 34.6338C330.342 34.6338 335.369 35.9366 339.441 38.7945C343.52 41.657 346.015 45.6414 347.549 49.8704C350.37 57.6445 350.368 67.6733 350.366 76.5777C350.365 76.8298 350.365 77.081 350.365 77.3312C350.365 80.8472 347.515 83.6975 343.999 83.6975C340.483 83.6975 337.633 80.8472 337.633 77.3312C337.633 67.4228 337.548 59.6356 335.58 54.2134C334.681 51.7342 333.525 50.1977 332.127 49.2164C330.722 48.2304 328.447 47.3664 324.526 47.3664C321.01 47.3664 318.16 44.5161 318.16 41.0001ZM34.6328 146.169C34.6328 142.653 37.4831 139.803 40.9991 139.803L343.999 139.803C347.515 139.803 350.365 142.653 350.365 146.169C350.365 149.685 347.515 152.535 343.999 152.535L40.9991 152.535C37.4831 152.535 34.6328 149.685 34.6328 146.169ZM44.8937 281.303C48.4097 281.303 51.26 284.153 51.26 287.669C51.2599 297.577 51.3448 305.365 53.3123 310.787C54.2119 313.266 55.3679 314.802 56.7661 315.784C58.171 316.77 60.4456 317.634 64.3667 317.634C67.8827 317.634 70.733 320.484 70.733 324C70.733 327.516 67.8827 330.366 64.3667 330.366C58.5512 330.366 53.5235 329.064 49.4516 326.206C45.373 323.343 42.8778 319.359 41.3433 315.13C38.5224 307.356 38.5249 297.327 38.5272 288.423C38.5273 288.17 38.5273 287.919 38.5273 287.669C38.5273 284.153 41.3776 281.303 44.8937 281.303ZM343.999 281.303C347.515 281.303 350.365 284.153 350.365 287.669C350.365 287.919 350.365 288.17 350.366 288.423C350.368 297.327 350.37 307.356 347.549 315.13C346.015 319.359 343.52 323.343 339.441 326.206C335.369 329.064 330.342 330.366 324.526 330.366C321.01 330.366 318.16 327.516 318.16 324C318.16 320.484 321.01 317.634 324.526 317.634C328.447 317.634 330.722 316.77 332.127 315.784C333.525 314.802 334.681 313.266 335.58 310.787C337.548 305.365 337.633 297.577 337.633 287.669C337.633 284.153 340.483 281.303 343.999 281.303Z" fill="#FF0000"/>
</g>
<defs>
<filter id="filter0_df_237_123" x="0.254772" y="0.255749" width="384.489" height="364.489" filterUnits="userSpaceOnUse" color-interpolation-filters="sRGB">
<feFlood flood-opacity="0" result="BackgroundImageFix"/>
<feColorMatrix in="SourceAlpha" type="matrix" values="0 0 0 0 0 0 0 0 0 0 0 0 0 0 0 0 0 0 127 0" result="hardAlpha"/>
<feOffset/>
<feGaussianBlur stdDeviation="17.189"/>
<feComposite in2="hardAlpha" operator="out"/>
<feColorMatrix type="matrix" values="0 0 0 0 1 0 0 0 0 0 0 0 0 0 0 0 0 0 1 0"/>
<feBlend mode="normal" in2="BackgroundImageFix" result="effect1_dropShadow_237_123"/>
<feBlend mode="normal" in="SourceGraphic" in2="effect1_dropShadow_237_123" result="shape"/>
<feGaussianBlur stdDeviation="3.18315" result="effect2_foregroundBlur_237_123"/>
</filter>
</defs>
</svg>
