<svg width="79" height="855" viewBox="0 0 79 855" fill="none" xmlns="http://www.w3.org/2000/svg">
<path d="M79 855L0 855L-1.95495e-07 850.528L79 850.528L79 855ZM79 837.11L-7.81982e-07 837.11L-1.36847e-06 823.693L79 823.693L79 837.11ZM79 819.221L-1.56396e-06 819.221L-1.75946e-06 814.748L79 814.748L79 819.221ZM79 810.276L-1.95495e-06 810.276L-2.54144e-06 796.859L79 796.859L79 810.276ZM79 792.386L-2.73694e-06 792.386L-2.93243e-06 787.914L79 787.914L79 792.386Z" fill="black"/>
<path d="M79 783.371L-3.13098e-06 783.371L-3.32648e-06 778.899L79 778.899L79 783.371ZM79 765.482L-3.91296e-06 765.482L-4.49945e-06 752.065L79 752.065L79 765.482ZM79 747.592L-4.69495e-06 747.592L-4.89044e-06 743.12L79 743.12L79 747.592ZM79 738.647L-5.08594e-06 738.647L-5.67242e-06 725.23L79 725.23L79 738.647ZM79 720.758L-5.86792e-06 720.758L-6.06341e-06 716.285L79 716.285L79 720.758Z" fill="black"/>
<path d="M79 711.743L-6.26196e-06 711.743L-6.45746e-06 707.271L79 707.271L79 711.743ZM79 693.853L-7.04395e-06 693.853L-7.63043e-06 680.436L79 680.436L79 693.853ZM79 675.964L-7.82593e-06 675.964L-8.02142e-06 671.491L79 671.491L79 675.964ZM79 667.019L-8.21692e-06 667.019L-8.80341e-06 653.602L79 653.602L79 667.019ZM79 649.129L-8.9989e-06 649.129L-9.1944e-06 644.657L79 644.657L79 649.129Z" fill="black"/>
<path d="M79 640.114L-9.39295e-06 640.114L-9.58844e-06 635.642L79 635.642L79 640.114ZM79 622.225L-1.01749e-05 622.225L-1.07614e-05 608.808L79 608.808L79 622.225ZM79 604.335L-1.09569e-05 604.335L-1.11524e-05 599.863L79 599.863L79 604.335ZM79 595.39L-1.13479e-05 595.39L-1.19344e-05 581.973L79 581.973L79 595.39ZM79 577.501L-1.21299e-05 577.501L-1.23254e-05 573.028L79 573.028L79 577.501Z" fill="black"/>
<path d="M79 568.486L-1.25239e-05 568.486L-1.27194e-05 564.014L79 564.014L79 568.486ZM79 550.596L-1.33059e-05 550.596L-1.38924e-05 537.179L79 537.179L79 550.596ZM79 532.707L-1.40879e-05 532.707L-1.42834e-05 528.234L79 528.234L79 532.707ZM79 523.762L-1.44789e-05 523.762L-1.50654e-05 510.345L79 510.345L79 523.762ZM79 505.872L-1.52609e-05 505.872L-1.54564e-05 501.4L79 501.4L79 505.872Z" fill="black"/>
<path d="M79 496.857L-1.56549e-05 496.857L-1.58504e-05 492.385L79 492.385L79 496.857ZM79 478.968L-1.64369e-05 478.968L-1.70234e-05 465.551L79 465.551L79 478.968ZM79 461.078L-1.72189e-05 461.078L-1.74144e-05 456.606L79 456.606L79 461.078ZM79 452.133L-1.76099e-05 452.133L-1.81964e-05 438.716L79 438.716L79 452.133ZM79 434.244L-1.83918e-05 434.244L-1.85873e-05 429.771L79 429.771L79 434.244Z" fill="black"/>
<path d="M79 425.229L-1.87859e-05 425.229L-1.89814e-05 420.756L79 420.756L79 425.229ZM79 407.339L-1.95679e-05 407.339L-2.01544e-05 393.922L79 393.922L79 407.339ZM79 389.45L-2.03499e-05 389.45L-2.05454e-05 384.977L79 384.977L79 389.45ZM79 380.505L-2.07408e-05 380.505L-2.13273e-05 367.087L79 367.087L79 380.505ZM79 362.615L-2.15228e-05 362.615L-2.17183e-05 358.143L79 358.143L79 362.615Z" fill="black"/>
<path d="M79 353.6L-2.19169e-05 353.6L-2.21124e-05 349.128L79 349.128L79 353.6ZM79 335.711L-2.26989e-05 335.711L-2.32853e-05 322.293L79 322.293L79 335.711ZM79 317.821L-2.34808e-05 317.821L-2.36763e-05 313.349L79 313.349L79 317.821ZM79 308.876L-2.38718e-05 308.876L-2.44583e-05 295.459L79 295.459L79 308.876ZM79 290.987L-2.46538e-05 290.987L-2.48493e-05 286.514L79 286.514L79 290.987Z" fill="black"/>
<path d="M79 281.972L-2.50479e-05 281.972L-2.52434e-05 277.499L79 277.499L79 281.972ZM79 264.082L-2.58298e-05 264.082L-2.64163e-05 250.665L79 250.665L79 264.082ZM79 246.193L-2.66118e-05 246.193L-2.68073e-05 241.72L79 241.72L79 246.193ZM79 237.248L-2.70028e-05 237.248L-2.75893e-05 223.83L79 223.83L79 237.248ZM79 219.358L-2.77848e-05 219.358L-2.79803e-05 214.886L79 214.886L79 219.358Z" fill="black"/>
<path d="M79 210.343L-2.81788e-05 210.343L-2.83743e-05 205.871L79 205.871L79 210.343ZM79 192.454L-2.89608e-05 192.454L-2.95473e-05 179.036L79 179.036L79 192.454ZM79 174.564L-2.97428e-05 174.564L-2.99383e-05 170.092L79 170.092L79 174.564ZM79 165.619L-3.01338e-05 165.619L-3.07203e-05 152.202L79 152.202L79 165.619ZM79 147.729L-3.09158e-05 147.729L-3.11113e-05 143.257L79 143.257L79 147.729Z" fill="black"/>
<path d="M79 138.715L-3.13098e-05 138.715L-3.15053e-05 134.242L79 134.242L79 138.715ZM79 120.825L-3.20918e-05 120.825L-3.26783e-05 107.408L79 107.408L79 120.825ZM79 102.935L-3.28738e-05 102.935L-3.30693e-05 98.463L79 98.463L79 102.935ZM79 93.9907L-3.32648e-05 93.9907L-3.38513e-05 80.5734L79 80.5734L79 93.9907ZM79 76.101L-3.40468e-05 76.101L-3.42423e-05 71.6285L79 71.6285L79 76.101Z" fill="black"/>
<path d="M79 67.0863L-3.44408e-05 67.0863L-3.46363e-05 62.6138L79 62.6138L79 67.0863ZM79 49.1966L-3.52228e-05 49.1966L-3.58093e-05 35.7794L79 35.7794L79 49.1966ZM79 31.3069L-3.60048e-05 31.3069L-3.62003e-05 26.8345L79 26.8345L79 31.3069ZM79 22.3621L-3.63958e-05 22.3621L-3.69822e-05 8.94489L79 8.94488L79 22.3621ZM79 4.47247L-3.71777e-05 4.47247L-3.73732e-05 6.10352e-05L79 5.7582e-05L79 4.47247Z" fill="black"/>
</svg>
