<svg width="1402" height="461" viewBox="0 0 1402 461" fill="none" xmlns="http://www.w3.org/2000/svg">
<g filter="url(#filter0_df_237_131)">
<path fill-rule="evenodd" clip-rule="evenodd" d="M72.6852 60.645C64.6492 67.453 64.3321 76.4453 64.3321 89.6555C64.3321 93.1715 61.4819 96.0218 57.9658 96.0218C54.4498 96.0218 51.5995 93.1715 51.5995 89.6555C51.5995 89.3762 51.5994 89.0953 51.5992 88.8129C51.5921 76.7267 51.5833 61.8347 64.4548 50.9301C70.8349 45.5249 79.8921 41.5031 92.4121 38.8018C104.949 36.097 121.348 34.6338 142.799 34.6338C146.315 34.6338 149.165 37.4841 149.165 41.0001C149.165 44.5161 146.315 47.3664 142.799 47.3664C121.833 47.3664 106.42 48.805 95.0975 51.248C83.7582 53.6945 76.9092 57.0664 72.6852 60.645ZM1269.8 41.0001C1269.8 37.4841 1272.65 34.6338 1276.17 34.6338C1297.62 34.6338 1314.02 36.097 1326.55 38.8018C1339.07 41.5031 1348.13 45.5249 1354.51 50.9301C1367.38 61.8347 1367.37 76.7267 1367.37 88.8128L1367.37 89.6555C1367.37 93.1715 1364.52 96.0218 1361 96.0218C1357.48 96.0218 1354.63 93.1715 1354.63 89.6555C1354.63 76.4453 1354.32 67.453 1346.28 60.645C1342.06 57.0664 1335.21 53.6945 1323.87 51.248C1312.54 48.805 1297.13 47.3664 1276.17 47.3664C1272.65 47.3664 1269.8 44.5161 1269.8 41.0001ZM34.6328 181.845C34.6328 178.329 37.4831 175.478 40.9991 175.478L1361 175.478C1364.52 175.478 1367.37 178.329 1367.37 181.845C1367.37 185.361 1364.52 188.211 1361 188.211L40.9991 188.211C37.4831 188.211 34.6328 185.361 34.6328 181.845ZM57.9658 364.978C61.4819 364.978 64.3321 367.829 64.3321 371.345C64.3321 384.555 64.6492 393.547 72.6852 400.355C76.9092 403.934 83.7582 407.306 95.0975 409.752C106.42 412.195 121.833 413.634 142.799 413.634C146.315 413.634 149.165 416.484 149.165 420C149.165 423.516 146.315 426.366 142.799 426.366C121.348 426.366 104.949 424.903 92.4121 422.198C79.8921 419.497 70.8349 415.475 64.4548 410.07C51.5833 399.165 51.5921 384.273 51.5992 372.187C51.5994 371.905 51.5995 371.624 51.5995 371.345C51.5995 367.829 54.4498 364.978 57.9658 364.978ZM1361 364.978C1364.52 364.978 1367.37 367.829 1367.37 371.345L1367.37 372.187C1367.37 384.273 1367.38 399.165 1354.51 410.07C1348.13 415.475 1339.07 419.497 1326.55 422.198C1314.02 424.903 1297.62 426.366 1276.17 426.366C1272.65 426.366 1269.8 423.516 1269.8 420C1269.8 416.484 1272.65 413.634 1276.17 413.634C1297.13 413.634 1312.54 412.195 1323.87 409.752C1335.21 407.306 1342.06 403.934 1346.28 400.355C1354.32 393.547 1354.63 384.555 1354.63 371.345C1354.63 367.829 1357.48 364.978 1361 364.978Z" fill="#FF0000"/>
</g>
<defs>
<filter id="filter0_df_237_131" x="0.254772" y="0.255749" width="1401.49" height="460.489" filterUnits="userSpaceOnUse" color-interpolation-filters="sRGB">
<feFlood flood-opacity="0" result="BackgroundImageFix"/>
<feColorMatrix in="SourceAlpha" type="matrix" values="0 0 0 0 0 0 0 0 0 0 0 0 0 0 0 0 0 0 127 0" result="hardAlpha"/>
<feOffset/>
<feGaussianBlur stdDeviation="17.189"/>
<feComposite in2="hardAlpha" operator="out"/>
<feColorMatrix type="matrix" values="0 0 0 0 1 0 0 0 0 0 0 0 0 0 0 0 0 0 1 0"/>
<feBlend mode="normal" in2="BackgroundImageFix" result="effect1_dropShadow_237_131"/>
<feBlend mode="normal" in="SourceGraphic" in2="effect1_dropShadow_237_131" result="shape"/>
<feGaussianBlur stdDeviation="3.18315" result="effect2_foregroundBlur_237_131"/>
</filter>
</defs>
</svg>
