<svg width="292" height="295" viewBox="0 0 292 295" fill="none" xmlns="http://www.w3.org/2000/svg">
<g filter="url(#filter0_df_237_139)">
<path fill-rule="evenodd" clip-rule="evenodd" d="M51.4235 51.3283C50.138 55.1754 50.0646 60.8122 50.0646 68.3447C50.0646 71.8607 47.2144 74.711 43.6983 74.711C40.1823 74.711 37.332 71.8607 37.332 68.3447C37.332 68.1238 37.332 67.9016 37.3319 67.6781C37.3295 61.0566 37.3268 53.3398 39.3472 47.2931C40.4577 43.9695 42.3221 40.6459 45.5329 38.1988C48.7836 35.7211 52.7674 34.6338 57.1945 34.6338C60.7105 34.6338 63.5608 37.4841 63.5608 41.0001C63.5608 44.5161 60.7105 47.3664 57.1945 47.3664C54.8735 47.3664 53.7962 47.9099 53.2512 48.3253C52.6661 48.7712 52 49.603 51.4235 51.3283ZM231.137 41.0001C231.137 37.4841 233.987 34.6338 237.503 34.6338C241.93 34.6338 245.914 35.7211 249.165 38.1988C252.375 40.6459 254.24 43.9695 255.35 47.2931C257.371 53.3398 257.368 61.0565 257.366 67.6781C257.365 67.9016 257.365 68.1238 257.365 68.3447C257.365 71.8607 254.515 74.711 250.999 74.711C247.483 74.711 244.633 71.8607 244.633 68.3447C244.633 60.8122 244.559 55.1754 243.274 51.3283C242.697 49.603 242.031 48.7712 241.446 48.3253C240.901 47.9099 239.824 47.3664 237.503 47.3664C233.987 47.3664 231.137 44.5161 231.137 41.0001ZM34.6328 120.155C34.6328 116.639 37.4831 113.789 40.9991 113.789L250.999 113.789C254.515 113.789 257.365 116.639 257.365 120.155C257.365 123.671 254.515 126.522 250.999 126.522L40.9991 126.522C37.4831 126.522 34.6328 123.671 34.6328 120.155ZM43.6983 220.289C47.2144 220.289 50.0646 223.139 50.0646 226.656C50.0646 234.188 50.138 239.825 51.4235 243.672C52 245.397 52.6661 246.229 53.2512 246.675C53.7962 247.09 54.8735 247.634 57.1945 247.634C60.7105 247.634 63.5608 250.484 63.5608 254C63.5608 257.516 60.7105 260.366 57.1945 260.366C52.7674 260.366 48.7836 259.279 45.5329 256.801C42.3221 254.354 40.4577 251.031 39.3472 247.707C37.3268 241.66 37.3295 233.944 37.3319 227.322C37.332 227.099 37.332 226.876 37.332 226.656C37.332 223.139 40.1823 220.289 43.6983 220.289ZM250.999 220.289C254.515 220.289 257.365 223.139 257.365 226.656C257.365 226.876 257.365 227.099 257.366 227.322C257.368 233.944 257.371 241.66 255.35 247.707C254.24 251.031 252.375 254.354 249.165 256.801C245.914 259.279 241.93 260.366 237.503 260.366C233.987 260.366 231.137 257.516 231.137 254C231.137 250.484 233.987 247.634 237.503 247.634C239.824 247.634 240.901 247.09 241.446 246.675C242.031 246.229 242.697 245.397 243.274 243.672C244.559 239.825 244.633 234.188 244.633 226.656C244.633 223.139 247.483 220.289 250.999 220.289Z" fill="#FF0000"/>
</g>
<defs>
<filter id="filter0_df_237_139" x="0.254772" y="0.255749" width="291.489" height="294.489" filterUnits="userSpaceOnUse" color-interpolation-filters="sRGB">
<feFlood flood-opacity="0" result="BackgroundImageFix"/>
<feColorMatrix in="SourceAlpha" type="matrix" values="0 0 0 0 0 0 0 0 0 0 0 0 0 0 0 0 0 0 127 0" result="hardAlpha"/>
<feOffset/>
<feGaussianBlur stdDeviation="17.189"/>
<feComposite in2="hardAlpha" operator="out"/>
<feColorMatrix type="matrix" values="0 0 0 0 1 0 0 0 0 0 0 0 0 0 0 0 0 0 1 0"/>
<feBlend mode="normal" in2="BackgroundImageFix" result="effect1_dropShadow_237_139"/>
<feBlend mode="normal" in="SourceGraphic" in2="effect1_dropShadow_237_139" result="shape"/>
<feGaussianBlur stdDeviation="3.18315" result="effect2_foregroundBlur_237_139"/>
</filter>
</defs>
</svg>
