<svg width="352" height="276" viewBox="0 0 352 276" fill="none" xmlns="http://www.w3.org/2000/svg">
<g filter="url(#filter0_df_237_147)">
<path fill-rule="evenodd" clip-rule="evenodd" d="M51.0785 57.1038C50.8392 59.7037 50.8342 62.5832 50.8342 65.9055C50.8342 69.4215 47.9839 72.2718 44.4679 72.2718C40.9519 72.2718 38.1016 69.4215 38.1016 65.9055L38.1016 65.7531C38.1015 62.6056 38.1014 59.1749 38.3995 55.9366C38.7024 52.6466 39.3441 49.1076 40.879 45.8535C42.4777 42.464 44.9994 39.4908 48.7637 37.4584C52.4142 35.4873 56.7999 34.6338 61.82 34.6338C65.3361 34.6338 68.1864 37.4841 68.1864 41.0001C68.1864 44.5161 65.3361 47.3664 61.82 47.3664C58.1641 47.3664 56.0427 47.9982 54.813 48.6622C53.6969 49.2648 52.9651 50.0763 52.3948 51.2853C51.7607 52.6297 51.3179 54.5031 51.0785 57.1038ZM287.281 41.0001C287.281 37.4841 290.131 34.6338 293.647 34.6338C298.667 34.6338 303.053 35.4873 306.703 37.4584C310.468 39.4908 312.989 42.464 314.588 45.8535C316.123 49.1076 316.765 52.6466 317.067 55.9366C317.366 59.175 317.366 62.6058 317.365 65.7534V65.9055C317.365 69.4215 314.515 72.2718 310.999 72.2718C307.483 72.2718 304.633 69.4215 304.633 65.9055C304.633 62.5832 304.628 59.7037 304.388 57.1038C304.149 54.5031 303.706 52.6297 303.072 51.2853C302.502 50.0763 301.77 49.2648 300.654 48.6622C299.424 47.9982 297.303 47.3664 293.647 47.3664C290.131 47.3664 287.281 44.5161 287.281 41.0001ZM34.6328 113.096C34.6328 109.58 37.4831 106.729 40.9991 106.729L310.999 106.729C314.515 106.729 317.365 109.58 317.365 113.096C317.365 116.612 314.515 119.462 310.999 119.462L40.9991 119.462C37.4831 119.462 34.6328 116.612 34.6328 113.096ZM44.4679 203.728C47.9839 203.728 50.8342 206.579 50.8342 210.095C50.8342 213.417 50.8392 216.296 51.0785 218.896C51.3179 221.497 51.7607 223.37 52.3948 224.715C52.9651 225.924 53.6969 226.735 54.813 227.338C56.0427 228.002 58.1641 228.634 61.82 228.634C65.3361 228.634 68.1864 231.484 68.1864 235C68.1864 238.516 65.3361 241.366 61.82 241.366C56.7999 241.366 52.4142 240.513 48.7637 238.542C44.9994 236.509 42.4777 233.536 40.879 230.147C39.3441 226.893 38.7024 223.354 38.3995 220.064C38.1014 216.825 38.1015 213.395 38.1016 210.247L38.1016 210.095C38.1016 206.579 40.9519 203.728 44.4679 203.728ZM310.999 203.728C314.515 203.728 317.365 206.579 317.365 210.095V210.247C317.366 213.394 317.366 216.825 317.067 220.064C316.765 223.354 316.123 226.893 314.588 230.147C312.989 233.536 310.468 236.509 306.703 238.542C303.053 240.513 298.667 241.366 293.647 241.366C290.131 241.366 287.281 238.516 287.281 235C287.281 231.484 290.131 228.634 293.647 228.634C297.303 228.634 299.424 228.002 300.654 227.338C301.77 226.735 302.502 225.924 303.072 224.715C303.706 223.37 304.149 221.497 304.388 218.896C304.628 216.296 304.633 213.417 304.633 210.095C304.633 206.579 307.483 203.728 310.999 203.728Z" fill="#FF0000"/>
</g>
<defs>
<filter id="filter0_df_237_147" x="0.254772" y="0.255749" width="351.489" height="275.489" filterUnits="userSpaceOnUse" color-interpolation-filters="sRGB">
<feFlood flood-opacity="0" result="BackgroundImageFix"/>
<feColorMatrix in="SourceAlpha" type="matrix" values="0 0 0 0 0 0 0 0 0 0 0 0 0 0 0 0 0 0 127 0" result="hardAlpha"/>
<feOffset/>
<feGaussianBlur stdDeviation="17.189"/>
<feComposite in2="hardAlpha" operator="out"/>
<feColorMatrix type="matrix" values="0 0 0 0 1 0 0 0 0 0 0 0 0 0 0 0 0 0 1 0"/>
<feBlend mode="normal" in2="BackgroundImageFix" result="effect1_dropShadow_237_147"/>
<feBlend mode="normal" in="SourceGraphic" in2="effect1_dropShadow_237_147" result="shape"/>
<feGaussianBlur stdDeviation="3.18315" result="effect2_foregroundBlur_237_147"/>
</filter>
</defs>
</svg>
