<svg width="539" height="550" viewBox="0 0 539 550" fill="none" xmlns="http://www.w3.org/2000/svg">
<g filter="url(#filter0_df_237_155)">
<path fill-rule="evenodd" clip-rule="evenodd" d="M56.5893 61.2602C53.3126 71.1615 53.2404 84.9932 53.2404 101.081C53.2404 104.597 50.3901 107.447 46.8741 107.447C43.3581 107.447 40.5078 104.597 40.5078 101.081C40.5078 100.819 40.5078 100.556 40.5078 100.293C40.5065 85.2005 40.5053 69.3351 44.5015 57.2598C46.5987 50.9228 49.9432 45.1101 55.3821 40.9247C60.8666 36.7042 67.8356 34.6338 76.2443 34.6338C79.7603 34.6338 82.6106 37.4841 82.6106 41.0001C82.6106 44.5161 79.7603 47.3664 76.2443 47.3664C69.9679 47.3664 65.9231 48.8793 63.1472 51.0154C60.3258 53.1866 58.1634 56.5038 56.5893 61.2602ZM462.263 41.0001C462.263 37.4841 465.113 34.6338 468.629 34.6338C477.038 34.6338 484.007 36.7042 489.491 40.9247C494.93 45.1101 498.275 50.9228 500.372 57.2598C504.368 69.3351 504.367 85.2004 504.365 100.293L504.365 101.081C504.365 104.597 501.515 107.447 497.999 107.447C494.483 107.447 491.633 104.597 491.633 101.081C491.633 84.9932 491.561 71.1615 488.284 61.2602C486.71 56.5038 484.547 53.1866 481.726 51.0154C478.95 48.8793 474.905 47.3664 468.629 47.3664C465.113 47.3664 462.263 44.5161 462.263 41.0001ZM34.6328 214.919C34.6328 211.403 37.4831 208.553 40.9991 208.553L497.999 208.553C501.515 208.553 504.365 211.403 504.365 214.919C504.365 218.435 501.515 221.285 497.999 221.285L40.9991 221.285C37.4831 221.285 34.6328 218.435 34.6328 214.919ZM46.8741 442.553C50.3901 442.553 53.2404 445.403 53.2404 448.919C53.2404 465.007 53.3126 478.839 56.5893 488.74C58.1634 493.496 60.3258 496.814 63.1472 498.985C65.9231 501.121 69.9679 502.634 76.2443 502.634C79.7603 502.634 82.6106 505.484 82.6106 509C82.6106 512.516 79.7603 515.366 76.2443 515.366C67.8356 515.366 60.8666 513.296 55.3821 509.076C49.9432 504.89 46.5987 499.077 44.5015 492.74C40.5053 480.665 40.5065 464.8 40.5078 449.707L40.5078 448.919C40.5078 445.403 43.3581 442.553 46.8741 442.553ZM497.999 442.553C501.515 442.553 504.365 445.403 504.365 448.919L504.365 449.707C504.367 464.8 504.368 480.665 500.372 492.74C498.275 499.077 494.93 504.89 489.491 509.076C484.007 513.296 477.038 515.366 468.629 515.366C465.113 515.366 462.263 512.516 462.263 509C462.263 505.484 465.113 502.634 468.629 502.634C474.905 502.634 478.95 501.121 481.726 498.985C484.547 496.814 486.71 493.496 488.284 488.74C491.561 478.839 491.633 465.007 491.633 448.919C491.633 445.403 494.483 442.553 497.999 442.553Z" fill="#FF0000"/>
</g>
<defs>
<filter id="filter0_df_237_155" x="0.254772" y="0.255749" width="538.489" height="549.489" filterUnits="userSpaceOnUse" color-interpolation-filters="sRGB">
<feFlood flood-opacity="0" result="BackgroundImageFix"/>
<feColorMatrix in="SourceAlpha" type="matrix" values="0 0 0 0 0 0 0 0 0 0 0 0 0 0 0 0 0 0 127 0" result="hardAlpha"/>
<feOffset/>
<feGaussianBlur stdDeviation="17.189"/>
<feComposite in2="hardAlpha" operator="out"/>
<feColorMatrix type="matrix" values="0 0 0 0 1 0 0 0 0 0 0 0 0 0 0 0 0 0 1 0"/>
<feBlend mode="normal" in2="BackgroundImageFix" result="effect1_dropShadow_237_155"/>
<feBlend mode="normal" in="SourceGraphic" in2="effect1_dropShadow_237_155" result="shape"/>
<feGaussianBlur stdDeviation="3.18315" result="effect2_foregroundBlur_237_155"/>
</filter>
</defs>
</svg>
