<svg width="337" height="60" viewBox="0 0 337 60" fill="none" xmlns="http://www.w3.org/2000/svg">
<path d="M291.164 60.0002V0.410156H294.194V60.0002H291.164ZM303.284 60.0002V0.410156H312.374V60.0002H303.284ZM315.404 60.0002V0.410156H318.434V60.0002H315.404ZM321.464 60.0002V0.410156H330.554V60.0002H321.464ZM333.584 60.0002V0.410156H336.614V60.0002H333.584Z" fill="black"/>
<path d="M242.637 60.0002V0.410156H245.667V60.0002H242.637ZM254.757 60.0002V0.410156H263.847V60.0002H254.757ZM266.877 60.0002V0.410156H269.907V60.0002H266.877ZM272.937 60.0002V0.410156H282.027V60.0002H272.937ZM285.057 60.0002V0.410156H288.087V60.0002H285.057Z" fill="black"/>
<path d="M194.109 60.0002V0.410156H197.139V60.0002H194.109ZM206.229 60.0002V0.410156H215.319V60.0002H206.229ZM218.349 60.0002V0.410156H221.379V60.0002H218.349ZM224.409 60.0002V0.410156H233.499V60.0002H224.409ZM236.529 60.0002V0.410156H239.559V60.0002H236.529Z" fill="black"/>
<path d="M145.582 60.0002V0.410156H148.612V60.0002H145.582ZM157.702 60.0002V0.410156H166.792V60.0002H157.702ZM169.822 60.0002V0.410156H172.852V60.0002H169.822ZM175.882 60.0002V0.410156H184.972V60.0002H175.882ZM188.002 60.0002V0.410156H191.032V60.0002H188.002Z" fill="black"/>
<path d="M97.0547 60.0002V0.410156H100.085V60.0002H97.0547ZM109.175 60.0002V0.410156H118.265V60.0002H109.175ZM121.295 60.0002V0.410156H124.325V60.0002H121.295ZM127.355 60.0002V0.410156H136.445V60.0002H127.355ZM139.475 60.0002V0.410156H142.505V60.0002H139.475Z" fill="black"/>
<path d="M48.5273 60.0002V0.410156H51.5573V60.0002H48.5273ZM60.6473 60.0002V0.410156H69.7373V60.0002H60.6473ZM72.7673 60.0002V0.410156H75.7973V60.0002H72.7673ZM78.8273 60.0002V0.410156H87.9173V60.0002H78.8273ZM90.9473 60.0002V0.410156H93.9773V60.0002H90.9473Z" fill="black"/>
<path d="M0 60.0002V0.410156H3.03V60.0002H0ZM12.12 60.0002V0.410156H21.21V60.0002H12.12ZM24.24 60.0002V0.410156H27.27V60.0002H24.24ZM30.3 60.0002V0.410156H39.39V60.0002H30.3ZM42.42 60.0002V0.410156H45.45V60.0002H42.42Z" fill="black"/>
</svg>
