<svg width="588" height="285" viewBox="0 0 588 285" fill="none" xmlns="http://www.w3.org/2000/svg">
<g filter="url(#filter0_df_237_163)">
<path fill-rule="evenodd" clip-rule="evenodd" d="M56.4312 53.0289C54.1442 55.7361 53.8693 59.6361 53.8693 67.0609C53.8693 70.5769 51.019 73.4272 47.503 73.4272C43.987 73.4272 41.1367 70.5769 41.1367 67.0609C41.1367 66.7991 41.1362 66.532 41.1357 66.2602C41.1244 60.0921 41.1085 51.4367 46.7047 44.8122C52.7025 37.7123 63.414 34.6338 80.0223 34.6338C83.5383 34.6338 86.3886 37.4841 86.3886 41.0001C86.3886 44.5161 83.5383 47.3664 80.0223 47.3664C64.1114 47.3664 58.5633 50.5051 56.4312 53.0289ZM508.114 41.0001C508.114 37.4841 510.964 34.6338 514.48 34.6338C531.088 34.6338 541.8 37.7123 547.797 44.8122C553.394 51.4367 553.378 60.0921 553.366 66.2602C553.366 66.5321 553.365 66.7991 553.365 67.0609C553.365 70.5769 550.515 73.4272 546.999 73.4272C543.483 73.4272 540.633 70.5769 540.633 67.0609C540.633 59.6361 540.358 55.7361 538.071 53.0289C535.939 50.5051 530.391 47.3664 514.48 47.3664C510.964 47.3664 508.114 44.5161 508.114 41.0001ZM34.6328 116.44C34.6328 112.924 37.4831 110.073 40.9991 110.073L546.999 110.073C550.515 110.073 553.365 112.924 553.365 116.44C553.365 119.956 550.515 122.806 546.999 122.806L40.9991 122.806C37.4831 122.806 34.6328 119.956 34.6328 116.44ZM47.503 211.573C51.019 211.573 53.8693 214.423 53.8693 217.939C53.8693 225.364 54.1442 229.264 56.4312 231.971C58.5633 234.495 64.1114 237.634 80.0223 237.634C83.5383 237.634 86.3886 240.484 86.3886 244C86.3886 247.516 83.5383 250.366 80.0223 250.366C63.414 250.366 52.7025 247.288 46.7047 240.188C41.1085 233.563 41.1244 224.908 41.1357 218.74C41.1362 218.468 41.1367 218.201 41.1367 217.939C41.1367 214.423 43.987 211.573 47.503 211.573ZM546.999 211.573C550.515 211.573 553.365 214.423 553.365 217.939C553.365 218.201 553.366 218.468 553.366 218.74C553.378 224.908 553.394 233.563 547.797 240.188C541.8 247.288 531.088 250.366 514.48 250.366C510.964 250.366 508.114 247.516 508.114 244C508.114 240.484 510.964 237.634 514.48 237.634C530.391 237.634 535.939 234.495 538.071 231.971C540.358 229.264 540.633 225.364 540.633 217.939C540.633 214.423 543.483 211.573 546.999 211.573Z" fill="#FF0000"/>
</g>
<defs>
<filter id="filter0_df_237_163" x="0.254772" y="0.255749" width="587.49" height="284.489" filterUnits="userSpaceOnUse" color-interpolation-filters="sRGB">
<feFlood flood-opacity="0" result="BackgroundImageFix"/>
<feColorMatrix in="SourceAlpha" type="matrix" values="0 0 0 0 0 0 0 0 0 0 0 0 0 0 0 0 0 0 127 0" result="hardAlpha"/>
<feOffset/>
<feGaussianBlur stdDeviation="17.189"/>
<feComposite in2="hardAlpha" operator="out"/>
<feColorMatrix type="matrix" values="0 0 0 0 1 0 0 0 0 0 0 0 0 0 0 0 0 0 1 0"/>
<feBlend mode="normal" in2="BackgroundImageFix" result="effect1_dropShadow_237_163"/>
<feBlend mode="normal" in="SourceGraphic" in2="effect1_dropShadow_237_163" result="shape"/>
<feGaussianBlur stdDeviation="3.18315" result="effect2_foregroundBlur_237_163"/>
</filter>
</defs>
</svg>
