<svg width="69" height="115" viewBox="0 0 69 115" fill="none" xmlns="http://www.w3.org/2000/svg">
<path d="M69 26.6422V34.174C68.2197 34.8485 66.7706 36.1975 64.4298 38.2209C62.0889 40.2444 60.6397 41.5934 59.8594 42.3803C59.0792 43.1672 57.853 44.2913 56.181 45.9775C54.5089 47.6637 53.2828 48.9003 52.6139 49.912C51.9451 50.9238 51.0534 52.1603 50.1616 53.6217C49.2698 55.0831 48.601 56.5445 48.1551 57.8935C48.601 58.9052 49.0469 59.8045 49.7157 60.9286C50.3845 62.0528 50.9418 62.9521 51.4992 63.739C52.0565 64.5259 52.9483 65.65 53.9515 66.7742C54.9548 67.8983 55.8466 68.9101 56.5154 69.5846C57.1842 70.259 58.1874 71.2708 59.525 72.5073C60.8627 73.7439 61.8659 74.7556 62.4233 75.2053C62.9806 75.6549 64.0954 76.6667 65.6559 78.1281C67.2165 79.5894 68.2197 80.4888 68.7771 80.826V88.3578C62.5348 93.9785 57.8531 98.6999 54.6204 102.522C51.3878 106.344 49.2698 110.503 48.1551 115L38.2343 111.403C40.2407 103.871 44.6996 96.564 51.8337 89.2571C43.6963 88.9198 36.1164 88.695 29.0937 88.695C16.3861 88.695 7.1341 88.695 1.22618 88.9198H0V78.8025H1.22618C10.5897 78.8025 17.1664 78.6901 21.1794 78.6901H28.9822C37.3425 78.6901 44.5881 78.8025 50.8304 79.1398C47.2633 75.7673 44.2537 72.1701 41.9128 68.6852C39.5719 65.2004 37.8999 61.1535 37.0081 56.7693C37.5655 54.6334 38.3457 52.61 39.349 50.5865C40.3522 48.563 41.5784 46.652 43.2504 44.6285C44.9225 42.6051 46.1486 41.0313 47.2633 39.9071C48.378 38.783 49.9386 37.0968 52.0566 34.9609C43.9192 34.6237 36.3393 34.3988 29.3166 34.3988C16.609 34.3988 7.357 34.3988 1.44908 34.6237H0.222903V24.5064H1.44908C10.8126 24.5064 17.3893 24.3939 21.4023 24.3939H29.2051C36.4507 24.3939 43.8078 24.5064 51.0534 24.8436C47.4863 21.4712 44.4766 17.8739 42.1357 14.3891C39.7948 10.9042 38.1228 6.85728 37.231 2.47312L47.3748 0C47.5978 1.12414 47.9321 2.3607 48.378 3.48485C48.8239 4.60899 49.3813 5.73314 49.9386 6.74487C50.496 7.7566 51.2763 8.88074 52.391 10.2297C53.5057 11.5787 54.3974 12.5904 55.0662 13.3773C55.735 14.1642 56.8498 15.2884 58.4104 16.7498C59.9709 18.2111 61.0857 19.2229 61.7545 19.8974C62.4233 20.5718 63.6494 21.5836 65.433 23.2698C67.2165 24.956 68.4427 25.9677 68.8886 26.4174L69 26.6422Z" fill="#1D1D1B"/>
</svg>
