<svg width="76" height="101" viewBox="0 0 76 101" fill="none" xmlns="http://www.w3.org/2000/svg">
<path d="M18.0416 100.774C14.095 96.3576 10.8249 91.8285 8.00592 87.0729C5.18693 82.3173 2.59347 76.8823 0 70.7679L6.87834 66.0123C9.24629 71.4473 12.5163 76.9955 16.4629 82.7702C16.4629 77.3352 16.4629 68.6166 16.4629 56.7276C16.4629 44.8386 16.4629 35.2141 16.4629 27.9675V18.0034C16.4629 11.3229 16.5757 5.32175 16.9139 0H27.5134C27.2878 3.51009 27.1751 7.02018 27.1751 10.6435C27.1751 11.4361 27.1751 13.2478 27.1751 15.9652C27.1751 18.6827 27.1751 21.0605 27.1751 23.2119V83.2231C27.9644 81.8644 28.6409 80.3924 29.4303 78.5807C30.2196 76.7691 31.1217 74.6177 32.1365 72.1267C33.1514 69.6357 34.0534 67.3711 34.8427 65.5594H41.6083C44.089 74.7309 46.2314 80.5056 48.2611 82.8834C48.2611 77.4484 48.2611 68.7298 48.2611 56.8408C48.2611 44.9518 48.2611 35.3274 48.2611 28.0807V18.1166C48.2611 11.4361 48.3738 5.43498 48.7121 0.113229H59.3116C59.086 3.62332 58.9733 7.13341 58.9733 10.7567C58.9733 11.5493 58.9733 13.361 58.9733 16.0785C58.9733 18.796 58.9733 21.1738 58.9733 23.3251V83.3363C60.5519 81.7511 62.1305 79.0336 63.7092 75.5235C65.2878 72.0135 66.9792 68.9563 68.6706 66.5785L76 71.5605C74.5341 73.5987 72.8427 76.5426 70.9258 80.1659C69.0089 83.7892 66.9792 87.4126 64.8367 91.0359C62.6943 94.6592 60.2137 98.0561 57.5074 101H49.9525C44.3145 95.7915 40.2552 90.8094 37.7745 85.9406C34.9555 91.1491 31.1217 96.1312 26.0475 101H18.4926L18.0416 100.774Z" fill="#1D1D1B"/>
</svg>
