<svg width="73" height="116" viewBox="0 0 73 116" fill="none" xmlns="http://www.w3.org/2000/svg">
<path d="M0.112116 26.5433C0.112116 26.5433 1.79416 24.962 3.58832 23.3807C5.38249 21.7994 6.61595 20.6699 7.28876 19.9922C7.96157 19.3145 9.08296 18.298 10.6529 16.8296C12.2227 15.3612 13.3441 14.2317 14.0169 13.4411C14.6897 12.6504 15.5868 11.5209 16.7081 10.2785C17.8295 9.03603 18.6144 7.79357 19.1751 6.77702C19.7358 5.76047 20.1843 4.74391 20.745 3.50146C21.3057 2.25901 21.6421 1.1295 21.7542 0L31.9585 2.48491C31.0614 6.88997 29.3794 10.8432 27.0246 14.4576C24.6697 18.0721 21.6421 21.5735 18.0538 24.962C24.3333 24.7361 31.7343 24.5102 40.0323 24.5102H47.8817C51.9186 24.5102 58.6467 24.5102 67.9539 24.6232H69.1874V34.7887H67.9539C62.0107 34.6758 52.7035 34.5628 39.9201 34.5628C32.9677 34.5628 25.3426 34.7887 17.0446 35.1276C24.2212 42.3564 28.7066 49.8111 30.725 57.3788L20.745 60.9932C19.6236 56.4752 17.381 52.296 14.2412 48.4557C11.1014 44.6154 6.27957 39.8715 0 34.224V26.6563L0.112116 26.5433ZM73 81.6631V89.2308C66.7204 94.8783 62.0107 99.6222 58.7588 103.463C55.5069 107.303 53.3764 111.482 52.255 116L42.275 112.386C44.2934 104.705 48.7788 97.3632 55.8433 90.1344C46.5361 89.6826 38.9109 89.5696 33.0799 89.5696C20.2965 89.5696 10.9893 89.5696 5.04609 89.7955H3.8126V79.63H5.04609C14.4655 79.63 21.0814 79.517 25.1183 79.517H32.9677C40.2565 79.517 47.6574 79.63 54.9462 79.9688C51.3579 76.5803 48.3303 72.9659 45.9754 69.4645C43.6206 65.963 41.9386 61.8968 41.0415 57.4917L51.2458 55.0068C51.4701 56.1363 51.8065 57.3788 52.255 58.5083C52.7035 59.6378 53.2642 60.7673 53.8249 61.7838C54.3856 62.8004 55.1705 63.9299 56.2919 65.2853C57.4132 66.6407 58.3103 67.6573 58.9831 68.4479C59.6559 69.2386 60.7773 70.3681 62.3471 71.8364C63.917 73.3048 65.0384 74.3213 65.7112 74.999C66.384 75.6767 67.6175 76.6933 69.4117 78.3875C71.2058 80.0818 72.4393 81.0983 72.8879 81.5501L73 81.6631Z" fill="#1D1D1B"/>
</svg>
