<svg width="61" height="71" viewBox="0 0 61 71" fill="none" xmlns="http://www.w3.org/2000/svg">
<path d="M34.214 71L26.6734 71C21.0461 64.7484 16.3192 60.0597 12.4926 56.8223C8.66605 53.5849 4.50184 51.4638 1.61394e-06 50.3475L3.60147 40.4119C11.2546 42.4214 18.5701 46.8868 25.7731 54.0314C26.1107 45.8821 26.3358 38.2909 26.3358 31.2579L26.3358 16.9685C19.1328 24.1132 11.5922 28.6903 3.93911 30.5881L0.337638 20.6525C4.83948 19.5361 9.00368 17.3034 12.8303 14.1777C16.6568 11.0519 21.3838 6.25157 27.0111 -1.4857e-06L34.5517 -1.15609e-06C34.5517 -1.15609e-06 36.1273 1.67452 37.7029 3.46069C39.2786 5.24685 40.4041 6.47484 41.0793 7.14465C41.7546 7.81446 42.7675 8.9308 44.2306 10.4937C45.6937 12.0566 46.8192 13.173 47.607 13.8428C48.3948 14.5126 49.5203 15.4057 50.7583 16.522C51.9963 17.6384 53.2343 18.4198 54.2472 18.978C55.2601 19.5362 56.2731 19.9827 57.5111 20.5409C58.7491 21.099 59.8745 21.4339 61 21.5456L58.524 31.7044C54.1347 30.8113 50.1956 29.1368 46.7066 26.7925C43.2177 24.4481 39.6162 21.5456 36.2399 17.9733L36.2399 31.0346C36.2399 39.4072 36.1273 46.6635 35.7897 52.9151C39.2786 49.3428 42.7675 46.3286 46.2565 43.9843C49.7454 41.6399 53.797 39.9654 58.0738 39.0723L60.5498 49.2311C59.4244 49.4544 58.1863 49.7893 57.0609 50.2359C55.9354 50.6824 54.81 51.2406 53.797 51.7987C52.7841 52.3569 51.6587 53.1384 50.3081 54.2547C48.9576 55.3711 47.9446 56.2641 47.1568 56.934C46.369 57.6038 45.2435 58.7201 43.7804 60.283C42.3173 61.8459 41.3044 62.9623 40.6291 63.6321C39.9539 64.3019 38.941 65.5299 37.2528 67.316C35.5646 69.1022 34.5517 70.3302 34.1015 70.7767L34.214 71Z" fill="#1D1D1B"/>
</svg>
