<svg width="70" height="116" viewBox="0 0 70 116" fill="none" xmlns="http://www.w3.org/2000/svg">
<path d="M0.112884 26.5692C0.112884 26.5692 1.80645 24.9864 3.6129 23.4035C5.41935 21.8207 6.66126 20.6901 7.33868 20.0117C8.0161 19.3333 9.14517 18.3158 10.7258 16.846C12.3065 15.3762 13.4355 14.2456 14.1129 13.4542C14.7903 12.6628 15.6935 11.5322 16.8226 10.2885C17.9516 9.04483 18.7419 7.80117 19.3064 6.78363C19.871 5.76608 20.3226 4.74854 20.8871 3.50487C21.4516 2.26121 21.7903 1.1306 21.9032 0L32.1774 2.48733C31.2742 6.89669 29.5806 10.8538 27.2097 14.4717C24.8387 18.0897 21.7903 21.5945 18.1774 24.9864C25.629 24.6472 32.9677 24.5341 40.3064 24.5341H48.2097C52.2742 24.5341 59.0484 24.5341 68.4193 24.6472H69.6613V34.8226H68.4193C62.4355 34.7095 53.0645 34.5965 40.1935 34.5965C33.1935 34.5965 25.5161 34.8226 17.1613 35.1618C24.3871 42.3977 28.9032 49.8596 30.9355 57.4347C29.129 66.2534 24.9516 73.7154 18.5161 79.9337C24.8387 79.7076 32.2903 79.4815 40.6451 79.4815H48.5484C52.6129 79.4815 59.3871 79.4815 68.7581 79.5945H70V89.77H68.7581C62.7742 89.6569 53.4032 89.5439 40.5323 89.5439C33.5323 89.5439 25.8548 89.77 17.5 90.1092C24.7258 97.345 29.2419 104.807 31.2742 112.382L21.2258 116C20.0967 111.478 17.8387 107.294 14.6774 103.45C11.5161 99.6062 6.66128 94.8577 0.338696 89.2047V81.6296C5.53224 76.8811 9.82255 72.6979 12.9838 68.9669C16.1451 65.2359 18.5161 61.5049 19.7581 57.7739C18.2903 54.0429 15.9193 50.4249 12.871 46.9201C9.82257 43.4152 5.53226 39.232 0 34.3704V26.7953L0.112884 26.5692Z" fill="#1D1D1B"/>
</svg>
