<svg width="61" height="70" viewBox="0 0 61 70" fill="none" xmlns="http://www.w3.org/2000/svg">
<path d="M34.4044 70L26.8219 70C21.1633 63.6467 16.41 58.8817 12.5622 55.5916C8.71428 52.3015 4.5269 50.1459 1.67234e-06 49.0113L3.62152 38.9141C11.3173 40.9562 18.6735 45.4943 25.9165 52.7553C26.256 44.4732 26.4824 36.7585 26.4824 29.611C26.4824 16.6775 26.4824 7.26092 26.256 1.24796L26.256 -1.51871e-06L36.4416 -1.07348e-06L36.4416 1.24796C36.4416 10.7779 36.5547 17.4716 36.5547 21.5559L36.5547 29.4976C36.5547 38.0065 36.4416 45.3809 36.102 51.7342C39.6104 48.1037 43.1187 45.0405 46.6271 42.658C50.1354 40.2755 54.2096 38.5737 58.5102 37.6661L61 47.9903C59.8683 48.2172 58.6234 48.5575 57.4916 49.0113C56.3599 49.4651 55.2282 50.0324 54.2096 50.5997C53.1911 51.1669 52.0594 51.9611 50.7013 53.0956C49.3432 54.2301 48.3247 55.1378 47.5325 55.8185C46.7403 56.4992 45.6085 57.6337 44.1373 59.222C42.666 60.8104 41.6475 61.9449 40.9685 62.6256C40.2894 63.3063 39.2709 64.5543 37.5733 66.3695C35.8757 68.1848 34.8571 69.4327 34.4044 69.8865L34.4044 70Z" fill="#1D1D1B"/>
</svg>
