<svg width="74" height="115" viewBox="0 0 74 115" fill="none" xmlns="http://www.w3.org/2000/svg">
<path d="M0.113652 80.9135C0.113652 80.9135 1.81874 79.3489 3.63748 77.7843C5.45622 76.2196 6.70662 75.102 7.38865 74.4315C8.07068 73.7609 9.20738 72.7551 10.7988 71.3022C12.3902 69.8494 13.5269 68.7318 14.2089 67.9495C14.8909 67.1672 15.8003 66.0496 16.937 64.8202C18.0737 63.5909 18.8694 62.3615 19.4378 61.3557C20.0061 60.3499 20.4608 59.344 21.0292 58.1147C21.5975 56.8853 21.9385 55.7677 22.0522 54.6501L32.3963 57.1088C31.4869 61.4674 29.7819 65.379 27.3948 68.9553C25.0077 72.5316 21.9386 75.9961 18.3011 79.3489C25.8034 79.0136 33.192 78.9018 40.5807 78.9018H48.5377C52.6298 78.9018 59.4501 78.9018 68.8848 79.0136H70.1352V89.0719H68.8848C62.8602 88.9602 53.4255 88.8484 40.467 88.8484C34.3288 88.8484 26.7128 89.0719 17.278 89.4072C24.553 96.5598 29.0998 103.936 31.1459 111.424L21.0292 115C19.8925 110.53 17.6191 106.395 14.4363 102.595C11.2535 98.7949 6.36559 94.1011 0 88.5131V81.0253L0.113652 80.9135ZM74 26.3751V33.863C67.6344 39.4509 62.8602 44.1448 59.5637 47.9446C56.2673 51.7444 54.1075 55.8795 52.9708 60.3499L42.8541 56.7736C44.9002 49.174 49.447 41.9096 56.6083 34.757C48.3103 34.4218 40.5807 34.1982 33.533 34.1982C20.5745 34.1982 11.1398 34.1982 5.11522 34.4218H3.86483V24.3635H5.11522C14.6636 24.3635 21.3702 24.2517 25.4623 24.2517H33.4193C41.9447 24.2517 49.3334 24.3635 55.699 24.6987C52.0615 21.346 48.9923 17.7697 46.6052 14.3052C44.2181 10.8406 42.5131 6.8173 41.6037 2.4587L51.9478 0C52.1751 1.11759 52.5161 2.34694 52.9708 3.46453C53.4255 4.58212 53.9939 5.69971 54.5622 6.70554C55.1306 7.71137 55.9263 8.82896 57.063 10.1701C58.1997 11.5112 59.1091 12.517 59.7911 13.2993C60.4731 14.0816 61.6099 15.1992 63.2013 16.6521C64.7927 18.105 65.9294 19.1108 66.6114 19.7813C67.2934 20.4519 68.5438 21.4577 70.3625 23.1341C72.1813 24.8105 73.4317 25.8163 73.8863 26.2634L74 26.3751Z" fill="#1D1D1B"/>
</svg>
