<svg width="60" height="98" viewBox="0 0 60 98" fill="none" xmlns="http://www.w3.org/2000/svg">
<path d="M33.8404 98H26.3822C20.8163 91.7064 16.141 86.9862 12.3562 83.7271C8.57141 80.4679 4.45269 78.3326 0 77.2087L3.56215 67.2064C10.7978 69.117 17.9221 73.5 25.0464 80.4679V17.6445C18.0334 24.5 10.9091 28.883 3.56215 30.7936L0 20.7913C4.45269 19.6674 8.57141 17.4197 12.3562 14.2729C16.141 11.1261 20.8163 6.29358 26.3822 0H33.8404C33.8404 0 35.3989 1.68578 36.9573 3.48394C38.5158 5.28211 39.6289 6.51835 40.2968 7.19266C40.9647 7.86697 41.9666 8.99083 43.4137 10.5642C44.8608 12.1376 45.974 13.2615 46.7532 13.9358C47.5324 14.6101 48.6456 15.5092 49.8701 16.633C51.0946 17.7569 52.3191 18.5436 53.3209 19.1055C54.3228 19.6674 55.3247 20.117 56.5491 20.6789C57.7736 21.2408 58.8868 21.578 60 21.6904L57.551 31.9174C49.9814 30.344 42.5232 25.6239 35.2876 17.9816C35.2876 23.3761 35.2876 32.0298 35.2876 43.8303C35.2876 55.6307 35.2876 65.1835 35.2876 72.3761V79.7936C38.6271 76.1973 42.0779 73.2752 45.6401 70.9151C49.2022 68.555 53.0983 66.8693 57.3284 65.9702L59.7774 76.1972C58.6642 76.422 57.4397 76.7592 56.3265 77.2087C55.2133 77.6583 54.1002 78.2202 53.0983 78.7821C52.0965 79.344 50.9833 80.1307 49.6475 81.2546C48.3117 82.3784 47.3098 83.2775 46.5306 83.9518C45.7514 84.6262 44.6382 85.75 43.1911 87.3234C41.7439 88.8968 40.7421 90.0206 40.0742 90.695C39.4063 91.3693 38.4045 92.6055 36.7347 94.4037C35.0649 96.2018 34.0631 97.4381 33.6178 97.8876L33.8404 98Z" fill="#1D1D1B"/>
</svg>
