<svg width="77" height="105" viewBox="0 0 77 105" fill="none" xmlns="http://www.w3.org/2000/svg">
<path d="M49.6847 28.3601V22.508C49.6847 15.8682 49.7971 9.90354 50.1343 4.61415H60.7007C60.4759 8.10289 60.3635 11.5916 60.3635 15.1929C60.3635 15.9807 60.3635 17.7814 60.3635 20.4823C60.3635 23.1833 60.3635 25.5466 60.3635 27.6849V87.3312C62.2745 85.1929 63.9606 82.492 65.5343 79.1158C67.108 75.7395 68.5693 72.926 70.1431 70.7878L77 76.865C75.5387 78.8907 73.8526 81.7042 72.054 85.0804C70.2555 88.4566 68.3445 91.9453 66.2088 95.3215C64.073 98.6978 61.7124 101.961 59.0146 105H51.4832C49.235 102.524 46.7621 99.2605 43.9518 95.0965C41.1416 90.9325 38.4438 87.2187 35.9708 83.955C33.4978 80.6913 31.1372 78.328 29.0014 76.7524V82.6045C29.0014 89.2444 28.889 95.209 28.5518 100.498H17.9854C18.2102 97.1222 18.3226 93.5209 18.3226 89.9196C18.3226 89.1318 18.3226 87.3312 18.3226 84.6302C18.3226 81.9293 18.3226 79.5659 18.3226 77.4277V17.6688C16.9737 19.0193 15.8496 20.4823 14.9503 21.9453C14.0511 23.4084 13.6014 24.6463 13.3766 25.7717C13.1518 26.8971 12.5898 28.2476 11.9153 29.9357C11.2409 31.6238 10.3416 33.1994 9.10508 34.8875L0 29.4855C1.46131 27.4598 3.25983 24.6463 5.28318 20.9325C7.30654 17.2186 9.66713 13.6174 11.9153 10.0161C14.1635 6.41479 16.7489 3.03859 19.5591 0H27.0905C28.8891 2.02572 30.9124 4.50161 33.0482 7.54019C35.1839 10.5788 37.0949 13.2797 38.6686 15.6431C40.2423 18.0064 42.0409 20.4823 43.9518 22.8457C45.8628 25.209 47.7737 27.0096 49.4598 28.2476L49.6847 28.3601ZM49.6847 28.4727L43.0525 36.5756C40.8044 34.8875 38.8934 32.9743 37.4321 30.836C35.9708 28.6978 34.5095 26.4469 33.1606 24.0836C31.8117 21.7203 30.3504 19.6945 28.6642 18.119C28.6642 23.5209 28.6642 32.1865 28.6642 44.0032C28.6642 55.8199 28.6642 65.3858 28.6642 72.5884V76.5273L35.2963 68.537C37.5445 70.2251 39.4555 72.1383 40.9168 74.2765C42.3781 76.4148 43.8394 78.6656 45.1883 81.0289C46.5372 83.3923 47.9985 85.418 49.6847 86.9936C49.6847 81.5916 49.6847 72.926 49.6847 61.1093C49.6847 49.2926 49.6847 39.7267 49.6847 32.5241V28.5852V28.4727Z" fill="#1D1D1B"/>
</svg>
