<svg width="61" height="101" viewBox="0 0 61 101" fill="none" xmlns="http://www.w3.org/2000/svg">
<path d="M34.5517 0C34.5517 0 36.1273 1.70034 37.703 3.51403C39.2786 5.32772 40.4041 6.57464 41.0793 7.25477C41.7546 7.9349 42.7675 9.06846 44.2306 10.6554C45.6937 12.2424 46.8192 13.376 47.607 14.0561C48.3948 14.7363 49.5203 15.6431 50.7583 16.7767C51.9963 17.9102 53.2343 18.7037 54.2472 19.2705C55.2601 19.8373 56.2731 20.2907 57.5111 20.8575C58.7491 21.4242 59.8745 21.7643 61 21.8777L58.524 32.193C50.8709 30.6061 43.3303 25.8451 36.0148 18.1369C36.0148 23.578 36.0148 32.3064 36.0148 44.2088C36.0148 56.1111 36.0148 65.7464 36.0148 73.0011V82.9764C36.0148 89.6644 35.9022 95.6723 35.5646 101H24.9852C25.2103 97.5993 25.3229 93.9719 25.3229 90.3446C25.3229 89.5511 25.3229 87.7374 25.3229 85.0168C25.3229 82.2963 25.3229 79.9158 25.3229 77.7621V17.7969C18.2325 24.7116 11.0295 29.1324 3.60147 31.0595L0 20.9708C4.50185 19.8373 8.66605 17.5701 12.4926 14.3962C16.3192 11.2222 21.0461 6.34792 26.6734 0H34.214H34.5517Z" fill="#1D1D1B"/>
</svg>
