<svg width="74" height="101" viewBox="0 0 74 101" fill="none" xmlns="http://www.w3.org/2000/svg">
<path d="M58.9758 0C60.994 2.26712 62.7879 4.76094 64.4697 7.36813C66.1515 9.97531 67.2727 12.1291 67.9454 13.7161C68.6182 15.303 69.7394 17.9102 71.0848 21.4242C72.4303 24.9383 73.4394 27.4321 74 28.679L67.1606 33.44C66.6 32.0797 65.8151 30.266 65.1424 28.2256C64.4697 26.1852 63.6849 24.2581 62.9 22.5578C62.1152 20.8575 61.4424 19.4972 60.4333 18.0236C60.4333 23.4646 60.4333 32.193 60.4333 44.0954C60.4333 55.9978 60.4333 65.633 60.4333 72.8878V82.8631C60.4333 89.5511 60.3212 95.5589 59.9848 100.887H49.4454C49.6697 97.486 49.7819 93.8586 49.7819 90.2312C49.7819 89.4377 49.7819 87.624 49.7819 84.9035C49.7819 82.1829 49.7819 79.8025 49.7819 77.6487V17.7969C48.997 19.1571 48.3242 20.6308 47.5394 22.4444C46.7545 24.2581 45.8576 26.4119 44.8485 28.9057C43.8394 31.3995 42.9425 33.6667 42.1576 35.4804H35.4303C32.9636 26.2985 30.8333 20.5174 28.8152 18.1369C28.8152 23.578 28.8152 32.3064 28.8152 44.2088C28.8152 56.1111 28.8152 65.7464 28.8152 73.0011V82.9764C28.8152 89.6644 28.703 95.6723 28.3667 101H17.8273C18.0515 97.5993 18.1636 93.9719 18.1636 90.3446C18.1636 89.5511 18.1636 87.7374 18.1636 85.0168C18.1636 82.2963 18.1636 79.9158 18.1636 77.7621V17.7969C16.3697 19.6105 14.9121 21.3109 13.903 22.8979C12.8939 24.4848 11.8848 26.4119 10.7636 28.5657C9.64242 30.7194 8.52121 32.6465 7.17575 34.5735L0 29.5859C1.00909 28.2256 3.58786 24.0314 7.73635 16.89C11.8848 9.7486 15.9212 4.08081 19.5091 0H27.0212C32.5151 5.21437 36.5515 10.202 39.1303 15.1897C41.9333 9.97531 45.8576 4.8743 50.7909 0H58.303H58.9758Z" fill="#1D1D1B"/>
</svg>
