<svg width="61" height="69" viewBox="0 0 61 69" fill="none" xmlns="http://www.w3.org/2000/svg">
<path d="M34.4044 0.111828C34.4044 0.111828 35.9889 1.7893 37.5733 3.5786C39.1577 5.36791 40.2894 6.59805 40.9685 7.26904C41.6475 7.94003 42.666 9.05834 44.1373 10.624C45.6085 12.1896 46.7403 13.3079 47.5325 13.9789C48.3247 14.6499 49.4564 15.5446 50.7013 16.6629C51.9462 17.7812 53.1911 18.564 54.2096 19.1232C55.2282 19.6823 56.2467 20.1297 57.4916 20.6888C58.7365 21.248 59.8683 21.5835 61 21.6953L58.5102 31.872C54.0965 30.9773 50.1354 29.2998 46.6271 26.9514C43.1187 24.6029 39.4972 21.5835 36.102 18.0049C36.3284 24.2674 36.5547 31.6483 36.5547 39.9238L36.5547 47.752C36.5547 51.778 36.5547 58.4878 36.4416 67.7699L36.4416 69L26.256 69L26.256 67.7699C26.3692 61.8428 26.4824 52.5608 26.4824 39.812C26.4824 32.8784 26.256 25.2739 25.9165 16.9984C18.6735 24.1556 11.2041 28.6289 3.62152 30.6418L2.91036e-06 20.6888C4.5269 19.5705 8.71428 17.3339 12.5622 14.2026C16.41 11.0713 21.1633 6.26256 26.8219 -1.49397e-06L34.4044 -1.16253e-06L34.4044 0.111828Z" fill="#1D1D1B"/>
</svg>
