<svg width="93" height="92" viewBox="0 0 93 92" fill="none" xmlns="http://www.w3.org/2000/svg">
<path d="M47.7687 45.9603C49.1963 46.6444 50.0121 47.7733 50.6579 49.1074C51.6437 46.9523 53.1053 45.5156 55.4507 45.5156C57.83 45.4813 59.3256 46.9181 60.2774 48.9706C62.4528 44.4551 67.8574 44.2841 69.9648 48.7311C69.9648 48.5259 69.9648 48.4232 69.9648 48.3206C69.8628 45.6182 69.4209 42.95 68.4012 40.4528C64.8322 31.7639 58.4419 26.5643 49.1963 24.9907C47.8707 24.7855 47.8707 24.7855 47.7687 23.4856C47.7687 23.3145 47.5988 23.0409 47.4968 23.0409C46.3071 23.0067 45.1174 23.0067 43.8938 23.0067C43.8938 23.4856 43.8598 23.8277 43.8938 24.2039C43.9277 24.6829 43.7578 24.8197 43.2819 24.8881C42.5001 24.9565 41.7523 25.0592 41.0045 25.2302C30.7393 27.7616 24.383 34.2269 22.0716 44.5919C21.7657 45.8918 21.7317 47.2602 21.5957 48.5943C24.0091 44.1472 29.0737 44.5235 31.3511 49.0732C32.3708 47.0549 33.7305 45.5156 36.1778 45.4813C38.5912 45.4813 39.9508 47.0207 41.0045 49.0732C41.6164 47.6707 42.4661 46.5418 43.8938 45.8576C43.8938 46.1313 43.9277 46.3023 43.9277 46.4734C43.9277 53.5886 43.9277 60.7039 43.9277 67.8192C43.9277 68.3323 43.8598 68.8112 43.7578 69.3243C43.4179 70.9663 42.3302 72.1294 41.0385 72.3347C39.407 72.5741 37.9793 71.4452 37.5374 69.5296C37.4015 68.9823 37.3675 68.4007 37.2655 67.785C35.9399 67.785 34.6142 67.785 33.1186 67.785C33.2886 68.777 33.3566 69.769 33.5945 70.6927C34.4783 74.0108 37.2655 76.2344 40.4947 76.2344C43.6898 76.2344 46.4091 74.1477 47.3268 70.7953C47.6328 69.6664 47.7347 68.4691 47.7687 67.2719C47.8027 60.4645 47.8027 53.6229 47.8027 46.8155C47.7687 46.6102 47.7687 46.3708 47.7687 45.9603ZM50.59 16.1309C49.7062 16.7124 48.6525 17.3966 47.5988 18.0807C46.9189 18.5254 46.545 19.1412 46.681 19.9622C46.851 20.9884 47.7347 21.6726 48.7205 21.5699C49.7062 21.5015 50.386 20.7489 50.42 19.6885C50.454 18.4912 50.522 17.2255 50.59 16.1309ZM57.932 20.4753C56.9803 21.091 55.9265 21.7752 54.8728 22.4593C54.023 23.0067 53.7511 23.8961 54.125 24.7513C54.4649 25.5381 55.3487 26.0512 56.1645 25.9144C57.1162 25.7433 57.6941 25.0591 57.7281 24.0671C57.83 22.8356 57.864 21.5699 57.932 20.4753ZM63.0646 12.8469C62.1129 13.4626 61.0592 14.1468 60.0055 14.8309C59.1897 15.3783 58.9177 16.2335 59.2577 17.0887C59.5636 17.9097 60.4473 18.4228 61.2631 18.286C62.1809 18.1491 62.8267 17.4992 62.8607 16.5413C62.9627 15.2414 63.0306 13.9757 63.0646 12.8469ZM40.2227 18.286C39.305 18.9017 38.2513 19.5517 37.2315 20.2358C36.4497 20.7489 36.1438 21.4673 36.3478 22.2541C36.5857 23.1777 37.4015 23.7935 38.2853 23.725C39.271 23.6566 39.9508 22.9383 40.0188 21.8778C40.1208 20.6805 40.1887 19.4148 40.2227 18.286ZM68.0273 20.4753C67.1435 21.0568 66.0898 21.741 65.0361 22.4593C64.1863 23.0067 63.8804 23.8619 64.2203 24.7513C64.5262 25.5723 65.444 26.1196 66.2938 25.9486C67.2455 25.7775 67.8234 25.0934 67.8574 24.0329C67.8913 22.7672 67.9593 21.5357 68.0273 20.4753ZM55.9945 7.88672C55.0768 8.50246 54.0231 9.15241 53.0033 9.83658C52.2555 10.3155 51.9496 11.0339 52.1196 11.7864C52.3235 12.7443 53.1733 13.3942 54.091 13.3258C55.0768 13.2574 55.7906 12.5732 55.8586 11.5128C55.8926 10.2471 55.9605 9.01558 55.9945 7.88672Z" fill="black"/>
<path d="M50.59 16.1309C50.522 17.2597 50.488 18.4912 50.42 19.7227C50.352 20.7831 49.7062 21.5015 48.7205 21.6041C47.7347 21.6725 46.851 20.9884 46.681 19.9963C46.545 19.1753 46.885 18.5596 47.5988 18.1149C48.6525 17.3965 49.7062 16.7124 50.59 16.1309Z" fill="black"/>
<path d="M57.932 20.4753C57.864 21.5357 57.8301 22.8014 57.7621 24.0671C57.6941 25.0592 57.1162 25.7433 56.1985 25.9144C55.3827 26.0512 54.4989 25.5723 54.159 24.7513C53.7851 23.8619 54.0571 23.0067 54.9068 22.4593C55.9266 21.7752 56.9803 21.091 57.932 20.4753Z" fill="black"/>
<path d="M63.0646 12.8469C62.9967 13.9758 62.9627 15.2757 62.8947 16.5414C62.8268 17.4992 62.1809 18.1492 61.2972 18.286C60.4814 18.4228 59.5976 17.8755 59.2917 17.0887C58.9518 16.2335 59.2237 15.3783 60.0395 14.831C61.0592 14.1126 62.1129 13.4626 63.0646 12.8469Z" fill="black"/>
<path d="M40.2227 18.286C40.1548 19.4148 40.1208 20.6463 40.0528 21.912C39.9848 22.9725 39.305 23.6566 38.3193 23.7592C37.4355 23.8277 36.5857 23.2119 36.3818 22.2883C36.1778 21.5015 36.4838 20.7489 37.2655 20.27C38.2513 19.5517 39.305 18.9017 40.2227 18.286Z" fill="black"/>
<path d="M68.0273 20.4753C67.9593 21.5357 67.8914 22.7672 67.8234 23.9987C67.7894 25.0592 67.2456 25.7433 66.2598 25.9144C65.4101 26.0854 64.4923 25.5381 64.1864 24.7171C63.8465 23.8277 64.1524 23.0067 65.0022 22.4251C66.0559 21.741 67.1096 21.0568 68.0273 20.4753Z" fill="black"/>
<path d="M55.9945 7.88672C55.9265 9.01558 55.8926 10.2813 55.8246 11.5128C55.7566 12.5732 55.0768 13.2574 54.057 13.3258C53.1393 13.3942 52.2895 12.7443 52.0856 11.7864C51.9156 11.0339 52.2215 10.3155 52.9693 9.83658C54.0571 9.15241 55.0768 8.46826 55.9945 7.88672Z" fill="black"/>
<rect x="2.66941" y="2.103" width="87.2747" height="87.2747" stroke="black" stroke-width="4.20601"/>
</svg>
