<svg width="92" height="92" viewBox="0 0 92 92" fill="none" xmlns="http://www.w3.org/2000/svg">
<rect x="2.28269" y="2.103" width="87.2747" height="87.2747" stroke="black" stroke-width="4.20601"/>
<path d="M26.3499 54.0337C26.3499 53.6594 26.412 53.2642 26.3292 52.9037C26.2602 52.5986 26.0395 52.3283 25.8739 52.051C25.0597 50.6991 24.2387 49.3472 23.4245 47.9953C22.9277 47.1772 22.3965 46.373 21.9411 45.5341C21.5202 44.7646 21.6582 43.9812 22.1757 43.3017C23.0105 42.1925 24.1697 41.6171 25.5082 41.4299C26.1223 41.3467 26.7294 41.5616 27.1503 42.0053C27.6816 42.5599 28.1438 43.1839 28.5992 43.8009C29.7928 45.4162 30.9727 47.0455 32.1525 48.6747C33.353 50.3316 34.5398 51.9886 35.7403 53.6524C36.6027 54.8449 37.479 56.0165 38.3138 57.2298C39.059 58.3113 39.4178 59.5661 39.7213 60.8348C40.1698 62.679 40.1422 64.5508 40.1353 66.4296C40.1284 70.7834 40.1353 75.1303 40.1353 79.4841C40.1353 79.6227 40.1353 79.7545 40.1353 79.9139C35.899 79.9139 31.6902 79.9139 27.447 79.9139C27.447 79.7683 27.447 79.6297 27.447 79.498C27.447 74.9154 27.4401 70.3328 27.447 65.7502C27.447 64.7519 27.0882 63.8783 26.55 63.088C25.0321 60.8348 23.4659 58.6025 21.9342 56.3562C20.7889 54.6785 19.6435 52.9938 18.7949 51.1358C18.4499 50.3732 18.167 49.5898 18.1325 48.7371C18.1049 48.12 18.0635 47.503 18.0635 46.8791C18.0566 40.3345 18.0497 33.7899 18.0704 27.2453C18.0773 26.0529 18.4016 24.9229 19.3124 24.0701C19.9195 23.5016 20.6233 23.1065 21.4995 23.1342C22.2654 23.1619 22.9001 23.4878 23.4866 23.9661C24.3698 24.6871 24.7975 25.6369 24.8941 26.76C24.9148 27.0443 24.9562 27.3285 24.9562 27.6128C24.9631 31.9181 24.9562 36.2233 24.9562 40.5286C24.9562 40.7366 24.9769 40.8822 24.6664 40.9515C23.4038 41.208 22.3551 41.8528 21.5892 42.9066C20.8648 43.898 20.9545 45.2984 21.5478 46.2829C22.4724 47.8081 23.39 49.3333 24.3077 50.8654C24.9217 51.8915 25.5358 52.9176 26.1499 53.9436C26.1775 53.9921 26.2119 54.0407 26.2464 54.0823C26.2947 54.0615 26.3223 54.0476 26.3499 54.0337Z" fill="black"/>
<path d="M66.1759 54.136C66.3924 53.8033 66.581 53.5259 66.7487 53.2417C68.1248 50.9814 69.4939 48.7142 70.877 46.4471C71.6314 45.206 71.345 43.4658 70.388 42.4743C69.7244 41.7879 68.9979 41.2055 68.0479 40.9975C67.6358 40.9074 67.6009 40.7271 67.6009 40.3735C67.6148 35.9848 67.5939 31.6029 67.6218 27.2142C67.6288 25.9454 68.013 24.7737 69.0329 23.9001C70.1016 22.9918 71.4568 22.8324 72.6652 23.7337C73.6711 24.4894 74.1252 25.5017 74.2369 26.7081C74.2788 27.1864 74.3068 27.6648 74.3068 28.1502C74.3138 34.7645 74.3138 41.3788 74.3068 47.9932C74.3068 49.0886 74.0902 50.1702 73.5524 51.1339C72.7071 52.6454 71.834 54.143 70.9119 55.6128C70.1086 56.9024 69.2284 58.1435 68.3762 59.3984C67.6707 60.4384 67.0001 61.4992 66.2457 62.5114C65.4424 63.6 65.0722 64.7786 65.0792 66.1237C65.1001 70.5818 65.0861 75.0329 65.0861 79.491C65.0861 79.6297 65.0861 79.7614 65.0861 79.9139C60.7972 79.9139 56.5431 79.9139 52.2401 79.9139C52.2401 79.7891 52.2401 79.6713 52.2401 79.5465C52.2401 74.2356 52.2052 68.9247 52.2681 63.6208C52.2821 62.456 52.5824 61.2912 52.8339 60.1403C53.1901 58.5317 54.0424 57.159 55.0273 55.8555C56.3894 54.0459 57.7097 52.1947 59.0438 50.3574C60.1336 48.8529 61.2163 47.3414 62.306 45.83C63.1023 44.7276 63.8847 43.6114 64.7159 42.5298C65.2608 41.8156 65.9942 41.365 66.9303 41.4204C67.8034 41.4759 68.5858 41.8087 69.2773 42.3426C69.8571 42.7932 70.409 43.2716 70.6325 44.0204C70.849 44.7553 70.7862 45.4209 70.3531 46.0935C69.0887 48.0764 67.9012 50.1148 66.6089 52.0838C66.1898 52.7355 66.0781 53.3526 66.1759 54.136Z" fill="black"/>
<path d="M30.6738 21.3003C31.6182 20.7414 32.5279 20.1964 33.4376 19.6513C34.6597 18.92 35.8819 18.1887 37.1041 17.4573C38.4651 16.6501 39.8331 15.8498 41.1872 15.0426C42.7705 14.0973 44.3537 13.1521 45.93 12.2C46.1453 12.0689 46.3189 12.0482 46.5411 12.1862C48.5549 13.4005 50.5687 14.6079 52.5825 15.8153C54.3949 16.9054 56.2004 18.0024 58.0128 19.0925C59.1933 19.8031 60.3807 20.5 61.5681 21.2037C61.6098 21.2244 61.6376 21.2589 61.6931 21.3072C61.0335 21.7005 60.3807 22.0868 59.7349 22.4732C58.0336 23.5012 56.3253 24.5292 54.624 25.5503C53.4158 26.2747 52.1936 26.9923 50.9853 27.7167C49.5132 28.5998 48.041 29.4899 46.5758 30.3799C46.3745 30.4972 46.2356 30.5524 45.9786 30.4006C44.1523 29.2898 42.3052 28.2204 40.472 27.1303C38.5554 25.9919 36.6527 24.8466 34.7361 23.7082C33.4029 22.9078 32.0626 22.1144 30.6738 21.3003Z" fill="black"/>
<path d="M45.9189 49.9455C44.2638 48.9861 42.6086 48.0198 40.9466 47.0535C39.271 46.0872 37.5885 45.1348 35.9128 44.1685C34.244 43.2091 32.5889 42.2359 30.92 41.2834C30.708 41.1661 30.6738 41.0418 30.6738 40.8348C30.6807 36.4313 30.6738 32.0347 30.6738 27.6311C30.6738 25.9747 30.6738 24.3251 30.6738 22.6064C31.1663 22.9032 31.6177 23.1793 32.0691 23.4554C33.7105 24.4631 35.3452 25.4639 36.9798 26.4785C38.5597 27.4517 40.1396 28.4249 41.7195 29.3981C42.9369 30.1504 44.1543 30.8958 45.3786 31.6343C45.5701 31.7517 45.6453 31.869 45.6453 32.0899C45.659 33.7395 45.6864 35.3891 45.7069 37.0387C45.7274 38.2051 45.7548 39.3715 45.7753 40.5449C45.7958 41.6906 45.8231 42.8364 45.8437 43.9821C45.8642 45.1831 45.8915 46.384 45.9121 47.5919C45.9257 48.3649 45.9189 49.138 45.9189 49.9455Z" fill="black"/>
<path d="M61.6868 22.6064C61.6868 22.7444 61.6868 22.8547 61.6868 22.972C61.6868 28.8067 61.6868 34.6345 61.6937 40.4692C61.6937 40.7175 61.6177 40.8555 61.4174 40.9796C60.2292 41.7038 59.041 42.4486 57.8597 43.1797C56.0015 44.3315 54.1432 45.4763 52.2918 46.6281C50.9033 47.4902 49.5286 48.3592 48.1401 49.2282C47.774 49.4558 47.401 49.6903 46.9796 49.9455C46.9796 49.7593 46.9796 49.642 46.9796 49.5179C46.9796 43.7177 46.9796 37.9243 46.9727 32.1241C46.9727 31.8344 47.0556 31.6689 47.2973 31.5172C49.2247 30.3309 51.1451 29.1377 53.0655 27.9446C54.5784 27.0066 56.0775 26.0549 57.5834 25.1169C58.889 24.2962 60.1946 23.4823 61.5072 22.6616C61.5555 22.634 61.6177 22.6271 61.6868 22.6064Z" fill="black"/>
</svg>
