<svg width="93" height="92" viewBox="0 0 93 92" fill="none" xmlns="http://www.w3.org/2000/svg">
<path d="M52.4248 26.7152C51.3239 26.7152 50.3489 26.7152 49.248 26.7152C51.261 22.2688 53.2111 17.919 55.2241 13.4404C57.2371 17.8868 59.1872 22.2688 61.2002 26.7152C60.0994 26.7152 59.1243 26.7152 58.0549 26.7152C58.0549 40.731 58.0549 54.6824 58.0549 68.666C56.1677 68.666 54.3434 68.666 52.4248 68.666C52.4248 54.7468 52.4248 40.7954 52.4248 26.7152Z" fill="black"/>
<path d="M34.4346 26.7474C33.3652 26.7474 32.3587 26.7474 31.2578 26.7474C33.2708 22.301 35.2209 17.9513 37.2339 13.4727C39.2469 17.9191 41.197 22.2688 43.21 26.7474C42.1091 26.7474 41.1341 26.7474 40.0647 26.7474C40.0647 40.7632 40.0647 54.7146 40.0647 68.6982C38.146 68.6982 36.3218 68.6982 34.4031 68.6982C34.4346 54.7146 34.4346 40.7954 34.4346 26.7474Z" fill="black"/>
<path d="M68.3717 77.9129C53.5887 77.9129 38.8687 77.9129 24.1172 77.9129C24.1172 75.883 24.1172 73.8853 24.1172 71.8555C38.8687 71.8555 53.6202 71.8555 68.3717 71.8555C68.3717 73.8531 68.3717 75.8508 68.3717 77.9129Z" fill="black"/>
<rect x="2.66941" y="2.103" width="87.2747" height="87.2747" stroke="black" stroke-width="4.20601"/>
</svg>
