<svg width="93" height="92" viewBox="0 0 93 92" fill="none" xmlns="http://www.w3.org/2000/svg">
<path fill-rule="evenodd" clip-rule="evenodd" d="M63.5503 40.7325C69.3688 40.7325 75.1873 40.7325 81.0058 40.7325L81.0058 46.2829L76.5324 46.2829L76.5324 53.6834L68.055 53.6834L68.055 46.2829L63.5816 46.2829L63.5816 40.7325H63.5503ZM29.265 61.5544C26.6061 61.5544 24.4476 59.3906 24.4476 56.7252L24.4476 42.4572C24.4476 37.5653 28.3891 33.6142 33.2692 33.6142C38.1492 33.6142 42.0907 37.5653 42.0907 42.4572C42.0907 47.3491 38.1492 51.3002 33.2692 51.3002C32.4871 51.3002 31.7363 51.2061 31.0168 51.018L31.0168 45.7498C31.6425 46.1888 32.4245 46.4397 33.2379 46.4397C35.4276 46.4397 37.2107 44.6523 37.2107 42.4572C37.2107 40.2621 35.4276 38.4747 33.2379 38.4747C31.0481 38.4747 29.265 40.2621 29.265 42.4572L29.265 61.5544ZM71.9965 29.2554C66.8975 26.4645 58.1072 22.6074 48.2533 22.6074C32.7686 22.6074 18.4414 30.2275 18.4414 47.4118C18.4414 64.6275 31.8302 72.028 47.44 72.028C58.4826 72.028 67.617 67.7006 71.9965 65.1606L71.9965 55.3141C68.8057 57.1956 62.9872 60.0805 56.8872 60.0805C39.5256 60.0805 40.1825 34.8999 56.3554 34.8371C62.4242 34.8058 68.3365 37.2517 72.0278 39.1332L72.0278 29.2554H71.9965Z" fill="black"/>
<rect x="2.66941" y="2.103" width="87.2747" height="87.2747" stroke="black" stroke-width="4.20601"/>
</svg>
