<svg width="245" height="206" viewBox="0 0 245 206" fill="none" xmlns="http://www.w3.org/2000/svg">
<path fill-rule="evenodd" clip-rule="evenodd" d="M24.9186 34.539C12.5037 53.0846 5.4452 76.2417 4.20008 92.7556C1.71984 125.651 21.6919 181.733 90.5997 197.297C125.333 205.141 164.436 203.799 194.01 188.504C208.766 180.872 221.141 169.776 229.478 154.602C237.817 139.425 242.184 120.045 240.72 95.7447C239.55 76.3115 234.863 62.4554 228.18 52.7709C221.514 43.1121 212.775 37.4746 203.235 34.6018C184.03 28.8182 161.496 34.2348 146.529 41.1595L144.98 41.8762L144.029 40.4593C136.747 29.6124 112.95 6.88574 76.8208 4.14049C54.8047 2.46761 37.3405 15.9829 24.9186 34.539ZM21.5946 32.3138C34.3974 13.1887 53.0462 -1.67755 77.1239 0.151983C113.299 2.90076 137.625 24.8297 146.376 36.8395C161.78 30.039 184.525 24.7897 204.389 30.7718C214.718 33.8823 224.245 40.0276 231.472 50.4989C238.681 60.9445 243.512 75.5656 244.713 95.5042C246.213 120.419 241.748 140.577 232.984 156.529C224.217 172.484 211.216 184.108 195.848 192.057C165.173 207.921 125.033 209.175 89.7185 201.198C18.53 185.119 -2.38958 126.951 0.211397 92.4548C1.50688 75.273 8.78479 51.4494 21.5946 32.3138ZM36.8905 124.458C27.3037 67.2812 62.6287 35.9357 90.2611 37.347C101.257 37.9086 107.525 42.5215 110.647 48.3902C113.682 54.0964 113.554 60.6393 112.552 64.9207L112.327 65.8854L111.423 66.2904C110.044 66.9079 108.711 68.2216 107.474 70.22C106.249 72.2001 105.219 74.6922 104.376 77.4071C102.691 82.837 101.846 88.8649 101.591 92.7365L101.443 94.9963L99.2186 94.5693C95.9653 93.9448 92.2937 94.9663 88.2618 97.2784C84.2502 99.5788 80.1355 103.011 76.1015 106.791C73.4867 109.241 70.978 111.766 68.5714 114.189C67.2475 115.521 65.9545 116.823 64.6916 118.064C61.244 121.451 57.9379 124.476 55.1381 125.908C46.5303 130.309 39.9916 127.912 37.4996 125.59L37.0028 125.127L36.8905 124.458ZM40.7107 123.038C31.8612 68.1539 65.7791 40.1018 90.0571 41.3418C99.8701 41.843 104.752 45.8251 107.115 50.2685C109.375 54.5173 109.504 59.5152 108.841 63.1294C106.893 64.2759 105.329 66.0849 104.073 68.1154C102.608 70.4832 101.456 73.3202 100.556 76.2213C99.0365 81.116 98.1688 86.4017 97.7727 90.3965C93.8803 90.2666 89.9727 91.6862 86.2719 93.8084C81.8526 96.3427 77.4685 100.028 73.3664 103.872C70.7078 106.364 68.0948 108.993 65.6508 111.452C64.3418 112.77 63.0812 114.038 61.8881 115.211C58.3567 118.681 55.4776 121.242 53.3171 122.346C46.8276 125.664 42.3939 124.153 40.7107 123.038ZM172.202 64.9467C166.199 67.1263 160.413 70.2567 155.754 73.3738L155.461 73.5696L155.119 73.6537C153.208 74.1235 149.641 76.3478 146.465 82.0774C143.314 87.7593 140.621 96.785 140.43 110.507C140.243 124.034 144.544 136.713 150.063 147.111C155.235 156.854 161.42 164.49 165.796 168.817C179.198 163.876 205.383 143.134 207.327 95.5429C207.827 83.3067 205.867 75.2622 202.633 70.1745C199.458 65.1794 194.924 62.8261 189.666 62.2093C184.324 61.5828 178.227 62.7589 172.202 64.9467ZM206.009 68.0288C209.857 74.0837 211.84 83.0631 211.324 95.7061C209.258 146.271 180.56 168.318 165.898 173.012L164.776 173.372L163.918 172.564C159.2 168.125 152.255 159.773 146.53 148.987C140.802 138.195 136.231 124.847 136.431 110.452C136.628 96.2515 139.418 86.5372 142.966 80.1378C146.363 74.0121 150.526 70.8194 153.805 69.8657C158.636 66.6625 164.6 63.4515 170.837 61.1869C177.17 58.8872 183.933 57.5095 190.132 58.2366C196.415 58.9735 202.102 61.8814 206.009 68.0288ZM109.117 120.41L109.993 123.597C111.418 128.783 115.818 137.544 120.884 146.566C125.909 155.514 131.458 164.494 135.029 170.022L136.847 172.836L133.508 173.101C120.312 174.149 105.799 170.628 93.1266 165.907C80.4278 161.176 69.3839 155.166 63.0564 151.044L57.0925 147.159L64.2072 147.369C67.0643 147.454 70.5625 146.578 74.4573 144.948C78.3243 143.33 82.4359 141.032 86.4739 138.427C94.5516 133.217 102.171 126.888 106.7 122.664L109.117 120.41ZM70.0645 150.645C76.2989 154.258 84.924 158.583 94.5231 162.159C105.835 166.373 118.339 169.487 129.806 169.277C126.295 163.728 121.662 156.12 117.396 148.524C113.175 141.006 109.22 133.34 107.126 127.681C102.41 131.861 95.71 137.23 88.6421 141.789C84.4836 144.471 80.1567 146.9 76.0012 148.638C74.0021 149.475 72.0076 150.167 70.0645 150.645Z" fill="black"/>
</svg>
