<svg width="437" height="250" viewBox="0 0 437 250" fill="none" xmlns="http://www.w3.org/2000/svg">
<path fill-rule="evenodd" clip-rule="evenodd" d="M62.2287 194.866C20.3009 174.793 2 145.17 2 113.108C2 73.6577 38.9119 34.6861 99.9744 15.4169C129.592 6.07068 164.389 2 204.371 2C326.782 2 439.67 42.2504 434.851 113.108C434.851 148.266 413.958 180.596 371.408 199.897C343.056 212.757 305.52 219.184 256.571 219.184C198.114 223.423 149.255 220.029 110.763 211.22C81.0766 226.301 46.834 235.926 2.99972 247.829C32.6793 230.589 57.1293 216.058 77.2864 201.272C71.9701 199.265 66.9497 197.126 62.2287 194.866Z" fill="white"/>
<path d="M62.2287 194.866L61.3651 196.67L61.3651 196.67L62.2287 194.866ZM99.9744 15.4169L100.576 17.3242L100.576 17.3242L99.9744 15.4169ZM434.851 113.108L432.856 112.972C432.853 113.017 432.851 113.062 432.851 113.108H434.851ZM371.408 199.897L370.581 198.076L370.581 198.076L371.408 199.897ZM256.571 219.184V217.184C256.523 217.184 256.475 217.185 256.427 217.189L256.571 219.184ZM110.763 211.22L111.209 209.27C110.753 209.166 110.275 209.225 109.857 209.437L110.763 211.22ZM2.99972 247.829L1.99518 246.099C1.12707 246.604 0.767303 247.673 1.15426 248.6C1.54121 249.526 2.55495 250.022 3.52381 249.759L2.99972 247.829ZM77.2864 201.272L78.4693 202.885C79.0609 202.451 79.3674 201.728 79.268 201.001C79.1686 200.275 78.6793 199.66 77.993 199.401L77.2864 201.272ZM0 113.108C0 146.097 18.8966 176.338 61.3651 196.67L63.0923 193.062C21.7052 173.248 4 144.243 4 113.108H0ZM99.3725 13.5096C37.9834 32.8819 0 72.3512 0 113.108H4C4 74.9642 39.8404 36.4903 100.576 17.3242L99.3725 13.5096ZM204.371 0C164.267 0 129.25 4.08138 99.3725 13.5096L100.576 17.3242C129.934 8.05999 164.512 4 204.371 4V0ZM436.847 113.243C439.345 76.4997 411.267 48.1679 368.129 29.1522C324.877 10.0867 265.756 0 204.371 0V4C265.397 4 323.925 14.0384 366.515 32.8124C409.219 51.6363 435.176 78.8581 432.856 112.972L436.847 113.243ZM372.234 201.718C415.369 182.152 436.851 149.184 436.851 113.108H432.851C432.851 147.347 412.547 179.04 370.581 198.076L372.234 201.718ZM256.571 221.184C305.667 221.184 343.521 214.742 372.234 201.718L370.581 198.076C342.591 210.772 305.373 217.184 256.571 217.184V221.184ZM110.317 213.17C149.047 222.033 198.112 225.428 256.716 221.178L256.427 217.189C198.116 221.417 149.463 218.025 111.209 209.27L110.317 213.17ZM109.857 209.437C80.3864 224.408 46.3497 233.986 2.47564 245.899L3.52381 249.759C47.3183 237.867 81.7668 228.194 111.669 213.003L109.857 209.437ZM4.00427 249.558C33.6724 232.325 58.2131 217.743 78.4693 202.885L76.1035 199.66C56.0455 214.373 31.6862 228.853 1.99518 246.099L4.00427 249.558ZM61.3651 196.67C66.1407 198.956 71.2138 201.117 76.5799 203.143L77.993 199.401C72.7264 197.413 67.7586 195.296 63.0923 193.062L61.3651 196.67Z" fill="black"/>
</svg>
