<svg width="656" height="889" viewBox="0 0 656 889" fill="none" xmlns="http://www.w3.org/2000/svg">
<path d="M2 9.10549V50.9718V838.028V879.895C2 883.21 5.80183 885.086 8.43328 883.069L64.7667 839.893C66.2023 838.793 68.1977 838.793 69.6333 839.893L129.967 886.135C131.402 887.235 133.398 887.235 134.833 886.135L195.167 839.893C196.602 838.793 198.598 838.793 200.033 839.893L260.367 886.135C261.802 887.235 263.798 887.235 265.233 886.135L325.567 839.893C327.002 838.793 328.998 838.793 330.433 839.893L390.767 886.135C392.202 887.235 394.198 887.235 395.633 886.135L455.967 839.893C457.402 838.793 459.398 838.793 460.833 839.893L521.167 886.135C522.602 887.235 524.598 887.235 526.033 886.135L586.367 839.893C587.802 838.793 589.798 838.793 591.233 839.893L647.567 883.069C650.198 885.086 654 883.21 654 879.895V50.9718V9.10548C654 5.79004 650.198 3.91387 647.567 5.93072L591.233 49.1069C589.798 50.2072 587.802 50.2072 586.367 49.1069L526.033 2.86495C524.598 1.76465 522.602 1.76466 521.167 2.86496L460.833 49.1069C459.398 50.2072 457.402 50.2072 455.967 49.1069L395.633 2.86495C394.198 1.76465 392.202 1.76466 390.767 2.86496L330.433 49.1069C328.998 50.2072 327.002 50.2072 325.567 49.1069L265.233 2.86495C263.798 1.76465 261.802 1.76466 260.367 2.86496L200.033 49.1069C198.598 50.2072 196.602 50.2072 195.167 49.1069L134.833 2.86495C133.398 1.76465 131.402 1.76466 129.967 2.86496L69.6333 49.1069C68.1977 50.2072 66.2023 50.2072 64.7667 49.1069L8.43327 5.93071C5.80182 3.91387 2 5.79004 2 9.10549Z" stroke="black" stroke-width="4" stroke-linecap="round" stroke-linejoin="round"/>
</svg>
