<svg width="430" height="27" viewBox="0 0 430 27" fill="none" xmlns="http://www.w3.org/2000/svg">
<path d="M0 27V0H3.41016V27H0ZM13.6406 26.0023V0H23.8711V26.0023H13.6406ZM27.2813 26.0023V0H30.6915V26.0023H27.2813ZM34.1016 26.0023V0H44.3321V26.0023H34.1016ZM47.7423 26.0023V0H51.1524V26.0023H47.7423Z" fill="black"/>
<path d="M54.6159 26.0023V0H58.026V26.0023H54.6159ZM68.2565 26.0023V0H78.487V26.0023H68.2565ZM81.8972 26.0023V0H85.3073V26.0023H81.8972ZM88.7175 26.0023V0H98.948V26.0023H88.7175ZM102.358 27V0H105.768V27H102.358Z" fill="black"/>
<path d="M109.232 27V0H112.642V27H109.232ZM122.872 26.0023V0H133.103V26.0023H122.872ZM136.513 26.0023V0H139.923V26.0023H136.513ZM143.333 26.0023V0H153.564V26.0023H143.333ZM156.974 26.0023V0H160.384V26.0023H156.974Z" fill="black"/>
<path d="M163.848 26.0023V0H167.258V26.0023H163.848ZM177.488 26.0023V0H187.719V26.0023H177.488ZM191.129 26.0023V0H194.539V26.0023H191.129ZM197.949 26.0023V0H208.18V26.0023H197.949ZM211.59 27V0H215V27H211.59Z" fill="black"/>
<path d="M215 27V0H218.41V27H215ZM228.641 26.0023V0H238.871V26.0023H228.641ZM242.281 26.0023V0H245.691V26.0023H242.281ZM249.102 26.0023V0H259.332V26.0023H249.102ZM262.742 26.0023V0H266.152V26.0023H262.742Z" fill="black"/>
<path d="M269.616 26.0023V0H273.026V26.0023H269.616ZM283.257 26.0023V0H293.487V26.0023H283.257ZM296.897 26.0023V0H300.307V26.0023H296.897ZM303.717 26.0023V0H313.948V26.0023H303.717ZM317.358 27V0H320.768V27H317.358Z" fill="black"/>
<path d="M324.232 27V0H327.642V27H324.232ZM337.872 26.0023V0H348.103V26.0023H337.872ZM351.513 26.0023V0H354.923V26.0023H351.513ZM358.333 26.0023V0H368.564V26.0023H358.333ZM371.974 26.0023V0H375.384V26.0023H371.974Z" fill="black"/>
<path d="M378.848 26.0023V0H382.258V26.0023H378.848ZM392.488 26.0023V0H402.719V26.0023H392.488ZM406.129 26.0023V0H409.539V26.0023H406.129ZM412.949 26.0023V0H423.18V26.0023H412.949ZM426.59 27V0H430V27H426.59Z" fill="black"/>
</svg>
