<svg width="418" height="388" viewBox="0 0 418 388" fill="none" xmlns="http://www.w3.org/2000/svg">
<path d="M85.9928 377.718L80.2019 373.63C80.4883 373.22 80.9785 372.52 81.6724 371.529C82.3397 370.542 82.833 369.82 83.1525 369.364C84.4192 367.554 86.3957 364.763 89.082 360.992C91.7682 357.222 93.7337 354.447 94.9784 352.668L96.9282 349.883C99.3075 346.483 100.926 344.087 101.784 342.694L107.473 346.676C105.731 349.467 103.125 353.341 99.6552 358.298C99.1264 359.054 98.3695 360.001 97.3844 361.141C96.3725 362.285 95.5007 363.246 94.7689 364.023L93.6713 365.189C95.7014 364.031 98.1375 362.594 100.98 360.879C103.806 359.152 106.657 357.407 109.532 355.644C112.407 353.882 114.326 352.715 115.287 352.146L121.89 356.732L100.207 387.561L94.3735 383.584L103.799 370.168C104.757 368.798 105.899 367.335 107.224 365.777C108.522 364.223 109.597 363.006 110.448 362.124L111.709 360.826C110.113 361.866 107.535 363.439 103.976 365.543C100.416 367.647 97.1535 369.678 94.1887 371.636C91.208 373.583 88.4761 375.611 85.9928 377.718Z" fill="black"/>
<path d="M74.8996 350.17C74.3595 349.624 73.9073 349.152 73.5429 348.756C73.1785 348.36 72.8478 348.012 72.5508 347.711C71.0657 346.208 69.7189 345.405 68.5106 345.303C67.2887 345.187 66.1312 345.669 65.0379 346.749C64.2726 347.505 63.9949 348.508 64.2046 349.759C64.4144 351.01 65.0188 352.141 66.0179 353.153C67.5436 354.697 68.8214 355.676 69.8512 356.09C70.8539 356.503 72.3739 356.743 74.4111 356.81L72.4942 363.808C70.1879 363.305 68.2703 362.566 66.7412 361.593C65.1849 360.619 63.4347 359.148 61.4905 357.18C60.4509 356.128 59.5819 354.934 58.8836 353.598C58.1582 352.263 57.6572 350.881 57.3805 349.453C57.1039 348.025 57.167 346.586 57.5697 345.134C57.9724 343.683 58.7409 342.398 59.8751 341.277C61.105 340.062 62.3595 339.282 63.6385 338.936C64.904 338.577 66.3709 338.6 68.0393 339.004C66.6641 335.042 67.8282 331.232 71.5316 327.573C74.1008 325.035 76.7425 323.978 79.4567 324.402C82.1574 324.812 85.2832 326.814 88.8341 330.408C90.6297 332.226 92.0256 333.898 93.0215 335.426C93.9903 336.953 94.8007 338.853 95.4525 341.126L88.0436 343.179C87.8939 340.978 87.5847 339.326 87.116 338.222C86.6337 337.106 85.7715 335.919 84.5294 334.661C81.4106 331.505 78.8126 330.952 76.7354 333.004C75.0135 334.706 74.2014 336.467 74.2991 338.288C74.3832 340.095 75.2219 341.805 76.815 343.417C77.112 343.718 77.4564 344.053 77.8481 344.422C78.2398 344.791 78.7057 345.249 79.2457 345.795L74.8996 350.17Z" fill="black"/>
<path d="M35.956 327.697C35.5338 327.078 35.1701 326.442 34.8649 325.79C34.5437 325.149 34.2795 324.352 34.0723 323.401C33.8493 322.46 33.7647 321.518 33.8187 320.574C33.8618 319.615 34.1008 318.533 34.5357 317.33C34.9597 316.11 35.597 314.897 36.4474 313.689C37.2711 312.476 38.4346 311.148 39.938 309.704C41.4413 308.26 43.2191 306.826 45.2714 305.403L45.5333 305.225C47.5012 303.883 49.493 302.78 51.5086 301.917C53.4976 301.049 55.2582 300.51 56.7906 300.302C59.1266 300.011 61.3549 300.363 63.4754 301.359C65.5851 302.338 67.3164 303.82 68.6695 305.804C69.7627 307.407 70.5566 309.167 71.0511 311.085C71.5297 313.015 71.5061 314.821 70.9804 316.505C69.8887 320.087 66.9622 323.501 62.2011 326.748C58.3445 329.378 55.1159 331.174 52.5152 332.133C49.8986 333.104 47.599 333.568 45.6165 333.525C43.9376 333.484 42.227 332.953 40.4845 331.933C38.7312 330.896 37.2217 329.484 35.956 327.697ZM64.276 314.346C64.765 313.222 64.9737 312.301 64.9021 311.582C64.8198 310.848 64.4647 310.02 63.8369 309.1C62.722 307.465 60.7585 306.956 57.9463 307.571C57.0741 307.724 55.7925 308.215 54.1015 309.043C52.3997 309.854 50.9245 310.675 49.6757 311.503L49.271 311.779C45.5891 314.29 43.0394 316.552 41.6221 318.566C39.9948 320.885 39.7224 322.838 40.8048 324.425C41.3352 325.202 41.9481 325.726 42.6437 325.996C43.3233 326.276 44.2461 326.368 45.4119 326.27C48.5582 326.008 52.6388 324.166 57.6539 320.746C59.0505 319.793 60.4085 318.716 61.7279 317.514C63.0314 316.323 63.8807 315.267 64.276 314.346Z" fill="black"/>
<path d="M21.6168 302.366L13.6315 284.377C12.9767 282.903 12.5581 281.155 12.3757 279.134L18.3942 278.701C18.4834 279.754 18.7473 280.845 19.1856 281.975L24.1779 293.221L53.6227 280.15L56.5924 286.839L21.6168 302.366Z" fill="black"/>
<path d="M7.48715 264.47L22.5353 260.865C21.4209 258.624 20.5367 256.15 19.8827 253.443L19.2941 251.006C16.4184 251.7 13.6757 252.373 11.0659 253.023C8.433 253.659 6.48164 254.13 5.21186 254.437L3.47984 247.266L40.369 238.356L42.0942 245.498L25.3162 249.551L25.5327 250.447C26.056 252.614 26.5063 254.274 26.8838 255.427C27.2614 256.581 27.8192 257.909 28.5574 259.41C32.2174 258.526 35.4549 257.735 38.2701 257.035C41.0853 256.335 43.1651 255.823 44.5096 255.498L46.2551 262.725L9.28195 271.655L7.48715 264.47Z" fill="black"/>
<path d="M30.6539 230.237C32.6508 228.797 33.612 227.415 33.5376 226.091C33.5192 225.765 33.3954 225.445 33.166 225.131C32.9164 224.799 32.6509 224.525 32.3694 224.31C32.0869 224.076 31.6978 223.828 31.2021 223.568C30.6861 223.289 30.2997 223.089 30.0428 222.969C29.7667 222.85 29.3729 222.689 28.8612 222.487C28.3304 222.286 28.0549 222.177 28.0346 222.159C27.759 222.732 27.5425 223.158 27.385 223.436C27.2083 223.715 26.8762 224.138 26.3885 224.704C25.9009 225.271 25.3418 225.764 24.7113 226.184C24.0616 226.606 23.1408 227.167 21.9489 227.869C20.7378 228.572 19.3253 229.287 17.7115 230.013C16.0774 230.72 14.0566 231.565 11.649 232.547C9.22231 233.53 6.45413 234.6 3.34449 235.757L0.893759 228.621C5.47594 227.305 9.62752 225.859 13.3485 224.284C17.0492 222.69 19.5865 221.278 20.9602 220.046C17.0616 219.149 13.5503 218.298 10.4265 217.493C7.38044 216.702 3.91135 215.916 0.0192215 215.135L1.40099 207.38C3.07746 207.767 5.4899 208.41 8.63833 209.31C11.7676 210.212 14.0351 210.844 15.4409 211.208C22.0019 212.916 26.2028 214.056 28.0435 214.625C35.4436 216.883 39.2845 220.515 39.5663 225.521C39.6742 227.439 39.6093 229.021 39.3715 230.265C39.1338 231.51 38.5784 232.754 37.7055 233.996L30.6539 230.237Z" fill="black"/>
<path d="M38.9874 193.355L7.02123 189.352C6.74916 191.525 6.51527 193.471 6.31954 195.189C6.10713 196.885 5.97349 197.953 5.9186 198.391L0 197.65C0.126487 196.64 0.552487 193.237 1.278 187.443C1.98684 181.627 2.46297 177.746 2.7064 175.802C2.97369 173.667 3.32546 172.095 3.76171 171.084L9.35114 173.527C8.9983 174.489 8.75029 175.542 8.60709 176.686L7.95199 181.918L39.9181 185.921L38.9874 193.355Z" fill="black"/>
<path d="M48.1548 151.985L12.5632 140.676L14.6595 134.025L50.2684 145.279L48.1548 151.985ZM27.6061 158.228C27.5368 158.448 27.4979 158.667 27.4893 158.886C27.4624 159.099 27.45 159.266 27.452 159.388L27.4636 159.543C32.1974 161.075 35.8227 162.258 38.3396 163.092C38.5746 162.602 38.7498 162.173 38.8653 161.807C39.1079 161.037 39.162 160.45 39.0278 160.045C38.8935 159.641 38.4648 159.244 37.7415 158.854C37.0239 158.447 35.804 157.972 34.0818 157.429C32.3046 156.869 31.0052 156.55 30.1837 156.472C29.3497 156.371 28.7708 156.45 28.447 156.71C28.1289 156.953 27.8486 157.458 27.6061 158.228ZM6.38699 160.271L8.50926 153.538C9.98077 153.982 12.1731 154.663 15.0863 155.581L21.9569 157.747C22.0049 157.339 22.0587 156.913 22.1182 156.468C22.1594 156.018 22.194 155.716 22.2219 155.564C22.2314 155.406 22.2703 155.187 22.3386 154.906C22.4069 154.625 22.5075 154.274 22.6403 153.853C23.4199 151.38 24.9415 149.875 27.205 149.34C29.4685 148.804 32.6523 149.184 36.7564 150.477C40.6589 151.707 43.2456 153.278 44.5164 155.189C45.7747 157.076 45.8754 159.696 44.8186 163.049C44.5587 163.873 44.0981 165.239 43.4368 167.145C42.7938 169.058 42.2962 170.573 41.9439 171.69C40.6797 171.292 37.7048 170.314 33.0192 168.756C28.321 167.175 23.81 165.703 19.4861 164.34C18.4417 164.011 16.2036 163.315 12.7716 162.254C9.32137 161.186 7.19315 160.526 6.38699 160.271Z" fill="black"/>
<path d="M18.9717 122.437C19.4063 121.45 20.2878 119.699 21.6161 117.186C21.6161 117.186 22.0559 116.353 22.9354 114.689L24.4163 111.886C25.1702 110.46 26.1161 108.711 27.254 106.64C28.3838 104.542 29.0744 103.256 29.3257 102.78L29.5411 102.373L34.6875 105.092L27.5659 118.57L34.4193 122.191L38.9696 113.58L44.1415 116.313L39.5912 124.924L40.381 125.341C42.4022 126.409 44.5463 127.553 46.8133 128.773C49.0803 129.992 50.4176 130.71 50.8253 130.925L56.3747 120.3C56.5991 119.875 56.7909 119.368 56.9503 118.779C57.1096 118.19 57.2236 117.707 57.2922 117.33L57.3696 116.752L63.4089 117.596C63.3621 117.767 63.29 118.109 63.1925 118.623C63.104 119.119 63.0219 119.521 62.9463 119.829C62.8796 120.119 62.7411 120.546 62.5308 121.108C62.3205 121.671 62.0628 122.241 61.7577 122.818L52.5763 140.194L18.9717 122.437Z" fill="black"/>
<path d="M74.0907 50.6285L79.4244 45.9594C79.755 46.3339 80.3206 46.9748 81.1215 47.8822C81.924 48.7625 82.5096 49.4114 82.8783 49.8291C84.3402 51.4854 86.5885 54.0619 89.6233 57.5584C92.6581 61.0549 94.8937 63.6169 96.3302 65.2444L98.5802 67.7937C101.326 70.9047 103.275 73.0406 104.428 74.2012L99.221 78.7966C96.9177 76.4482 93.7638 73.0055 89.7596 68.4686C89.1494 67.7772 88.4061 66.819 87.5298 65.5939C86.6552 64.3417 85.9259 63.2686 85.342 62.3748L84.4661 61.034C85.1155 63.2793 85.9403 65.9847 86.9406 69.1502C87.9553 72.303 88.9819 75.4837 90.0203 78.6924C91.0587 81.9011 91.742 84.0397 92.07 85.1081L86.0615 90.4497L61.1854 62.1342L66.4212 57.3977L77.2493 69.7096C78.3553 70.9626 79.51 72.4161 80.7134 74.0699C81.9185 75.6966 82.8495 77.0272 83.5063 78.0617L84.4725 79.5918C83.8359 77.7964 82.9128 74.9215 81.7031 70.9672C80.4934 67.0129 79.285 63.3649 78.0779 60.0232C76.8852 56.6688 75.5562 53.5372 74.0907 50.6285Z" fill="black"/>
<path d="M103.473 46.3135C104.131 45.9169 104.696 45.588 105.166 45.3269C105.637 45.0657 106.053 44.826 106.415 44.6079C108.225 43.5172 109.322 42.3966 109.705 41.2461C110.105 40.0856 109.908 38.8472 109.115 37.5309C108.56 36.6095 107.649 36.1039 106.384 36.0141C105.119 35.9243 103.877 36.2463 102.66 36.98C100.8 38.1004 99.5488 39.1126 98.9048 40.0165C98.2673 40.8941 97.677 42.3152 97.1339 44.2798L90.7819 40.7734C91.8123 38.6497 92.9803 36.959 94.2858 35.7013C95.5978 34.4172 97.4385 33.0613 99.8079 31.6335C101.075 30.87 102.439 30.3057 103.901 29.9404C105.37 29.5489 106.831 29.3863 108.284 29.4527C109.737 29.5191 111.121 29.9183 112.437 30.6505C113.753 31.3826 114.823 32.4316 115.646 33.7972C116.538 35.278 117.002 36.6806 117.037 38.005C117.089 39.3194 116.723 40.7401 115.939 42.2669C120.112 41.8603 123.542 43.8864 126.229 48.3454C128.093 51.4387 128.501 54.2547 127.451 56.7935C126.418 59.3224 123.738 61.8908 119.411 64.4985C117.223 65.8172 115.269 66.7813 113.551 67.3908C111.839 67.9739 109.802 68.3155 107.44 68.4156L107.183 60.7316C109.358 61.103 111.036 61.1904 112.219 60.9937C113.418 60.7871 114.774 60.2278 116.288 59.3156C120.088 57.0251 121.235 54.6294 119.728 52.1285C118.479 50.0553 116.958 48.8524 115.165 48.5198C113.388 48.1773 111.53 48.5911 109.588 49.7611C109.226 49.9792 108.82 50.2353 108.369 50.5294C107.918 50.8235 107.364 51.1688 106.705 51.5654L103.473 46.3135Z" fill="black"/>
<path d="M134.462 13.7349C135.163 13.4699 135.866 13.2655 136.572 13.1219C137.271 12.9603 138.107 12.8906 139.08 12.9126C140.047 12.9166 140.983 13.0557 141.888 13.3297C142.81 13.5969 143.805 14.0832 144.873 14.7885C145.959 15.4869 146.989 16.3913 147.963 17.5015C148.949 18.587 149.967 20.0299 151.017 21.8302C152.068 23.6305 153.044 25.6952 153.945 28.0242L154.057 28.3207C154.9 30.5488 155.504 32.7438 155.87 34.9057C156.247 37.0429 156.357 38.8807 156.199 40.419C155.933 42.7581 155.068 44.8414 153.603 46.669C152.155 48.4897 150.309 49.8248 148.063 50.6742C146.248 51.3606 144.35 51.7189 142.369 51.7491C140.382 51.7614 138.631 51.3144 137.118 50.408C133.893 48.5058 131.261 44.8595 129.222 39.469C127.571 35.1027 126.584 31.5429 126.262 28.7895C125.932 26.0181 126.021 23.6739 126.529 21.7569C126.963 20.1345 127.88 18.5963 129.281 17.1422C130.701 15.6813 132.427 14.5455 134.462 13.7349ZM140.791 44.3979C141.768 45.1371 142.615 45.5563 143.33 45.6555C144.063 45.7479 144.951 45.597 145.993 45.2029C147.844 44.503 148.8 42.714 148.862 39.8358C148.918 38.952 148.742 37.5911 148.335 35.7531C147.945 33.9082 147.494 32.2816 146.982 30.8733L146.809 30.4151C145.232 26.2465 143.632 23.2369 142.008 21.3865C140.136 19.2603 138.301 18.5369 136.505 19.2164C135.624 19.5494 134.971 20.0223 134.546 20.635C134.113 21.2298 133.808 22.1053 133.629 23.2615C133.145 26.3814 133.977 30.7803 136.124 36.4583C136.722 38.0395 137.451 39.6125 138.309 41.1772C139.161 42.724 139.988 43.7975 140.791 44.3979Z" fill="black"/>
<path d="M162.452 5.74384L181.813 2.20526C183.4 1.91513 185.197 1.91862 187.204 2.21573L186.212 8.16772C185.168 8.00717 184.045 8.00735 182.844 8.16826L170.74 10.3805L176.532 42.0712L169.333 43.3872L162.452 5.74384Z" fill="black"/>
<path d="M202.606 0.90625L202.577 16.3802C205.016 15.8231 207.629 15.5445 210.415 15.5445H212.921C212.921 12.5861 212.912 9.76221 212.893 7.07276C212.893 4.36411 212.893 2.35663 212.893 1.05033H220.269V39.0003H212.921V21.7398H211.999C209.771 21.7398 208.052 21.7879 206.841 21.8839C205.631 21.98 204.21 22.2105 202.577 22.5755C202.577 26.3407 202.586 29.6737 202.606 32.5745C202.625 35.4752 202.634 37.6172 202.634 39.0003H195.2V0.963881L202.606 0.90625Z" fill="black"/>
<path d="M230.443 31.4639C231.373 33.7431 232.491 35.0019 233.795 35.2402C234.116 35.299 234.456 35.2537 234.815 35.1046C235.197 34.94 235.525 34.7461 235.801 34.523C236.095 34.3034 236.426 33.9832 236.796 33.5626C237.188 33.1265 237.473 32.7978 237.65 32.5763C237.831 32.3359 238.08 31.9908 238.396 31.5409C238.716 31.0721 238.887 30.83 238.91 30.8145C238.417 30.412 238.054 30.1015 237.82 29.8831C237.59 29.6458 237.257 29.2237 236.821 28.6167C236.386 28.0098 236.037 27.3505 235.777 26.6389C235.52 25.9084 235.19 24.8815 234.787 23.5581C234.388 22.2158 234.026 20.6751 233.699 18.9359C233.395 17.1813 233.048 15.0186 232.659 12.4478C232.273 9.85808 231.883 6.91612 231.489 3.62192L239 2.91496C239.203 7.67806 239.634 12.0531 240.292 16.04C240.972 20.0114 241.75 22.8094 242.624 24.4339C244.411 20.8548 246.063 17.6415 247.579 14.7941C249.063 12.0188 250.641 8.83128 252.315 5.23144L259.529 8.39536C258.759 9.93417 257.567 12.1281 255.953 14.9771C254.342 17.8073 253.195 19.8629 252.511 21.1441C249.31 27.1205 247.216 30.9365 246.23 32.592C242.298 39.255 237.866 42.1358 232.933 41.2343C231.044 40.8889 229.522 40.4545 228.368 39.9311C227.213 39.4077 226.135 38.5759 225.133 37.4358L230.443 31.4639Z" fill="black"/>
<path d="M264.337 48.224L275.732 18.0912C273.684 17.3165 271.848 16.6324 270.224 16.0388C268.625 15.434 267.619 15.0534 267.205 14.8972L269.315 9.318C270.268 9.67815 273.475 10.8911 278.937 12.9569C284.424 15.0115 288.084 16.3854 289.917 17.0785C291.93 17.8396 293.376 18.5508 294.255 19.212L290.569 24.0718C289.716 23.5028 288.75 23.0144 287.672 22.6067L282.74 20.7414L271.344 50.8742L264.337 48.224Z" fill="black"/>
<path d="M302.396 66.8484L321.746 34.907L327.718 38.5062L308.418 70.4773L302.396 66.8484ZM301.153 45.4083C300.955 45.2894 300.751 45.2 300.54 45.1403C300.34 45.0641 300.18 45.0128 300.061 44.9862L299.908 44.9612C297.307 49.2029 295.306 52.4491 293.905 54.6999C294.326 55.0433 294.701 55.3142 295.03 55.5125C295.721 55.9289 296.279 56.1194 296.704 56.084C297.129 56.0486 297.616 55.725 298.164 55.1133C298.728 54.5115 299.477 53.4372 300.409 51.8906C301.371 50.2946 301.986 49.1064 302.254 48.3261C302.549 47.5393 302.607 46.9579 302.43 46.582C302.27 46.216 301.844 45.8248 301.153 45.4083ZM304.148 24.3026L310.195 27.9465C309.418 29.2727 308.242 31.2439 306.665 33.86L302.947 40.0301C303.332 40.1725 303.734 40.3249 304.152 40.4871C304.58 40.6329 304.865 40.7372 305.006 40.8001C305.158 40.8465 305.362 40.9358 305.618 41.0681C305.875 41.2004 306.193 41.3806 306.571 41.6086C308.792 42.9472 309.898 44.7794 309.887 47.1053C309.875 49.4313 308.759 52.437 306.538 56.1227C304.426 59.6273 302.292 61.7729 300.136 62.5595C298.006 63.3395 295.436 62.8222 292.425 61.0077C291.685 60.5615 290.465 59.7932 288.768 58.7028C287.06 57.6288 285.704 56.7893 284.7 56.1845C285.385 55.0492 287.034 52.3871 289.648 48.1981C292.288 44.0027 294.778 39.9634 297.118 36.0803C297.683 35.1425 298.885 33.1301 300.723 30.0434C302.57 26.9402 303.712 25.0266 304.148 24.3026Z" fill="black"/>
<path d="M337.972 45.418C338.829 46.0723 340.324 47.3401 342.456 49.2215C342.456 49.2215 343.161 49.8443 344.573 51.0901L346.949 53.1876C348.159 54.2554 349.637 55.5855 351.383 57.1779C353.156 58.7686 354.245 59.7419 354.648 60.0978L354.994 60.4029L351.142 64.767L339.713 54.68L334.584 60.4915L341.886 66.9365L338.015 71.3222L330.713 64.8772L330.122 65.5469C328.609 67.2609 326.994 69.0765 325.276 70.9937C323.558 72.911 322.547 74.0425 322.242 74.3881L331.267 82.2772C331.627 82.595 332.075 82.9005 332.611 83.1938C333.146 83.4871 333.589 83.7112 333.939 83.8663L334.483 84.0774L332.244 89.7495C332.089 89.6639 331.773 89.5135 331.297 89.2982C330.835 89.0956 330.464 88.9215 330.182 88.7757C329.915 88.6426 329.533 88.4078 329.036 88.0714C328.539 87.7349 328.045 87.3506 327.555 86.9184L312.821 73.914L337.972 45.418Z" fill="black"/>
<path d="M394.831 115.857L398.117 122.138C397.676 122.371 396.92 122.771 395.85 123.336C394.806 123.909 394.037 124.326 393.545 124.587C391.592 125.619 388.559 127.199 384.448 129.328C380.337 131.457 377.321 133.029 375.402 134.043L372.396 135.632C368.727 137.57 366.193 138.963 364.794 139.811L361.55 133.671C364.374 131.984 368.461 129.726 373.811 126.899C374.626 126.468 375.732 125.971 377.129 125.407C378.551 124.85 379.766 124.394 380.771 124.036L382.28 123.499C379.945 123.603 377.122 123.77 373.81 123.999C370.507 124.245 367.174 124.496 363.812 124.752C360.449 125.008 358.21 125.17 357.094 125.238L353.312 118.143L386.677 100.611L390.052 106.813L375.542 114.447C374.064 115.228 372.38 116.009 370.49 116.791C368.626 117.58 367.114 118.173 365.954 118.568L364.24 119.148C366.135 118.951 369.146 118.729 373.274 118.481C377.401 118.234 381.231 117.916 384.763 117.527C388.304 117.155 391.66 116.599 394.831 115.857Z" fill="black"/>
<path d="M392.128 145.432C392.359 146.165 392.546 146.791 392.689 147.309C392.833 147.828 392.968 148.289 393.095 148.692C393.73 150.708 394.562 152.037 395.59 152.679C396.625 153.34 397.875 153.44 399.34 152.978C400.366 152.654 401.072 151.888 401.456 150.679C401.84 149.471 401.819 148.188 401.392 146.832C400.739 144.762 400.049 143.308 399.321 142.47C398.618 141.644 397.375 140.736 395.593 139.747L400.493 134.396C402.315 135.896 403.685 137.429 404.601 138.993C405.541 140.57 406.427 142.677 407.258 145.316C407.703 146.726 407.931 148.185 407.943 149.692C407.979 151.212 407.794 152.67 407.388 154.067C406.982 155.464 406.269 156.716 405.248 157.823C404.228 158.93 402.957 159.723 401.436 160.203C399.787 160.722 398.315 160.844 397.019 160.568C395.73 160.31 394.435 159.62 393.135 158.499C392.55 162.651 389.775 165.51 384.81 167.075C381.365 168.16 378.532 167.895 376.311 166.279C374.095 164.681 372.228 161.473 370.709 156.654C369.941 154.218 369.463 152.092 369.274 150.279C369.109 148.478 369.255 146.417 369.712 144.098L377.242 145.652C376.37 147.679 375.891 149.291 375.805 150.486C375.724 151.7 375.949 153.15 376.481 154.835C377.815 159.068 379.874 160.745 382.659 159.867C384.967 159.139 386.494 157.943 387.238 156.279C387.988 154.632 388.022 152.728 387.341 150.566C387.214 150.163 387.06 149.708 386.88 149.201C386.7 148.693 386.495 148.073 386.264 147.341L392.128 145.432Z" fill="black"/>
<path d="M416.52 183.204C416.613 183.947 416.646 184.679 416.62 185.398C416.613 186.115 416.485 186.945 416.235 187.886C416.004 188.825 415.649 189.702 415.17 190.517C414.694 191.351 413.988 192.204 413.051 193.076C412.117 193.968 410.996 194.756 409.689 195.443C408.402 196.146 406.76 196.797 404.764 197.395C402.767 197.994 400.531 198.458 398.055 198.787L397.741 198.826C395.377 199.122 393.102 199.194 390.914 199.042C388.748 198.907 386.936 198.582 385.478 198.068C383.267 197.26 381.445 195.93 380.012 194.076C378.582 192.242 377.718 190.133 377.42 187.751C377.179 185.825 377.276 183.897 377.712 181.964C378.166 180.029 379.012 178.433 380.248 177.174C382.855 174.486 387.017 172.784 392.735 172.068C397.367 171.488 401.059 171.365 403.811 171.698C406.583 172.028 408.84 172.665 410.585 173.608C412.06 174.411 413.34 175.664 414.424 177.368C415.511 179.09 416.21 181.036 416.52 183.204ZM385.228 182.156C384.28 182.933 383.674 183.657 383.409 184.329C383.147 185.02 383.086 185.918 383.224 187.024C383.47 188.987 384.984 190.337 387.768 191.073C388.613 191.335 389.978 191.483 391.86 191.519C393.745 191.573 395.432 191.517 396.921 191.35L397.407 191.289C401.829 190.735 405.13 189.886 407.31 188.742C409.817 187.421 410.951 185.808 410.712 183.902C410.595 182.968 410.289 182.222 409.793 181.665C409.316 181.105 408.537 180.602 407.455 180.157C404.536 178.954 400.065 178.73 394.041 179.484C392.364 179.694 390.664 180.033 388.941 180.5C387.238 180.965 386 181.517 385.228 182.156Z" fill="black"/>
<path d="M417.715 212.286L416.609 231.936C416.518 233.547 416.093 235.293 415.333 237.175L409.78 234.813C410.181 233.835 410.445 232.743 410.57 231.538L411.262 219.254L379.097 217.443L379.508 210.136L417.715 212.286Z" fill="black"/>
<path d="M412.989 252.453L397.955 248.792C397.924 251.294 397.581 253.899 396.927 256.607L396.338 259.044C399.214 259.738 401.961 260.392 404.58 261.005C407.213 261.641 409.164 262.112 410.434 262.419L408.702 269.589L371.813 260.679L373.538 253.537L390.316 257.589L390.533 256.693C391.056 254.527 391.413 252.844 391.604 251.645C391.794 250.446 391.904 249.01 391.933 247.337C388.273 246.453 385.031 245.68 382.206 245.018C379.382 244.355 377.298 243.862 375.953 243.537L377.699 236.31L414.672 245.241L412.989 252.453Z" fill="black"/>
<path d="M376.749 272.338C374.315 272.708 372.829 273.499 372.291 274.71C372.159 275.009 372.123 275.35 372.184 275.734C372.254 276.144 372.365 276.508 372.518 276.828C372.662 277.166 372.895 277.563 373.217 278.022C373.549 278.505 373.802 278.859 373.976 279.083C374.167 279.315 374.444 279.638 374.807 280.051C375.188 280.473 375.383 280.696 375.392 280.721C375.899 280.337 376.286 280.057 376.554 279.881C376.838 279.713 377.327 279.489 378.019 279.207C378.711 278.926 379.434 278.743 380.187 278.656C380.957 278.578 382.033 278.499 383.414 278.418C384.812 278.345 386.395 278.354 388.162 278.445C389.939 278.561 392.123 278.732 394.713 278.957C397.321 279.19 400.273 279.502 403.567 279.893L402.491 287.36C397.813 286.439 393.459 285.83 389.429 285.534C385.409 285.262 382.507 285.361 380.723 285.83C383.782 288.407 386.518 290.767 388.929 292.91C391.279 295.004 394.007 297.287 397.113 299.758L392.344 306.027C391.029 304.918 389.176 303.245 386.786 301.006C384.413 298.776 382.684 297.178 381.599 296.213C376.541 291.698 373.324 288.767 371.946 287.42C366.392 282.033 364.633 277.048 366.667 272.466C367.447 270.71 368.226 269.332 369.006 268.333C369.786 267.334 370.847 266.481 372.191 265.775L376.749 272.338Z" fill="black"/>
<path d="M352.499 301.349L379.114 319.501C380.348 317.692 381.444 316.068 382.403 314.628C383.366 313.216 383.972 312.327 384.221 311.962L389.149 315.323C388.575 316.164 386.643 318.997 383.353 323.822C380.067 328.673 377.872 331.908 376.768 333.527C375.556 335.304 374.525 336.543 373.676 337.243L369.817 332.518C370.571 331.823 371.272 330.999 371.922 330.047L374.893 325.69L348.278 307.538L352.499 301.349Z" fill="black"/>
<path d="M325.461 333.973L351.966 360.281L347.065 365.241L320.519 338.974L325.461 333.973ZM346.593 337.798C346.755 337.634 346.89 337.456 346.998 337.266C347.119 337.088 347.206 336.945 347.26 336.836L347.32 336.693C343.808 333.169 341.122 330.462 339.263 328.571C338.831 328.9 338.479 329.201 338.209 329.474C337.642 330.048 337.326 330.546 337.261 330.967C337.195 331.389 337.396 331.938 337.861 332.614C338.314 333.304 339.182 334.284 340.467 335.553C341.793 336.862 342.803 337.739 343.499 338.183C344.194 338.654 344.746 338.848 345.153 338.764C345.546 338.694 346.026 338.372 346.593 337.798ZM366.406 345.665L361.444 350.687C360.337 349.621 358.697 348.014 356.525 345.868L351.4 340.805C351.171 341.146 350.929 341.5 350.673 341.869C350.431 342.25 350.262 342.503 350.168 342.626C350.087 342.762 349.953 342.939 349.764 343.158C349.575 343.376 349.325 343.643 349.015 343.957C347.192 345.802 345.151 346.446 342.893 345.889C340.635 345.332 337.975 343.542 334.914 340.517C332.003 337.642 330.419 335.063 330.16 332.783C329.902 330.529 331.008 328.152 333.479 325.651C334.087 325.037 335.12 324.032 336.579 322.637C338.023 321.23 339.158 320.109 339.981 319.275C340.924 320.207 343.125 322.435 346.583 325.959C350.041 329.511 353.383 332.88 356.608 336.066C357.387 336.836 359.061 338.476 361.63 340.987C364.212 343.512 365.804 345.071 366.406 345.665Z" fill="black"/>
<path d="M337.938 373.585C337.101 374.264 335.517 375.419 333.188 377.05C333.188 377.05 332.417 377.589 330.875 378.669L328.278 380.487C326.956 381.412 325.316 382.536 323.358 383.86C321.395 385.21 320.194 386.039 319.753 386.348L319.375 386.612L316.038 381.843L328.526 373.102L324.081 366.752L316.102 372.337L312.748 367.545L320.727 361.96L320.215 361.228C318.904 359.355 317.518 357.359 316.058 355.239C314.598 353.119 313.735 351.87 313.471 351.492L303.683 358.413C303.29 358.688 302.888 359.052 302.477 359.504C302.066 359.955 301.744 360.333 301.511 360.637L301.179 361.116L296.191 357.608C296.31 357.477 296.531 357.205 296.852 356.793C297.157 356.392 297.414 356.072 297.621 355.832C297.813 355.604 298.131 355.288 298.575 354.884C299.019 354.479 299.508 354.09 300.044 353.715L316.144 342.446L337.938 373.585Z" fill="black"/>
</svg>
