<svg width="81" height="101" viewBox="0 0 81 101" fill="none" xmlns="http://www.w3.org/2000/svg">
<path d="M50.1322 96.2565C5.13012 106.514 -19.7881 17.9111 21.2905 0.87539C22.8806 0.215958 24.3405 1.89831 23.7279 3.50704C19.0851 15.6991 15.9696 37.2514 32.04 50.6005C49.24 64.8879 52.2537 85.0477 51.5969 94.5832C51.5407 95.399 50.9296 96.0748 50.1322 96.2565Z" fill="black"/>
<path d="M30.5432 5.22644C75.5367 -5.04854 100.274 82.8498 59.2113 99.8641C57.6177 100.524 56.157 98.8343 56.7754 97.2239C61.4306 85.1026 64.5611 63.7306 48.5423 50.522C31.3818 36.3718 28.4062 16.3661 29.0795 6.89508C29.1374 6.08129 29.7479 5.40808 30.5432 5.22644Z" fill="black"/>
</svg>
