<svg width="72" height="89" viewBox="0 0 72 89" fill="none" xmlns="http://www.w3.org/2000/svg">
<path d="M11.7924 77.8785C-20.7296 54.7046 21.5214 -12.4575 56.4252 3.29908C57.9941 4.00736 57.7301 6.22591 56.1324 6.86675C45.525 11.1215 30.2541 21.6439 30.9743 39.5669C31.7525 58.9368 20.5987 72.616 14.0115 77.8437C13.3709 78.352 12.4584 78.353 11.7924 77.8785Z" fill="black"/>
<path d="M59.6693 12.183C92.1979 35.3387 50.2978 101.975 15.4209 86.2175C13.8489 85.5073 14.1169 83.2824 15.7197 82.6445C26.2867 78.4392 41.447 68.0303 40.6671 50.2239C39.8233 30.9596 50.8995 17.3945 57.4542 12.2155C58.0943 11.7097 59.0046 11.7099 59.6693 12.183Z" fill="black"/>
</svg>
