<svg width="123" height="115" viewBox="0 0 123 115" fill="none" xmlns="http://www.w3.org/2000/svg">
<path d="M100.476 104.542C53.6892 144.283 -29.4977 53.5739 10.6202 9.4929C11.7789 8.21978 13.8578 9.04717 14.0071 10.7621C15.477 27.6485 24.4108 56.0135 51.8578 62.2219C80.7743 68.7627 96.3096 90.9468 101.027 102.374C101.339 103.13 101.099 104.012 100.476 104.542Z" fill="black"/>
<path d="M22.8004 10.3621C69.5716 -29.3905 152.119 60.596 112.006 104.651C110.844 105.926 108.761 105.092 108.617 103.373C107.204 86.5581 98.4006 58.3896 71.0946 52.3167C42.3058 45.9141 26.9083 23.8875 22.2481 12.5245C21.9385 11.7697 22.1787 10.8905 22.8004 10.3621Z" fill="black"/>
</svg>
