<svg width="1350" height="4" viewBox="0 0 1350 4" fill="none" xmlns="http://www.w3.org/2000/svg">
<path fill-rule="evenodd" clip-rule="evenodd" d="M0 2C0 0.89543 0.89543 0 2 0H305C306.105 0 307 0.89543 307 2C307 3.10457 306.105 4 305 4H2C0.89543 4 0 3.10457 0 2ZM532.5 2C532.5 0.89543 533.395 0 534.5 0H817C818.105 0 819 0.89543 819 2C819 3.10457 818.105 4 817 4H534.5C533.395 4 532.5 3.10457 532.5 2ZM1049 2C1049 0.89543 1049.9 0 1051 0H1348C1349.1 0 1350 0.89543 1350 2C1350 3.10457 1349.1 4 1348 4H1051C1049.9 4 1049 3.10457 1049 2Z" fill="black"/>
</svg>
