<svg width="1440" height="1024" viewBox="0 0 1440 1024" fill="none" xmlns="http://www.w3.org/2000/svg">
<path d="M952.745 483.122L973 503.383V829.579L952.745 849.839H888.602V922.102L844.715 966H178.985L135.099 922.102V849.839H68.2555L48 829.579V503.383L68.2555 483.122M952.745 483.122V465.563M952.745 483.122H68.2555M68.2555 483.122V465.563M68.2555 465.563L48 445.302V124.509L68.2555 104.249L515.226 59L952.745 104.249L973 124.509V445.302L952.745 465.563M68.2555 465.563H952.745M750.865 909.27V922.102H763.693L773.146 936.96H802.854L811.631 922.102H824.46V909.27H750.865ZM227.599 936.96H260.682L271.485 922.102H285.664V909.27H205.318V922.102H218.146L227.599 936.96ZM217.471 124.509C221.297 139.592 235.701 169.353 262.708 167.732C289.715 166.111 282.513 138.241 275.536 124.509H217.471ZM800.828 117.08C799.928 133.964 790.566 167.732 760.318 167.732C730.069 167.732 733.31 133.964 738.712 117.08H800.828Z" stroke="black" stroke-width="4"/>
</svg>
