<svg width="156" height="213" viewBox="0 0 156 213" fill="none" xmlns="http://www.w3.org/2000/svg">
<g clip-path="url(#clip0_115_2760)">
<path d="M62.0644 -0.233836C58.3936 -0.367793 54.9124 0.967924 51.4707 2.04095C50.4684 2.25676 49.377 2.15775 48.4557 2.67116C48.4657 3.36882 47.2523 2.93264 47.1955 3.67799C46.3707 4.21237 45.3385 4.2345 44.4003 4.43994C41.7231 4.80334 38.9988 4.81883 36.3577 5.4356C35.3243 5.64583 34.3009 5.90894 33.3018 6.24599C32.452 6.08608 33.4348 7.57261 32.3922 7.08158C31.1963 6.474 31.7199 8.07142 31.1063 8.54068C30.4791 8.86546 29.1589 9.27475 29.7876 10.2225C30.105 10.361 31.0783 10.6763 30.3661 11.0168C28.6013 11.1767 26.8798 11.6843 25.1374 12.0075C25.9431 12.2698 24.7544 13.1674 24.4683 12.4851C23.4597 12.6063 23.9094 14.051 24.7773 14.0167C25.6657 14.066 26.0082 15.2883 25.2131 15.7454C24.2474 16.3566 23.4398 17.1616 22.6763 18.0035C22.0478 18.8532 20.8783 18.5087 19.9823 18.7541C18.6849 18.923 17.3922 19.1417 16.1242 19.4654C14.9464 19.0271 14.2132 20.8594 15.2219 21.5006C16.2557 22.2732 17.6105 21.8008 18.792 21.8015C19.8424 21.4038 20.0765 22.8068 18.979 22.7976C18.0722 22.5473 17.0621 22.4594 16.1288 22.6929C15.3196 23.2919 16.0169 24.2889 16.4752 24.8619C17.2358 25.3478 17.6863 26.5462 16.4212 26.6992C15.2635 27.0703 14.1201 27.5093 12.9369 27.7875C12.1576 28.1293 11.5659 26.4971 10.9436 27.2956C10.8802 28.3283 9.77097 28.6991 8.88669 28.5083C7.726 28.5503 6.57897 28.2503 5.42601 28.2582C4.41719 28.387 3.69459 30.0507 4.92327 30.4202C6.01592 30.7539 7.1378 31.0797 8.29013 31.1099C8.98876 31.9969 7.54162 32.2361 7.10113 32.4961C6.81492 33.3486 7.64276 34.0802 8.32881 34.4268C7.96352 34.8009 6.66781 34.5135 6.02809 34.959C4.92126 35.0575 5.2945 36.4434 6.15945 36.5994C6.71798 36.9974 8.05574 36.9692 8.24573 37.2156C7.27146 37.6986 6.28342 36.9629 5.3064 36.9314C4.26028 37.0111 4.57765 38.4292 5.243 38.833C6.11233 39.2642 6.00214 40.2432 6.39615 40.9613C7.30295 41.5899 8.52684 41.1428 9.51692 40.948C10.1936 40.5542 11.1256 41.4862 10.0663 41.7286C9.13398 41.9467 8.30435 42.3933 7.44671 42.7839C6.57382 42.9351 6.02342 43.6557 5.21915 43.9541C4.49915 44.77 5.83948 45.3462 6.54809 45.2502C7.76522 45.4324 5.8067 46.879 7.1032 47.0594C8.58102 47.4462 7.09147 49.0344 7.04551 49.9701C5.79211 54.3953 5.42812 59.0217 5.42017 63.6021C5.52334 68.7885 6.41722 74.0381 8.63675 78.7653C8.99815 79.4988 9.52038 80.1612 9.53169 81.0111C9.88782 83.1169 10.2402 85.2332 10.8884 87.2741C11.4182 87.345 12.5506 88.1676 11.4164 88.2071C10.5448 88.0187 9.6075 87.443 8.74235 88.0126C7.83088 88.6793 7.12084 89.6239 6.55257 90.5893C5.95347 91.7557 6.02007 93.1195 6.38602 94.3435C7.03142 97.1671 7.70618 99.9848 8.33961 102.811C8.72823 104.187 9.14675 105.613 9.96284 106.799C10.6902 107.308 11.4242 106.576 12.0808 106.311C13.0298 106.188 13.5526 105.173 12.857 104.418C12.291 103.715 12.296 102.806 12.0317 101.983C11.4904 99.76 10.8392 97.5662 10.1412 95.3881C9.86226 94.3401 9.48956 93.288 9.40021 92.2096C9.83706 91.1595 11.1554 91.7619 12.0004 91.3661C13.0449 90.9665 13.632 91.846 14.3242 92.3953C15.2821 92.2676 16.1842 92.6189 16.976 93.1941C17.9918 93.684 19.2831 92.3957 23.17 102.071C21.9901 102.617 21.8677 95.1293 11.9776 95.0343C11.4278 95.823 11.7928 96.4897 11.9827 97.3023C12.2814 98.2379 18.4826 97.9647 19.6818 101.277C18.5961 101.063 16.8513 100.154 16.1301 101.344C15.8011 102.321 16.0202 103.373 16.0119 104.382C16.1667 106.667 16.8176 109.114 18.597 110.691C18.9231 111.018 19.8685 111.505 19.4358 110.712C19.612 109.857 21.0472 110.112 21.1099 110.902C20.9764 111.516 20.2826 112.24 21.1463 112.749C21.8863 113.073 22.6505 113.407 23.4442 113.592C24.0131 113.131 25.0642 113.248 25.1173 114.173C26.3463 116.655 27.8867 118.984 28.9222 121.561C29.3641 122.64 29.7953 123.728 30.3611 124.751C29.4252 124.22 28.7358 125.473 27.8183 125.321C26.9385 125.14 26.0535 125.066 25.1609 125C24.0131 124.856 22.7791 124.257 22.4285 123.076C21.9071 121.541 21.5207 119.947 21.3132 118.339C21.241 117.256 21.5994 116.204 21.6175 115.123C21.35 114.176 19.4991 114.986 19.6846 114.115C20.5927 113.525 19.7881 112.771 19.4047 112.137C17.9574 110.007 15.8754 108.404 14.3361 106.352C13.6617 105.581 12.7316 106.358 12.1188 106.791C11.3405 106.958 10.7125 107.824 11.3186 108.527C12.484 109.743 13.6983 110.909 14.9556 112.031C15.8347 112.724 16.4005 113.676 17.1913 114.44C18.1468 114.745 18.096 115.662 17.8583 116.465C17.7709 119.312 18.4631 122.134 19.4656 124.784C19.9961 126.038 21.071 126.979 22.317 127.506C23.9809 128.301 25.854 128.416 27.6568 128.629C28.7663 128.554 29.8627 128.417 30.9035 127.992C31.9985 127.473 32.1985 128.842 32.2786 129.594C33.7007 134.34 36.0613 138.736 38.4047 143.084C39.2861 144.571 40.3393 145.947 41.418 147.297C40.9862 148.226 39.7089 147.392 39.0536 148.098C37.0886 149.015 35.3057 150.26 33.5578 151.526C30.7273 152.686 27.9931 154.159 25.6778 156.166C25.53 155.252 24.3757 155.281 23.6973 155.542C18.7519 156.631 13.9584 158.281 9.07527 159.597C8.5938 159.778 7.29571 159.815 7.32473 159.975C8.07057 160.166 8.735 162.006 7.79834 161.987C7.12072 161.729 6.88607 160.462 6.01634 160.783C5.14801 161.477 5.68848 163.013 6.70885 163.266C9.9023 163.71 13.0677 162.729 16.0932 161.815C18.1147 161.22 20.1283 160.598 22.1261 159.929C22.3887 160.776 21.4008 161.304 21.2485 162.083C19.8856 165.198 19.7293 168.707 20.3264 172.018C20.788 174.861 21.6736 177.629 22.3767 180.405C21.9958 181.34 20.8091 180.36 20.2694 181.041C19.1138 182.703 17.635 184.113 16.0702 185.396C14.2997 186.924 12.3949 188.341 10.9213 190.17C10.2058 191.292 11.3378 192.513 12.4264 192.702C12.7148 193.222 13.3984 193.641 13.4924 192.75C14.0328 192.023 15.2913 192.582 15.7126 191.679C15.9517 190.809 16.6968 190.4 17.4027 189.951C19.5912 188.199 21.741 186.282 23.1106 183.807C23.4356 182.624 24.7778 183.957 24.5236 184.746C24.3303 185.698 24.3928 186.673 24.9447 187.502C26.9616 191.191 29.8179 194.351 32.7648 197.331C35.6719 200.189 38.7907 202.909 42.3764 204.902C43.4444 205.465 44.5679 205.93 45.7351 206.247C47.0434 206.162 47.8535 207.373 48.6803 208.186C49.2362 209.056 50.1489 208.843 50.866 208.37C51.5807 208.593 52.0182 210.005 52.9795 209.192C53.6729 208.834 54.8434 208.767 54.9865 207.837C54.8748 206.867 54.4582 205.95 54.1631 205.021C51.0214 196.291 45.059 188.923 41.6555 180.312C41.4883 178.641 41.6877 176.96 41.6837 175.285C41.7815 172.301 41.8908 169.308 41.659 166.327C42.3716 165.499 43.1135 164.659 43.1859 163.518C44.3234 159.811 45.6514 156.096 45.8545 152.191C46.7571 151.948 47.1547 153.067 47.9488 153.224C49.9116 154.018 51.2575 155.774 53.1595 156.68C55.3234 157.983 57.4703 159.314 59.6754 160.548C61.8352 161.836 64.0211 163.134 66.4446 163.876C68.5318 164.675 70.4803 165.805 72.6117 166.499C73.785 167.016 75.0129 167.403 76.2806 167.603C77.5205 167.885 78.7754 168.257 80.055 168.23C81.2091 167.976 82.3474 167.646 83.5355 167.63C84.7483 167.364 85.8618 166.762 87.0998 166.586C88.1528 166.357 89.0337 165.709 90.0749 165.446C91.2156 164.99 92.3363 164.497 93.4997 164.096C94.3345 163.664 95.3616 163.211 95.724 162.283C96.4318 161.311 97.5739 160.754 98.2342 159.731C99.1625 158.653 100.371 157.821 101.079 156.563C101.691 155.564 102.365 154.603 103.124 153.713C103.968 152.412 104.716 151.047 105.647 149.805C106.273 149.114 106.311 147.45 107.372 147.452C108.036 147.998 108.203 148.946 108.739 149.614C109.4 150.769 109.785 152.049 110.135 153.319C110.875 155.109 111.379 157.005 112.356 158.693C113.083 158.353 114.052 158.477 114.391 159.281C114.974 160.148 113.937 160.797 113.198 160.224C112.06 159.732 111.242 160.794 111.083 161.804C109.997 164.87 108.836 167.913 107.692 170.96C106.004 175.442 104.141 179.858 102.112 184.199C100.342 188.107 98.4571 191.964 96.5122 195.789C96.3933 196.482 95.2828 197.645 96.2411 198.064C97.3201 198.613 95.9046 199.325 96.3397 200.029C96.8579 200.694 97.655 201.103 98.3311 201.597C99.2566 201.912 100.17 200.954 100.596 200.23C100.751 199.339 98.9586 199.057 99.7628 198.028C100.417 197.037 101.2 196.135 101.797 195.1C106.223 188.388 109.639 181.019 111.825 173.295C112.959 169.605 114.051 165.901 114.96 162.15C114.837 161.644 115.305 160.951 115.426 161.796C116.17 163.6 116.796 165.451 117.343 167.323C116.007 168.437 116.768 169.139 117.007 170.984C117.284 172.211 116.534 174.002 117.784 173.734C118.622 173.839 118.616 174.855 118.728 175.492C119.08 177.853 118.848 180.261 118.356 182.584C117.692 182.984 116.681 182.35 116.227 183.274C113.265 185.966 111.264 189.488 109.568 193.054C109.189 194.1 108.667 195.117 107.808 195.854C104.49 199.376 101.302 203.028 98.4182 206.911C97.6554 207.382 97.6665 208.487 98.6148 208.71C99.2146 209.189 99.6209 210.359 100.584 209.925C101.74 209.333 102.569 208.281 103.586 207.495C104.442 206.829 105.23 205.979 106.173 205.483C107.163 205.617 107.712 206.668 108.707 206.882C110.615 207.753 112.644 208.352 114.689 208.801C115.656 208.845 116.008 207.825 116.641 207.32C117.794 206.641 116.936 205.345 116.366 204.58C116.085 204.196 114.912 202.665 116.152 203.201C118.737 204.17 121.343 205.352 124.155 205.421C124.958 205.387 126.007 204.544 125.551 203.715C125.557 202.606 126.623 203.183 127.179 203.498C128.167 203.817 129.233 203.993 130.266 203.933C131.188 203.58 131.504 202.457 131.613 201.578C131.485 200.971 130.693 200.022 131.632 199.678C132.581 199.52 133.283 198.715 133.409 197.781C133.155 196.714 133.81 195.246 135.119 195.537C136.877 196.556 138.618 197.627 140.408 198.602C142.177 199.583 143.93 200.6 145.664 201.633C146.696 201.918 147.524 200.879 148.352 200.41C149.271 199.763 148.436 198.782 147.765 198.362C144.932 195.975 141.567 194.346 138.4 192.462C137.314 192.273 137.342 191.217 138.028 190.579C138.983 188.932 139.722 187.162 140.353 185.369C140.55 184.294 141.196 183.352 141.227 182.251C141.126 181.654 140.688 180.064 141.833 180.503C144.032 182.11 146.632 183.093 148.818 184.728C149.599 185.519 150.538 184.683 151.233 184.251C152.216 183.954 152.396 182.74 151.506 182.211C149.294 179.894 146.2 178.776 143.571 177.031C142.614 176.445 141.662 175.853 140.708 175.262C139.757 176.061 139.49 173.867 140.76 174.379C141.791 174.287 142.031 173.117 141.979 172.276C142.069 171.652 141.515 170.708 141.764 170.32C142.609 170.398 143.103 171.224 143.881 171.496C145.868 172.603 148.431 174.781 150.606 175.659C151.647 176.138 152.501 176.92 153.314 177.707C154.331 177.793 154.693 176.625 155.442 176.169C156.422 175.552 156.118 174.327 155.172 173.858C153.597 172.496 152.556 172.498 150.974 171.141C148.993 169.398 146.534 168.342 144.322 166.933C143.442 166.362 142.514 165.819 141.764 165.086C141.341 164.275 140.98 163.34 140.297 162.775C141.363 162.99 142.208 163.839 143.26 164.167C146.064 165.536 148.893 166.866 151.806 167.995C152.546 168.744 153.847 168.584 154.261 167.574C154.658 166.726 156.29 165.616 155.247 164.738C154.182 164.273 153.133 163.771 152.088 163.256C148.447 161.536 144.827 159.772 141.226 157.972C138.999 156.966 136.779 155.854 134.957 154.206C134.04 153.721 133.276 152.512 132.123 152.857C131.099 153.228 129.928 154.04 128.98 153.025C128.35 152.507 126.667 152.327 127.562 151.201C128.037 150.58 127.357 149.948 127.441 149.14C126.849 148.313 125.599 148.322 124.773 147.768C123.369 147.216 123.259 146.773 121.756 146.592C120.776 145.972 119.525 145.806 118.411 146.124C117.39 146.282 116.639 145.309 115.715 145.307C114.831 145.889 113.975 145.624 113.119 145.18C112.232 144.724 111.094 145.86 110.441 144.941C110.09 144.222 109.817 143.368 110.005 142.566C110.507 141.618 111.41 140.907 111.86 139.905C112.864 138.077 113.621 136.116 114.063 134.078C114.716 133.324 115.368 132.537 115.464 131.507C115.856 130.633 116.118 129.719 116.175 128.763C116.51 126.923 117.439 125.19 117.322 123.281C117.378 122.102 118.065 121.058 118.049 119.865C118.113 118.556 118.158 117.224 118.646 115.986C119.063 114.635 119.091 113.208 119.216 111.81C120.692 112.202 122.228 112.812 123.772 112.386C125.743 111.944 127.532 110.777 128.661 109.106C129.282 108.157 129.283 106.959 129.619 105.9C129.737 104.364 129.588 102.822 129.663 101.283C129.677 99.2934 129.512 97.2828 129.94 95.322C130.14 94.1108 130.373 92.9039 130.685 91.7158C130.336 90.8063 129.177 90.9702 128.455 90.553C127.632 90.2293 126.89 90.9354 126.885 91.7447C126.653 92.8233 126.676 93.9333 126.53 95.0231C125.552 95.6742 125.3 94.0322 125.645 93.4173C125.461 92.4429 126.128 90.6424 124.824 90.3808C123.946 90.5307 122.835 89.9862 122.147 90.6947C121.637 91.3488 122.068 92.1896 122.027 92.9331C122.078 93.7297 122.083 94.5336 121.964 95.3248C121.175 95.7014 121.878 97.8002 122.488 96.7401C123.262 96.1738 123.365 97.2099 123.166 97.6969C123.722 98.3703 124.774 98.7015 125.316 97.7256C125.674 97.3152 125.581 95.5907 126.214 96.6672C126.274 97.7318 126.329 98.8029 126.379 99.8725C126.378 101.477 126.34 103.087 126.41 104.686C126.201 105.979 126.129 107.484 125.04 108.391C124.225 109.077 123.063 109.378 122.008 109.236C121.139 109.047 120.01 108.513 120.055 107.474C120.181 106.649 120.29 105.818 120.174 104.985C120.141 102.979 120.503 100.994 120.571 98.9927C120.385 97.8625 118.49 97.5441 118.099 98.7086C117.747 99.8855 117.577 101.117 117.419 102.336C117.224 104.022 117.132 105.726 116.755 107.386C116.015 108.401 116.325 109.736 116.013 110.889C115.845 112.286 115.775 113.693 115.674 115.096C114.888 116.053 115.035 117.364 114.836 118.507C114.913 119.693 114.604 120.828 114.187 121.912C114.005 122.998 114.268 124.195 113.662 125.182C113.422 126.27 113.224 127.37 112.889 128.432C112.678 129.667 112.319 130.92 111.469 131.881C110.194 133.832 109.882 136.21 108.705 138.212C108.014 139.605 106.894 140.717 106.178 142.094C105.364 143.557 104.439 144.954 103.433 146.293C102.724 147.423 102.447 148.842 101.39 149.741C100.657 151.055 99.8838 152.357 98.8843 153.49C97.0368 156.041 94.9749 158.535 92.278 160.239C91.6098 160.846 91.1215 161.741 90.1287 161.862C88.7113 162.17 87.3975 162.803 86.1066 163.436C84.6526 163.894 83.1587 164.235 81.7309 164.767C80.756 165.073 79.7311 165.331 78.7248 164.992C77.6051 164.92 76.6669 164.246 75.5518 164.165C74.3509 163.965 73.3891 163.154 72.206 162.864C71.2056 162.354 70.0656 162.216 69.1005 161.623C67.8739 160.862 66.3178 160.805 65.1417 159.933C63.2636 158.938 61.4935 157.756 59.6279 156.737C57.5397 155.473 55.4031 154.286 53.3451 152.974C52.0131 151.815 50.5493 150.804 48.9815 149.99C47.9609 149.493 47.655 147.771 46.382 147.948C45.8079 147.864 46.2614 146.885 45.6134 146.601C44.2569 145.214 43.11 143.635 41.8632 142.159C40.9869 141.323 40.7267 140.071 40.0848 139.079C39.5622 137.806 38.8601 136.618 38.2041 135.414C37.4312 133.632 36.705 131.825 36.0662 129.992C35.5942 128.283 35.0286 126.599 34.2434 125.004C33.1621 122.655 32.097 120.297 31.0046 117.953C29.2535 114.585 27.5187 111.209 25.8842 107.783C25.021 107.262 25.7488 106.07 26.6434 106.274C27.4544 106.114 28.8021 105.957 28.6672 104.842C28.2726 102.798 27.9779 100.728 27.4846 98.6999C28.7009 98.6736 30.2067 98.8714 30.8133 100.077C31.4814 100.948 31.2266 102.648 32.3587 103.039C33.1368 102.946 33.2699 103.535 33.1242 104.138C33.6685 104.892 34.8129 104.763 35.5494 105.282C37.0401 105.934 38.7607 106.49 40.3779 105.976C41.2084 105.396 42.1807 104.989 43.215 105.18C48.0256 105.214 52.936 104.816 57.4656 103.097C58.2604 103.082 58.9859 102.104 58.3274 101.453C58.027 100.709 57.2883 99.9006 56.4063 100.305C53.6189 101.417 50.6022 101.83 47.6276 102.113C45.043 102.329 42.4356 102.375 39.8853 102.889C38.6052 103.057 37.5997 102.087 36.4395 101.744C35.2633 101.55 34.3572 100.775 34.2913 99.5427C33.9076 98.482 33.0121 97.6041 32.9582 96.4249C32.6744 95.4157 32.8634 94.0063 31.9167 93.3517C31.1648 93.1669 30.637 91.9001 31.7533 91.8544C32.5072 91.8611 33.1079 91.1478 32.8774 90.4137C32.651 89.4901 33.6705 88.9636 34.43 89.4015C35.4629 89.8055 36.4001 88.7562 37.4414 89.0811C38.4031 89.133 39.3446 88.5921 40.3002 88.9392C41.7542 89.3056 43.0612 88.221 44.4965 88.1881C44.9521 88.0902 46.3789 87.8061 45.3059 88.3924C44.7022 89.1616 42.8907 89.4296 43.1867 90.5765C43.8862 91.2562 43.108 91.9407 43.141 92.7008C43.4632 93.7665 43.9237 94.9133 44.8505 95.609C45.6722 96.2661 46.7639 95.893 47.6711 95.6641C48.4894 95.575 48.5864 94.419 49.453 94.5176C50.4431 94.9171 51.5857 94.7435 52.2082 93.7841C53.0416 92.7361 53.5553 91.484 54.1608 90.3034C54.3954 89.3746 53.2994 89.0754 52.7216 88.6623C52.0461 87.9782 50.6673 87.4741 50.1976 88.6506C49.6891 89.5218 49.4933 90.5175 49.0236 91.3984C48.8707 92.0391 47.2807 91.9254 48.2957 91.4356C49.3688 91.214 48.9606 89.9354 48.259 89.5408C47.9474 88.5061 49.8464 89.3193 49.3356 88.2413C48.3921 87.4693 49.9346 87.3072 50.5304 87.4045C51.8015 87.0359 53.1408 87.0818 54.4455 87.1559C56.3276 87.0905 58.1492 86.5454 59.8949 85.8879C60.8532 85.6804 61.5009 86.5331 61.8733 87.2796C62.5773 88.4564 62.8557 89.8112 63.0361 91.15C63.341 92.1622 63.3289 93.2119 63.178 94.2476C63.0668 97.1888 63.4118 100.138 64.099 103C63.917 103.973 65.1506 104.209 65.8753 104.072C66.8229 104.344 67.8998 103.757 67.6199 102.659C67.4419 101.251 67.3887 99.8322 67.2064 98.4218C67.0479 96.8634 66.933 95.2885 67.1 93.7257C66.6313 92.23 66.7609 90.62 66.269 89.129C66.2046 88.2988 65.2484 87.0242 66.2741 86.505C67.253 86.2223 68.2665 86.048 69.2671 85.8393C70.8433 85.5759 72.4349 85.3971 74.0256 85.2559C74.9706 85.3758 74.7274 86.5092 74.7692 87.1711C74.9522 88.6315 75.6015 89.9803 76.0977 91.3527C76.6758 92.7187 77.6589 93.9092 78.938 94.6816C79.609 95.2445 80.3474 96.0076 81.3188 95.7553C82.0854 95.742 83.5076 95.4095 82.7692 94.4022C82.2532 93.8865 81.2593 93.6948 81.2309 92.8191C81.1707 91.8693 80.2481 91.4578 79.8113 90.7479C79.1585 89.5816 78.8092 88.2806 78.2758 87.0626C77.844 85.9211 78.129 84.7198 78.133 83.5539C78.0435 82.5283 78.9727 82.0011 79.6791 81.4712C80.5313 80.8584 81.5946 81.4728 82.5377 81.1813C83.5127 80.8915 84.5071 80.6591 85.5358 80.6677C86.3054 80.7378 87.2073 79.7437 87.8709 80.5705C88.661 81.316 87.838 82.4431 86.8817 82.2479C86.0561 82.7845 86.5465 83.8777 86.833 84.59C87.1893 85.3206 87.336 86.2825 86.4952 86.7445C85.5809 87.535 86.9184 88.4303 87.7135 88.5006C88.7407 88.8045 89.8544 88.5264 90.8538 88.9441C92.473 89.2052 94.1519 88.2227 94.7751 86.7305C95.7222 85.1767 96.2356 83.3964 96.4492 81.6082C96.7842 80.6091 95.7343 80.0481 94.8726 80.3143C93.9365 80.179 93.0667 80.5789 92.1522 80.6231C91.166 80.5965 90.1673 80.2887 89.1923 80.5755C88.2989 79.889 89.8361 79.8734 90.341 79.8644C91.232 79.4675 92.1762 79.7746 93.107 79.745C93.8519 79.5382 94.5861 79.1986 95.3882 79.2669C96.5846 79.3075 97.8175 79.4764 98.9635 79.0194C99.9882 78.6662 101.139 79.0713 102.139 78.5803C103.551 78.2616 105.075 78.3164 106.416 78.886C107.263 79.8486 107.457 81.1818 107.994 82.3106C108.509 84.1673 108.204 86.13 107.785 87.9688C107.207 88.9153 107.763 90.0364 108.841 90.2263C109.513 90.4748 110.546 91.1859 110.906 90.1369C111.376 88.2802 112.109 86.4065 111.917 84.4556C112.301 83.5398 113.538 85.0976 113.963 83.9381C114.95 83.0179 114.892 84.6766 114.796 85.2892C114.789 87.11 114.686 88.9449 114.723 90.7567C115.18 91.3609 116.408 91.3068 116.202 92.3803C116.114 93.2241 116.706 94.3719 117.707 93.9287C118.375 93.5879 119.292 93.7124 119.761 93.043C119.995 92.3349 119.544 91.4919 120.096 90.8127C120.974 89.0069 120.929 86.9136 120.712 84.9637C121.415 84.3186 122.272 85.1031 122.991 85.2843C123.813 85.5507 124.492 83.7339 124.884 85.0134C125.013 85.9965 125.574 86.8572 126.117 87.668C126.521 88.5803 127.541 88.6547 128.208 89.2398C129.038 90.1204 130.8 89.138 130.628 87.9588C130.633 87.5392 129.257 87.053 129.76 86.9849C130.595 87.7072 131.072 86.3075 130.691 85.6723C130.901 84.7356 131.099 83.8016 130.774 82.8573C130.679 81.8325 130.671 80.8105 130.66 79.7809C130.839 78.4102 130.882 76.9742 130.292 75.6854C130.166 75.1114 129.425 73.9667 129.512 73.8425C130.54 74.4188 131.682 72.8222 130.549 72.1664C129.603 71.5214 129.413 70.1647 128.328 69.7402C127.246 69.4863 126.108 69.6269 125.004 69.6049C124.549 69.6921 123.379 70.3776 123.791 69.3922C124.39 68.736 124.287 67.8352 124.418 67.024C125.102 63.8546 126.497 60.7455 126.177 57.4373C126.083 56.3267 125.785 55.3056 126.258 54.2725C126.25 52.9875 125.421 51.9051 125.114 50.6834C123.534 46.3048 122.375 41.7659 120.412 37.5309C121.48 37.41 121.298 36.048 120.792 35.4287C119.611 32.9894 118.239 30.6308 117.347 28.0637C115.359 23.4056 112.366 19.2275 108.978 15.4728C107.016 13.4402 104.969 11.4547 102.642 9.83362C100.06 8.11226 97.0445 7.24589 94.0928 6.38108C91.2415 5.54452 88.4204 4.61176 85.6163 3.63361C84.4993 3.25205 83.3432 3.05263 82.1705 3.06047C80.7366 2.78445 79.4876 1.92487 78.0266 1.73066C76.2956 1.37611 74.503 1.34943 72.7553 1.5969C72.3938 2.40482 71.3741 2.28153 71.4393 1.34694C70.8935 0.769147 69.9948 0.917971 69.2753 0.772382C68.2298 0.693505 67.1832 0.80125 66.1371 0.804578C65.0868 0.431213 64.0838 -0.139442 62.9368 -0.153903C62.6468 -0.184688 62.3534 -0.207005 62.0652 -0.235461L62.0644 -0.233836ZM129.752 87.0171C129.867 86.7605 129.549 87.0526 129.752 87.0171ZM81.0021 96.0159C81.113 96.1207 81.1009 96.1094 81.0021 96.0159ZM67.1039 160.796C67.4776 160.476 67.2465 161.22 67.1039 160.796ZM91.2931 161.112C91.4276 161.558 90.8447 161.013 91.2931 161.112ZM49.3863 8.50178C49.2241 8.83113 49.0367 8.34353 49.3863 8.50178ZM33.3662 10.0805C33.1987 10.4778 31.8224 10.9957 32.1941 10.3418C32.5633 10.1673 32.9975 10.2561 33.3662 10.0805ZM78.2436 10.0805C79.0895 10.892 76.8207 11.5978 77.5032 10.3707C77.6996 10.1821 77.9779 10.1043 78.2436 10.0805ZM40.8458 11.5541C41.3876 12.2848 40.9679 13.3455 40.0445 13.4594C39.5968 13.6488 38.4631 14.2567 38.4741 14.2038C38.9959 13.5256 38.6701 12.2938 39.8323 12.1381C40.1768 11.9556 40.5307 11.7855 40.8458 11.5541ZM91.7175 12.9749C92.4336 12.9299 93.3708 14.4023 92.2532 14.3288C91.7818 14.0623 91.867 13.4185 91.7175 12.9749ZM36.6551 14.5536C37.6013 15.3055 35.7252 15.8033 35.3295 16.332C34.9892 16.6089 34.1686 17.3957 34.0384 17.23C34.582 16.3204 35.5049 15.738 36.3294 15.1096C36.4859 14.9582 36.6083 14.7673 36.6551 14.5536ZM63.4967 14.7641C63.6208 15.1894 63.0444 15.1399 63.4967 14.7641ZM83.5483 16.3428C83.7236 17.4868 82.5049 18.0447 81.8056 18.6999C81.4189 19.1133 80.8933 20.2985 80.3414 19.9551C80.5435 19.019 81.8251 18.8599 82.2312 17.986C82.6829 17.4483 83.0913 16.8762 83.5483 16.3428ZM63.2845 16.869C64.1842 16.5044 63.7968 18.4342 63.2946 17.4485C63.2437 17.2596 63.2468 17.0598 63.2845 16.869ZM77.0766 18.2899C77.8674 18.5975 77.4149 20.2325 76.6218 19.462C76.3271 19.0518 76.6336 18.4424 77.0766 18.2899ZM95.9612 19.1319C96.6773 19.2489 95.5505 19.688 95.9612 19.1319ZM91.8236 19.816C91.6333 20.3942 92.254 21.8426 91.2142 21.6764C90.5575 21.0532 91.4097 20.2852 91.8236 19.816ZM64.1863 21.7631C64.3655 21.8393 64.0109 21.8262 64.1863 21.7631ZM36.7082 22.9208C36.9763 23.5742 35.8024 24.5278 35.3856 23.951C35.5753 23.3906 36.383 23.3879 36.7082 22.9208ZM75.3791 33.1299C76.2271 33.6289 75.668 34.8808 74.7971 34.9511C74.4988 35.3132 73.1688 36.1369 73.9516 35.1943C74.4658 34.5359 75.0868 33.9284 75.3791 33.1299ZM18.8845 34.4456C18.8215 34.7935 18.038 36.0469 18.1901 35.138C18.3248 34.8337 18.5666 34.5653 18.8845 34.4456ZM42.0128 34.9192C42.0407 35.4399 42.9864 36.3483 41.8417 36.2615C41.4709 36.4252 40.0427 37.0927 40.7255 36.3252C41.1602 35.8619 41.6358 35.4327 42.0128 34.9192ZM116.278 35.7612C116.866 36.766 117.374 37.8138 117.869 38.8659C117.011 39.1253 116.735 38.0186 116.683 37.3889C116.584 36.8389 116.498 36.2796 116.278 35.7612ZM61.534 37.4977C61.7683 38.0175 61.0468 37.3398 61.534 37.4977ZM61.0035 37.6557C61.3054 38.2219 60.1383 37.6958 61.0035 37.6557ZM79.2515 50.5486C81.537 49.6193 82.8082 47.3745 84.0389 45.3861C84.2065 44.8457 84.7732 43.9465 85.17 44.8825C85.4828 46.3487 87.5334 47.0515 88.6615 46.0355C89.4634 45.2699 89.3475 44.0175 90.0782 43.1967C90.7339 42.3549 91.1552 41.2456 92.1377 40.7218C92.9627 39.9814 94.3699 40.6787 93.6248 41.7481C92.9888 42.8729 93.6382 44.5784 95.0189 44.7023C95.9928 45.0803 96.8053 44.1875 97.5537 44.0535C98.2071 44.8113 98.0313 46.1835 99.2754 46.5217C100.277 47.0593 101.457 46.7522 102.426 46.3067C103.338 45.9164 103.568 47.0399 103.632 47.6864C103.981 48.8337 104.34 49.9983 104.893 51.0654C105.481 51.679 106.558 50.8822 107.065 51.6925C107.948 52.6069 108.573 53.7274 109.405 54.685C110.126 55.6488 110.798 56.6584 111.292 57.7577C110.868 58.5539 110.628 59.9677 111.195 60.5683C112.344 60.5617 112.872 61.6962 112.918 62.6796C113.212 64.2816 113.384 65.9811 114.349 67.3558C115.072 68.2533 113.878 68.5763 113.64 69.2727C113.453 70.1081 114.267 70.6913 114.352 71.4872C114.651 72.7074 114.347 73.9576 114.427 75.19C114.337 76.1577 113.129 76.0699 112.485 76.4967C111.938 76.9491 111.004 77.1309 110.832 77.9017C111.082 78.4942 111.536 79.0799 111.472 79.718C112.105 80.0959 111.901 81.4581 111.183 80.6045C110.937 79.7593 110.807 78.8813 110.371 78.0905C109.995 77.1993 109.413 76.4227 108.982 75.5623C108.279 74.865 107.242 75.6542 106.392 75.5455C105.272 75.3732 104.134 74.9474 102.99 75.2487C101.618 75.4158 100.268 75.8277 98.8736 75.7371C97.6892 75.8516 96.5305 76.3306 95.3253 76.1091C94.1205 75.945 92.9803 76.4312 91.7983 76.4987C90.651 76.3574 89.5677 76.7035 88.4606 76.8861C87.4952 76.8911 86.5018 76.8093 85.5906 77.1985C84.4049 77.4947 83.1765 77.5951 82.0061 77.9546C80.7954 78.1875 79.512 77.6002 78.3542 78.1994C77.4404 78.6703 76.4729 79.2366 75.9213 80.1142C75.8896 80.6216 77.2818 81.3244 76.2293 81.5069C75.1992 81.3439 74.268 82.0489 73.2463 81.6313C72.0422 81.6396 70.8251 81.7747 69.6239 81.9224C67.2571 82.2466 64.9394 82.9709 62.8406 84.1088C62.164 84.8339 61.3757 83.8712 61.2636 83.1963C60.5616 82.3389 59.3565 82.7004 58.4557 82.9611C56.8192 83.4355 55.1449 83.893 53.4223 83.7861C52.0786 83.7865 50.7482 83.9892 49.4239 84.1765C48.0301 84.2271 46.639 84.3462 45.2783 84.6617C44.0914 84.8907 42.8617 84.9838 41.7469 85.4748C40.6528 85.9223 39.5297 85.2537 38.4188 85.5564C36.7738 85.813 35.0897 86.1903 33.4255 85.8836C32.4013 85.8494 31.4847 86.4105 30.6896 86.9911C30.2236 87.8717 29.8715 88.8981 29.1591 89.5971C28.3182 89.8364 27.4046 89.5988 26.5374 89.6722C25.4815 89.562 25.5823 88.3767 25.4883 87.6026C24.9057 81.991 24.7498 76.255 22.9599 70.8508C22.3155 70.0278 22.8368 69.2072 23.41 68.5452C23.8025 67.618 23.5693 66.58 23.8207 65.6191C24.0629 63.7129 24.3167 61.8069 24.665 59.9164C25.6498 60.4578 26.4283 59.3094 26.5901 58.4676C27.2347 56.9156 28.0969 55.4672 28.8557 53.9701C30.1567 53.804 31.4465 53.5612 32.7281 53.2859C32.3604 54.1398 33.5072 54.7328 34.2257 54.4331C35.094 54.0212 36.1512 54.688 35.5269 55.6409C35.1473 56.5691 35.1348 57.5819 35.0205 58.5641C34.7612 59.7496 35.8278 60.6345 36.946 60.6647C38.1074 60.9603 38.7582 59.781 38.8795 58.8181C39.3358 57.4846 39.9618 56.2106 40.4582 54.8918C40.5857 55.4511 40.4616 56.3578 40.7189 57.0224C40.9962 58.1915 42.028 59.2274 43.2981 59.1658C44.6291 59.1775 45.719 58.2473 46.4171 57.2016C48.6887 54.1319 50.0668 50.4518 52.7718 47.69C53.3945 47.3061 53.8001 46.2268 54.5507 46.3683C54.386 47.4155 53.7256 48.5206 53.4668 49.6252C53.1399 50.7918 52.7548 51.9937 52.8151 53.2146C52.9349 54.3843 54.256 55.5149 55.4096 54.8261C56.6193 54.4043 56.2028 53.0644 56.662 52.1543C56.8796 51.1694 57.9253 51.2874 58.661 51.0223C59.4369 50.3476 59.9274 49.377 60.5871 48.5846C62.0515 46.602 63.3716 44.5178 64.8755 42.5634C63.9174 44.1693 62.9943 45.8826 62.832 47.7753C62.8997 48.8547 63.8006 49.846 64.9569 49.5709C66.1821 49.6252 67.0617 48.7204 67.614 47.7413C68.4245 46.5358 69.32 45.3582 70.5156 44.5033C72.5166 42.7052 74.3989 40.7799 76.4385 39.0236C75.2332 40.9269 74.0454 43.0931 74.2822 45.4169C74.4683 46.5237 75.8995 47.2922 76.8191 46.4765C78.0762 45.6026 78.6973 44.1412 79.4481 42.8746C80.2452 41.9737 81.0828 43.489 80.3015 44.074C79.5582 44.9671 78.9472 45.98 78.2027 46.8818C77.395 47.7573 76.9261 49.225 77.7207 50.2518C78.1247 50.6368 78.7356 50.6317 79.2515 50.5486ZM61.6931 39.6554C61.8854 39.9816 61.3204 39.6776 61.6931 39.6554ZM102.38 41.7077C102.646 41.8421 102.123 41.7669 102.38 41.7077ZM101.425 44.181C101.646 44.1043 101.353 44.4028 101.425 44.181ZM48.0601 44.7599C48.9089 44.8924 49.4935 45.8821 48.5779 46.4126C47.4755 47.7819 46.6174 49.327 45.8852 50.9169C46.5468 48.843 47.3463 46.8161 48.0601 44.7599ZM27.0537 46.3913C27.9562 46.2218 28.4546 47.3299 27.6313 47.8119C27.4698 48.3076 26.5426 49.3289 26.8645 48.1949C26.9477 47.5963 27.0573 46.9978 27.0537 46.3913ZM118.771 46.4964C119.119 46.5756 118.573 46.821 118.771 46.4964ZM79.3577 47.4963C79.4264 48.0468 78.9135 47.2105 79.3577 47.4963ZM32.5705 47.5489C33.0058 47.9081 32.1357 48.1679 32.5705 47.5489ZM11.2988 48.7592C11.3363 49.1491 10.986 50.5536 11.0992 49.4907C11.1645 49.2466 11.2529 49.0083 11.2988 48.7592ZM122.06 51.7062C122.181 51.9671 122.543 53.1206 122.116 52.7547C122.078 52.4064 122.218 52.039 122.06 51.7062ZM54.3727 51.8641C54.9585 51.1972 55.9254 53.0162 54.8319 52.4548C54.6862 52.3422 53.8793 52.0606 54.3727 51.8641ZM44.2938 56.3898C44.6668 56.6601 43.8899 56.6208 44.2938 56.3898ZM11.8293 56.9686C12.2746 57.061 11.5257 57.3029 11.8293 56.9686ZM36.3368 58.0738C36.8784 58.0939 38.1616 58.2305 37.9358 58.862C37.2758 58.9507 36.9769 58.084 36.3368 58.0738ZM15.3304 58.8631C16.1864 58.841 17.0231 59.6293 16.531 60.4889C16.1318 62.2036 15.9437 63.9762 15.6895 65.7016C15.3891 63.5585 15.7063 61.3629 15.2611 59.234C15.2661 59.1078 15.2912 58.9829 15.3304 58.8631ZM111.875 59.4947C112.507 59.5761 111.479 60.3636 111.875 59.4947ZM9.49527 59.9157C9.60816 60.9922 10.0466 62.1203 9.60817 63.1797C9.54392 62.0927 9.52814 61.0038 9.49527 59.9157ZM98.7727 68.7565C97.1744 68.7081 95.8357 69.7096 94.3569 70.1424C93.4746 70.7056 92.5151 71.1372 91.481 71.3155C90.2482 71.7652 89.0244 72.2467 87.735 72.5149C86.6568 72.854 85.5367 73.075 84.4015 73.014C83.3445 72.9917 82.4756 73.6868 81.4334 73.7387C80.5301 73.8672 79.2034 73.9828 79.0944 75.122C78.864 76.0828 79.523 77.2128 80.5812 77.2345C81.9258 77.4496 83.0366 76.5268 84.2886 76.2806C85.4636 76.0876 86.6857 76.2581 87.8212 75.8254C89.3437 75.3628 90.9475 75.1075 92.3669 74.3613C93.4671 74.0096 94.7861 73.9557 95.5516 72.972C96.3116 72.6575 97.2258 72.841 97.8729 72.1905C98.7926 71.4911 99.8623 71.9612 100.813 72.2848C101.878 72.4778 102.967 73.0123 104.059 72.7031C104.516 71.861 103.751 71.0027 103.676 70.1533C103.205 69.2111 101.995 69.5625 101.212 69.0989C100.433 68.7606 99.6063 68.731 98.7727 68.7565ZM99.144 71.8613C99.0204 72.2225 98.8808 71.5978 99.144 71.8613ZM95.8021 72.9138C95.9083 73.2173 95.4139 72.8373 95.8021 72.9138ZM93.5211 70.5983C93.9656 70.7677 93.4157 70.1505 93.5211 70.5983ZM96.7039 69.4406C96.7914 69.773 96.3849 69.3113 96.7039 69.4406ZM95.1125 69.9669C95.2366 70.1313 95.1007 69.7201 95.1125 69.9669ZM95.3777 70.0194C95.4857 70.2081 95.159 69.9839 95.3777 70.0194ZM120.575 71.4403C121.587 71.0997 120.956 73.2249 120.545 71.9227C120.535 71.7592 120.63 71.604 120.575 71.4403ZM99.4092 71.7034C99.7201 71.5259 99.3364 72.0282 99.4092 71.7034ZM100.895 72.0717C101.077 71.9157 100.875 72.2948 100.895 72.0717ZM126.569 72.0717C127.477 72.1428 128.407 73.1301 128.873 73.5451C128.251 74.2196 127.098 74.0468 126.546 74.8479C125.944 75.743 126.933 76.4896 127.265 77.2552C127.745 77.7811 127.565 79.1743 126.699 78.3925C126.326 77.9902 125.569 77.4486 126.372 77.0175C125.085 76.8242 124.016 77.8251 123.254 78.7358C122.025 80.1479 121.062 81.8115 120.59 83.6245C120.291 82.388 120.106 81.1288 119.868 79.8802C120.259 79.2155 121.117 78.6539 120.518 77.8122C120.952 76.9182 122.12 76.5974 122.63 75.6827C123.555 75.065 123.796 73.8852 124.709 73.2707C125.19 72.6098 126.773 73.1346 126.739 72.2524L126.668 72.1663L126.569 72.0717ZM120.044 73.2295C119.735 73.3182 118.892 74.4606 119.076 73.5666C119.324 73.3084 119.704 73.2545 120.044 73.2295ZM107.366 75.9134C107.864 75.7158 107.217 76.4048 107.366 75.9134ZM82.5935 76.0712C82.7937 76.4047 82.2008 76.1972 82.5935 76.0712ZM103.441 78.071C103.648 78.0164 103.378 78.2854 103.441 78.071ZM53.63 79.1235C52.3457 79.212 51.0715 79.3669 49.8231 79.6446C47.9853 79.754 46.0936 79.4127 44.3075 79.9935C42.7305 80.1509 41.1433 79.8529 39.5673 80.0744C37.1422 80.2606 34.8033 80.9687 32.4188 81.3846C30.6809 81.7562 29.7868 83.6021 28.0541 83.9896C27.1982 84.3309 27.4018 85.3438 28.0366 85.7913C28.4596 86.4595 29.0103 87.5809 29.9858 87.0598C31.3923 86.3624 32.6555 85.4112 33.8086 84.3555C33.6926 83.4111 35.153 84.2684 35.6928 83.9602C36.995 83.7384 38.2704 83.3633 39.5928 83.2696C41.1118 83.0122 42.6508 83.2174 44.1768 83.1646C45.265 83.102 46.2801 82.5978 47.385 82.7105C48.9703 82.7238 50.6284 83.0473 52.1447 82.4356C53.1695 82.1231 54.2331 82.7576 55.2531 82.4931C55.9422 82.0016 55.4858 81.0909 55.2934 80.4605C55.1629 79.6326 54.5905 78.8313 53.63 79.1235ZM34.215 84.228C34.3752 84.3743 34.2549 84.0036 34.215 84.228ZM50.0759 79.7023C50.4291 79.6431 49.8483 79.8977 50.0759 79.7023ZM127.153 79.8603C126.951 80.4801 129.195 84.9654 128.007 84.8924C127.317 83.0913 125.23 81.304 126.039 80.5945C126.26 80.1609 126.656 79.8577 127.153 79.8603ZM126.622 79.9656C126.974 80.0709 126.206 80.0914 126.622 79.9656ZM80.1533 81.0181C80.4093 80.7108 80.2989 81.2719 80.1533 81.0181ZM33.5254 81.3338C33.6391 81.6966 33.1931 81.1883 33.5254 81.3338ZM92.7254 81.3338C92.5227 82.5015 92.6422 83.8454 91.8285 84.8068C90.8434 85.1738 90.8275 83.5946 91.5905 83.279C92.0481 82.681 92.4471 82.0336 92.7254 81.3338ZM91.2931 83.9651C91.7752 83.5965 91.3032 84.7671 91.2931 83.9651ZM100.152 81.5443C98.48 82.031 97.2638 83.3492 96.1051 84.5648C95.824 85.4178 96.8274 85.8508 97.2731 86.3993C97.8734 87.2657 99.0634 87.1584 99.6056 86.2911C100.539 85.2683 101.604 84.0004 101.331 82.5163C101.244 81.9455 100.807 81.3528 100.152 81.5443ZM37.9282 82.9125C38.3524 82.7834 38.0099 83.3923 37.9282 82.9125ZM39.3074 82.9125C39.5622 83.0523 39.1318 82.8975 39.3074 82.9125ZM124.872 82.9125C125.35 82.5533 125.145 83.5313 124.872 82.9125ZM84.9275 83.3335C83.7682 83.6263 83.1916 84.7755 82.2525 85.4051C81.6591 86.1182 82.5197 86.9062 83.1319 87.2355C84.0202 87.7912 84.8676 86.9958 85.2212 86.2177C85.9036 85.2875 85.3909 84.2251 84.9275 83.3335ZM85.6171 85.5438C85.9196 85.5505 85.4142 85.3217 85.6171 85.5438ZM35.8064 83.7545C35.7861 84.0012 35.5715 83.6232 35.8064 83.7545ZM13.8451 85.0701C15.0941 85.3852 15.3372 86.7376 16.012 87.5124C16.9793 88.0717 17.5916 87.0824 18.1186 86.5283C19.0764 86.1216 20.0519 87.3332 19.5526 88.1902C18.9595 88.7927 18.3064 89.4389 17.5067 89.7572C16.5037 89.8848 15.7235 88.9537 14.9116 88.49C13.9192 87.7842 14.8106 86.5589 14.4074 85.6416C14.3663 85.309 13.8075 85.415 13.8451 85.0701ZM40.9519 85.8069C41.3175 85.5361 41.1691 86.2483 40.9519 85.8069ZM34.7985 86.2279C35.204 86.0941 34.8035 86.666 34.7985 86.2279ZM127.401 84.8555C129.947 84.5127 126.44 88.9561 126.396 88.0597C125.595 87.3312 127.289 84.8764 127.401 84.8555ZM129.858 87.754C129.771 88.2339 129.531 87.4026 129.858 87.754ZM129.328 87.8066C129.883 87.8272 129.121 88.0919 129.328 87.8066ZM129.805 88.3854C130.239 88.2081 129.719 88.8198 129.805 88.3854ZM55.3806 88.6485C54.9745 89.8375 55.2301 91.1016 55.2074 92.3258C54.6714 93.3256 56.3212 94.3765 56.8519 93.2093C57.5141 92.3326 58.0471 91.3671 58.6146 90.4316C58.9321 89.3329 57.378 89.2223 56.6484 88.9909C56.2319 88.8572 55.8016 88.7678 55.3806 88.6485ZM55.3806 93.6478C55.695 93.8134 55.1635 93.62 55.3806 93.6478ZM49.9168 91.0166C50.3633 91.4729 48.948 91.479 49.8103 91.0867L49.9168 91.0166ZM109.276 91.0166C107.943 92.1501 105.925 92.0572 104.708 93.3646C103.911 93.7579 103.041 93.1627 102.203 93.3959C99.2728 93.6508 96.4732 94.7481 93.5182 94.8098C91.4103 95.1349 89.3288 95.8814 87.1669 95.6229C86.2385 95.7561 84.8441 95.2025 84.3787 96.2862C83.9434 97.0878 83.8367 98.4955 85.152 98.2941C86.288 98.1615 87.4236 98.2202 88.5636 98.2669C90.0403 98.3293 91.513 98.1192 92.9194 97.6765C94.7974 97.2659 96.7352 97.2175 98.6027 96.7457C100.709 96.29 102.867 95.8945 105.028 96.1092C106.093 95.9909 106.6 94.8368 107.637 94.6409C108.721 94.3901 109.679 93.823 110.565 93.1753C111.589 92.5023 110.776 91.4479 109.805 91.4035C109.601 91.3213 109.401 91.201 109.276 91.0166ZM39.6788 92.0691C38.7588 92.0485 36.868 92.6715 37.3489 93.7856C37.8632 94.6695 38.9329 95.024 39.8634 94.6585C40.7302 94.6984 41.5796 95.8305 42.3163 94.745C43.2755 93.7017 42.1955 92.4298 41.014 92.3566C40.5711 92.2519 40.1262 92.1532 39.6788 92.0691ZM105.085 93.8057C105.973 94.2505 104.054 94.7032 104.745 93.8934C104.848 93.8338 104.968 93.8132 105.085 93.8057ZM29.4408 94.4372C30.0503 94.4629 29.9926 95.5199 29.4789 94.8579C29.4074 94.7321 29.3831 94.5735 29.4408 94.4372ZM26.8415 94.5424C27.0212 94.6001 26.7714 94.7345 26.8415 94.5424ZM26.5763 94.9108C26.7919 95.1034 28.1533 95.4088 27.2638 95.4533C26.9697 95.3876 26.6894 95.1961 26.5763 94.9108ZM19.7333 101.489C20.3676 103.304 20.8041 105.183 21.4893 106.982C22.3044 107.351 22.0798 109.161 21.0566 108.378C20.3169 107.663 20.0882 106.584 19.8703 105.617C19.6337 104.254 19.701 102.864 19.7333 101.489ZM63.2315 105.015C61.703 106.858 60.6293 109.052 58.9035 110.737C58.429 111.561 59.1374 112.439 59.0413 113.304C59.0774 115.269 60.132 117.443 62.1159 118.097C63.0924 118.115 63.4244 117.002 64.1111 116.509C64.779 115.635 63.707 115.218 63.1332 114.817C62.6078 113.98 62.4618 112.848 62.8022 111.914C63.2933 111.052 64.1147 110.415 64.6153 109.542C65.134 108.728 65.7229 107.91 66.055 107.011C65.9695 106.156 64.9478 105.99 64.3707 105.543C64.0197 105.316 63.6511 105.08 63.2315 105.015ZM121.742 109.593C121.909 109.393 121.787 109.848 121.742 109.593ZM86.2006 110.119C84.5301 110.855 82.4888 110.673 81.0506 111.93C80.2057 112.612 78.7597 113.158 78.651 114.349C78.8692 115.187 79.8821 115.215 80.4915 115.642C81.3886 116.286 82.2578 115.527 82.6379 114.713C83.3633 113.792 84.7069 114.11 85.6858 113.668C86.3351 113.584 87.5354 113.418 87.1808 112.463C86.8679 111.677 86.5279 110.893 86.2006 110.119ZM68.8544 112.908C67.9924 113.1 66.1783 112.598 66.1251 113.815C66.4025 114.712 66.5783 115.945 67.5058 116.394C68.4584 116.577 69.4819 116.324 70.4066 116.192C70.429 114.941 71.8558 116.037 72.5555 115.805C73.8035 115.536 73.052 113.906 72.2321 113.551C71.2398 112.88 70.0117 112.822 68.8544 112.908ZM70.1275 115.96C70.6174 115.88 69.9151 116.356 70.1275 115.96ZM66.3082 117.013C65.4258 117.704 64.4999 118.475 64.137 119.571C64.6795 120.393 65.9673 120.734 66.6419 119.871C67.1541 119.402 68.3228 118.857 67.821 118.024C67.4215 117.575 66.8457 117.265 66.3082 117.013ZM72.3024 118.171C71.3794 118.678 69.5315 118.799 69.5489 120.103C69.9686 121.044 70.713 121.856 70.7588 122.948C71.0622 124.686 70.6593 126.469 70.9144 128.201C71.4288 129.158 72.6627 128.825 73.5364 128.75C74.7683 128.753 74.8014 127.507 74.638 126.613C74.7623 124.025 74.6193 121.245 73.1401 119.013C72.9042 118.701 72.7093 118.287 72.3024 118.171ZM76.9175 118.592C76.2345 118.523 75.049 118.478 75.1072 119.46C75.1139 122.234 76.2865 124.933 78.0644 127.045C78.8777 127.465 79.8844 127.101 80.7132 126.964C81.2384 126.012 80.0639 125.171 79.8815 124.257C79.2358 122.714 78.8329 121.058 78.8061 119.387C78.6919 118.39 77.6278 118.58 76.9175 118.592ZM83.6014 128.064C83.0495 128.763 81.9058 128.175 81.3922 129.051C80.4406 129.75 79.3456 130.22 78.3377 130.832C77.1349 131.126 76.2355 129.653 75.0205 130.101C74.0171 130.248 73.5711 130.289 72.5714 130.414C71.6045 130.296 69.8686 130.991 68.9564 131.409C67.1685 132.001 65.4527 132.79 63.8135 133.71C62.9763 133.681 62.0736 132.99 61.3507 133.783C60.7674 134.422 59.4881 134.386 59.3075 135.306C59.415 136.198 60.3312 136.678 60.836 137.361C61.7604 137.946 62.9647 137.675 63.941 138.255C64.8017 138.249 65.6805 138.226 66.5226 138.49C67.334 138.727 68.1778 138.731 69.009 138.648C73.2215 138.618 77.449 139.215 81.6502 138.717C83.3784 138.405 85.2057 138.009 86.5678 136.836C87.3565 136.207 88.6415 136.613 89.2629 135.706C89.8833 134.665 90.9463 134.744 91.6989 134.067C92.6604 133.222 93.195 133.384 94.5316 132.985C95.6655 132.562 96.4787 131.689 97.3337 130.886C98.171 130.243 97.3664 129.381 97.0876 128.678C96.4405 128.103 95.1889 127.956 94.6975 128.815C94.1788 129.604 93.2133 129.569 92.4428 129.222C89.8307 128.579 87.1399 128.33 84.4717 128.04C84.1816 128.034 83.8896 128.044 83.6014 128.064ZM97.7648 129.011C98.1024 129.284 97.8433 128.519 97.7648 129.011ZM98.1892 129.169C98.6833 129.259 97.8347 129.547 98.1892 129.169ZM83.3455 132.11C84.7675 132.383 86.3514 132.073 87.792 132.221C86.3169 132.37 85.3322 133.802 83.8293 133.853C82.6408 134.273 81.306 133.327 80.1941 134.189C77.9972 135.127 75.5496 134.814 73.2252 135.012C71.9906 135.112 70.7526 135.165 69.5168 135.249C68.8252 135.501 69.4055 134.582 69.8406 134.844C70.8985 134.562 71.9932 133.862 73.1048 134.329C74.0791 134.74 74.8353 133.694 75.8307 133.97C76.7755 134.33 77.3809 132.416 78.1261 133.531C78.4337 134.446 79.7058 134.451 80.3141 133.835C81.44 133.189 82.4842 133.104 83.3455 132.11ZM88.3225 132.274C89.0553 131.629 89.7405 133.407 88.6294 132.879C88.4374 132.741 88.3293 132.506 88.3225 132.274ZM84.7684 143.167C82.4562 143.404 80.1717 143.876 77.8487 144.014C76.7494 144.583 75.1809 143.799 74.3201 144.71C74.0931 145.591 73.3934 146.647 73.7885 147.505C74.6184 148.091 75.6954 147.651 76.6367 147.813C79.3579 147.902 82.0613 147.369 84.6458 146.558C85.6189 146.8 86.0411 145.458 85.4407 144.832C85.225 144.275 85.1654 143.641 84.7684 143.167ZM114.952 152.219C115.543 152.576 114.139 152.582 114.921 152.237L114.952 152.219ZM102.115 154.166C102.44 154.441 101.734 154.547 102.115 154.166ZM35.2759 156.165C34.4511 157.735 33.8227 159.402 33.3662 161.112C32.7677 160.474 31.3878 160.448 31.1172 159.709C31.6929 158.83 32.6952 158.34 33.4231 157.594C34.0304 157.105 34.6489 156.629 35.2759 156.165ZM96.2264 156.955C96.2805 157.283 95.8559 157.04 96.2264 156.955ZM120.31 157.27C119.918 157.272 118.877 158.274 119.032 157.537C119.416 157.285 119.92 157.51 120.31 157.27ZM14.5347 162.48C10.4585 165.168 6.65145 168.244 2.486 170.801C1.54481 171.52 0.260495 172.166 0.0177553 173.429C-0.254339 174.343 0.528937 175.131 1.41163 175.196C2.41597 175.388 3.35656 174.909 4.22052 174.478C5.57373 173.98 6.69779 173.069 7.96382 172.405C11.3797 170.409 14.6982 168.108 17.2244 165.038C17.5422 164.102 16.232 163.732 15.7203 163.152C15.3476 162.892 14.947 162.672 14.5347 162.48ZM36.8142 162.796C36.628 163.688 37.2368 164.97 36.105 165.447C35.2264 166.087 34.4637 165.208 35.111 164.407C35.2167 163.702 35.3869 162.81 36.3529 163.107C36.5516 163.106 36.749 162.986 36.8142 162.796ZM120.946 163.743C121.747 163.513 121.347 165.264 121.06 164.182C121.046 164.033 121.043 163.869 120.946 163.743ZM122.803 164.269C122.606 164.667 122.304 164.238 122.803 164.269ZM24.7196 165.427C25.5963 165.496 24.2893 166.841 24.6275 165.745C24.676 165.646 24.7252 165.541 24.7196 165.427ZM44.7712 167.9C43.8497 168.163 42.2943 167.68 41.9237 168.835C41.8836 169.777 42.3229 170.67 42.5374 171.577C43.5828 174.633 45.4295 177.322 46.9979 180.124C49.6161 184.535 52.3377 188.887 54.799 193.388C56.5078 196.239 58.3697 199.02 59.7322 202.058C60.2541 203.037 60.2352 204.217 60.6687 205.182C61.312 205.838 62.2908 205.483 63.0998 205.558C64.3102 205.537 64.1382 204.097 63.8984 203.295C63.5934 200.812 62.6024 198.346 60.7965 196.56C59.7142 195.966 59.8161 194.553 59.2184 193.607C57.8515 190.61 56.4676 187.618 54.996 184.67C52.4255 179.751 49.3268 175.134 46.491 170.368C45.8459 169.666 45.8172 168.12 44.902 167.901L44.7712 167.9ZM31.987 168.585C32.6858 169.136 34.2313 168.705 34.2737 169.933C34.3463 170.408 34.6943 172.154 33.832 171.281C33.2266 170.373 32.4782 169.569 31.987 168.585ZM124.129 172.11C124.059 173.456 124.119 174.81 124.343 176.14C123.482 176.695 123.853 174.762 123.507 174.28C123.246 173.406 122.795 172.297 124.129 172.11ZM17.3181 172.185C13.799 174.484 10.3696 178.774 6.52413 180.574C5.89753 180.998 4.46291 181.185 4.94699 182.26C5.52572 182.976 5.68348 183.961 6.35512 184.575C11.8419 182.518 15.0417 181.177 16.7075 178.874C17.8526 177.884 19.3362 175.58 20.2418 174.37C19.4409 173.444 18.4379 172.69 17.3181 172.185ZM27.5842 174.584C28.259 175.517 28.9867 176.412 29.7591 177.268C29.0382 177.057 27.9819 178.615 27.6427 177.381C27.5998 176.556 27.7388 175.727 27.5946 174.902L27.5862 174.743L27.5842 174.584ZM133.571 175.689C134.174 176.621 131.841 176.964 132.588 176C132.903 175.857 133.316 175.962 133.571 175.689ZM123.97 178.057C124.379 178.3 124.05 179.368 123.854 178.563C123.869 178.389 123.939 178.228 123.97 178.057ZM122.962 179.688C123.387 179.83 122.567 180.003 122.962 179.688ZM36.1777 180.793C36.7309 181.463 36.3986 182.912 35.3701 182.136C34.9102 181.69 33.5918 181.62 33.6009 181.019C34.4469 180.881 35.33 180.978 36.1777 180.793ZM122.856 181.162C123.209 181.288 122.524 181.325 122.856 181.162ZM27.3189 181.32C27.7554 181.507 26.915 181.576 27.3189 181.32ZM27.1067 182.635C27.9125 183.362 25.9958 184.778 26.1806 183.56C26.441 183.204 26.9963 183.105 27.1067 182.635ZM122.644 183.267C122.954 184.246 124.499 185.081 124.641 185.681C123.87 185.587 122.439 185.59 122.37 184.599C122.397 184.143 122.657 183.729 122.644 183.267ZM125.19 183.319C125.506 183.627 124.738 183.518 125.19 183.319ZM130.229 184.477C131.375 184.586 132.527 184.591 133.677 184.582C133.524 185.444 132.508 186.55 131.684 185.662C131.198 185.269 130.785 184.779 130.229 184.477ZM142.848 185.557C141.879 186.141 140.913 186.842 140.377 187.862C140.962 188.943 142.972 189.799 143.894 190.531C146.255 191.966 148.807 193.049 151.258 194.317C152.395 194.316 153.035 193.223 153.824 192.59C154.329 191.69 153.248 191.113 152.605 190.733C149.872 189.006 146.244 187.062 143.292 185.741C143.144 185.679 142.997 185.618 142.848 185.557ZM85.7763 188.319C83.6743 189.939 82.447 192.405 80.3464 194.027C79.1477 194.562 77.9873 193.645 76.8458 193.37C75.3172 192.853 73.7622 192.398 72.1687 192.125C71.2033 192.671 70.6125 193.81 70.1528 194.73C70.3039 195.592 71.3287 195.686 72.0024 195.952C74.193 196.668 76.4507 197.151 78.6626 197.794C79.4306 198.442 80.3092 197.577 81.1328 197.707C82.0117 198.004 82.6808 197.477 82.938 196.682C83.6557 196 84.496 195.445 85.1081 194.651C86.1262 193.494 87.0207 192.231 88.067 191.102C88.7506 190.205 87.5509 189.644 87.0038 189.127C86.6357 188.804 86.2438 188.487 85.7763 188.319ZM22.81 188.476C20.2307 191.363 18.1478 194.657 15.4482 197.443C15.1239 198.323 16.0949 198.909 16.4112 199.63C16.8769 200.552 17.9583 200.316 18.5708 199.696C21.1711 197.905 23.0652 195.312 24.7576 192.703C25.2699 191.845 25.7146 190.945 26.0457 190.002C25.1135 189.241 23.9799 188.749 22.81 188.476ZM120.257 191.108C120.81 191.019 120.034 191.515 120.257 191.108ZM128.426 191.318C128.858 191.088 128.357 191.763 128.426 191.318ZM27.9555 194.897C24.9112 197.896 22.2114 201.36 20.6365 205.348C20.2976 206.396 20.4714 207.945 21.746 208.246C23.0091 208.642 24.3303 208.256 25.4764 207.7C26.32 207.54 27.7522 207.08 26.9124 206C26.3164 205.532 25.7028 204.638 26.267 203.914C27.6083 202.402 28.7202 200.702 29.8057 199.005C30.2771 198.221 30.7096 197.414 31.0851 196.581C30.1992 195.778 29.1018 195.23 27.9555 194.897ZM113.891 197.054C114.954 197.449 113.077 198.813 113.333 197.547C113.473 197.334 113.753 197.269 113.891 197.054ZM110.39 203.211C110.808 203.513 109.925 203.228 110.39 203.211ZM34.5333 204.632C33.7246 204.548 32.5314 204.613 32.5359 205.698C32.1669 207.866 31.7902 210.252 32.8044 212.309C33.3678 213.173 34.4699 212.685 34.8797 211.944C35.8662 211.222 36.3118 210.075 36.2121 208.886C36.2983 207.533 36.4137 206.173 36.2748 204.819C35.7204 204.604 35.1151 204.661 34.5333 204.632ZM36.0716 210.684C36.2965 210.725 35.9148 210.832 36.0716 210.684Z" fill="#262626"/>
</g>
<defs>
<clipPath id="clip0_115_2760">
<rect width="156" height="213" fill="white"/>
</clipPath>
</defs>
</svg>
