<svg width="33" height="63" viewBox="0 0 33 63" fill="none" xmlns="http://www.w3.org/2000/svg">
<path d="M8.31022 13.5961H12.4653V41.5602C12.4653 43.5789 13.5338 44.5288 15.6113 44.5288C17.3327 44.5288 18.6386 43.8164 19.529 42.3914L22.4376 45.9537C21.7253 47.0818 20.5974 47.913 19.2322 48.4474C17.8669 48.9817 16.4424 49.2786 15.0771 49.2786C12.2279 49.2786 10.1503 48.5661 8.84443 47.1412C7.53854 45.7163 6.94495 43.8757 6.94495 41.6196V18.999H6.52945C4.92676 18.999 3.08664 19.2365 1.00909 19.7114L0 14.7836C0.296793 14.7242 0.831021 14.6055 1.48397 14.4273C2.13691 14.2492 2.55242 14.1899 2.73049 14.1305C2.90857 14.0711 3.26471 14.0117 3.73958 13.893C4.21445 13.7743 4.5706 13.7149 4.80804 13.7149C5.04547 13.7149 5.34229 13.7149 5.7578 13.6555C6.17331 13.5961 6.58882 13.6555 7.00433 13.5961C7.41984 13.5368 7.83537 13.5961 8.3696 13.5961H8.31022ZM4.74871 0L12.9402 0.118746V7.95582L4.74871 7.83708V0ZM26.5333 53.019V18.999H25.9398C23.2686 18.999 20.4787 19.3552 17.5702 20.0083L16.6204 15.0804C20.8349 14.1305 24.5745 13.5961 27.8986 13.5961H31.9943V53.1377C31.9943 54.2064 31.8756 55.1564 31.6976 56.047C31.5195 56.9375 31.1633 57.7687 30.6884 58.5999C30.2136 59.4311 29.5606 60.0842 28.7889 60.678C28.0173 61.2717 27.0082 61.6873 25.821 62.0435C24.6338 62.3997 23.1499 62.5185 21.6066 62.5185C18.9354 62.5185 16.4423 62.281 14.1273 61.7466C11.8124 61.2123 8.96314 60.1436 5.63906 58.3624L7.65727 53.1971C11.3969 55.7501 15.8487 57.0563 20.8942 57.0563H21.4879C22.3782 57.0563 23.2092 56.8782 23.9215 56.5813C24.6338 56.2844 25.1681 55.8688 25.5242 55.4532C25.8804 55.0376 26.1772 54.5627 26.2959 54.1471C26.4146 53.7315 26.5927 53.3752 26.5927 53.019H26.5333ZM24.2184 0.237493L32.3505 0.356233V8.1933L24.2184 8.07456V0.237493Z" fill="#1D1D1B"/>
</svg>
