<svg width="83" height="88" viewBox="0 0 83 88" fill="none" xmlns="http://www.w3.org/2000/svg">
<path d="M13.6399 0V38.4819C20.4598 36.8845 29.3112 36.1584 40.0489 36.1584C40.0489 27.5908 40.0489 20.4752 40.0489 14.6667C40.0489 8.85809 40.0489 4.21123 40.0489 0.435653H53.5437C53.5437 4.64687 53.5437 10.3102 53.5437 17.571V34.1254C56.736 33.1089 59.7832 32.5281 62.6853 32.5281C65.4423 32.5281 67.9091 32.9637 70.2308 33.9802C72.5524 34.9967 74.5839 36.4489 76.6154 38.4819C78.6468 40.5149 80.0979 43.5644 81.2587 47.3399C82.4196 51.1155 83 55.7624 83 60.9901C83 65.4917 82.4196 69.4125 81.4038 72.7525C80.3881 76.0924 78.9371 78.7063 77.1958 80.5941C75.4545 82.4818 73.278 84.0792 70.8112 85.0957C68.3444 86.1122 65.8776 86.9835 63.4108 87.4191C60.9441 87.8548 58.4773 88 55.4301 88C53.2535 88 50.3514 88 46.7238 87.5643C43.0962 87.1287 40.7745 87.1287 39.7587 87.1287C40.049 77.3993 40.0489 64.6205 40.0489 49.0825H35.1154C33.6643 49.0825 32.2133 49.0825 30.9073 49.0825C29.6014 49.0825 28.4406 49.0825 27.715 49.0825C26.9895 49.0825 25.9738 49.0825 24.958 49.2277C23.9423 49.3729 23.2168 49.3729 22.7815 49.3729C22.3461 49.3729 21.6206 49.3729 20.6049 49.6634C19.5892 49.9538 18.8636 49.9538 18.5734 50.099C18.2832 50.2442 17.5577 50.3895 16.2517 50.6799C14.9458 50.9703 14.0752 51.1155 13.6399 51.2607C13.6399 62.1518 13.6399 69.8482 13.6399 74.3498C13.6399 78.8515 13.6399 83.0627 13.6399 86.9835H0V0H13.6399ZM53.3986 46.033C53.3986 50.8251 53.2535 60.264 53.1084 74.495C53.3986 74.495 53.979 74.4951 55.1399 74.6403C56.3007 74.7855 57.3164 74.7855 58.0419 74.7855C65.5874 74.7855 69.5052 69.703 69.5052 59.6832C69.5052 54.165 68.6346 50.3895 67.0385 48.3565C65.4423 46.3234 63.2657 45.3069 60.5087 45.3069C59.493 45.3069 58.1871 45.3069 56.5909 45.5974C54.9948 45.8878 53.8339 45.8878 53.2535 45.8878L53.3986 46.033Z" fill="#1D1D1B"/>
</svg>
