<svg width="37" height="55" viewBox="0 0 37 55" fill="none" xmlns="http://www.w3.org/2000/svg">
<path d="M16.5611 42.3321C14.899 42.3321 13.3557 42.4508 11.9904 42.6289C10.6252 42.807 9.6161 42.9258 9.08187 43.0445L8.25085 43.2227L6.47007 50.2285C5.93585 52.6034 5.63906 54.0283 5.63906 54.4439H0C0 53.2565 0.41548 51.4159 1.12778 48.9223L11.9904 9.49948C13.415 9.49948 16.5611 9.44011 21.3691 9.44011C23.3873 9.44011 25.5836 9.44011 28.0173 9.44011C30.451 9.44011 32.113 9.44011 33.0628 9.44011V14.6648H18.9948L19.8851 26.0642H30.3323V31.2889H20.5381L22.0221 49.3379H30.5104C31.1039 49.2786 31.6975 49.2192 32.4098 49.0411C33.1221 48.863 33.597 48.7442 34.0125 48.6255L34.6061 48.388L36.1494 53.5533C36.1494 53.5533 35.5558 53.7314 35.0216 53.9096C34.4874 54.0877 34.0718 54.2064 33.7751 54.2658C33.4783 54.3252 33.0628 54.4439 32.5285 54.5033C31.9943 54.5627 31.4007 54.622 30.8665 54.622H30.6291L17.4514 54.5033L16.6798 42.4508L16.5611 42.3321ZM24.2183 0.118741V5.40283H23.6247C22.2595 5.40283 19.9445 5.4622 16.6204 5.4622C13.2963 5.4622 10.6252 5.4622 9.08187 5.40283H8.42892V0H9.08187C10.5658 0.118744 13.5338 0.118741 17.9263 0.118741H24.2183ZM16.1456 37.3448L14.3648 16.3272L9.37864 37.8792C10.9813 37.5823 13.237 37.4042 16.1456 37.3448Z" fill="#1D1D1B"/>
</svg>
