<svg width="85" height="89" viewBox="0 0 85 89" fill="none" xmlns="http://www.w3.org/2000/svg">
<path d="M12.1429 0.144484H37.1514H38.3078C46.6922 0.144484 52.4745 0.14449 55.6548 0.433451V1.15587C55.6548 5.3458 55.6548 10.8361 55.6548 17.7711V33.9529C58.835 32.9416 61.8708 32.3637 64.7619 32.3637C67.5085 32.3637 69.966 32.7971 72.2789 33.8084C74.5918 34.8198 76.6157 36.2646 78.6395 38.2873C80.6633 40.3101 82.1089 43.3441 83.2653 47.1006C84.4218 50.8571 85 55.4805 85 60.6818C85 65.1607 84.4218 69.0617 83.2653 72.3847C82.1089 75.7078 80.6633 78.3084 78.9286 80.1867C77.1939 82.0649 75.0255 83.6542 72.4235 84.6656C69.8214 85.6769 67.364 86.5438 64.9065 86.9773C62.449 87.4107 59.847 87.5552 56.9558 87.5552C54.7874 87.5552 51.8963 87.5552 48.2823 87.1217C44.6684 86.6883 42.3555 86.6883 41.3436 86.6883C41.3436 83.2208 41.3435 73.974 41.7772 58.8036C42.2109 43.6331 42.2109 30.9188 42.2109 20.5162V12.8588H25.5867C25.2976 21.0942 25.0085 27.7403 24.8639 32.6526C24.7194 37.5649 24.4303 42.9107 23.9966 48.6899C23.5629 54.4692 23.1293 58.9481 22.6956 62.1266C22.2619 65.3052 21.5391 68.6282 20.8163 72.2402C20.0935 75.8523 19.0816 78.4529 18.0697 80.0422C17.0578 81.6315 15.7568 83.3653 14.1667 84.9545C12.5765 86.5438 10.9864 87.5552 8.9626 88.1331C6.93879 88.711 4.77041 89 2.31292 89H1.15646L0 76.2857H1.0119C3.32483 76.2857 5.20409 75.5633 6.50511 74.1185C7.80613 72.6737 8.81803 69.2061 9.82994 63.8604C10.8418 58.5146 11.4201 50.8571 11.7092 41.0325C11.9983 31.2078 12.2874 17.4821 12.2874 0L12.1429 0.144484ZM55.5102 45.8003C55.5102 50.5682 55.3657 59.9594 55.2211 74.1185C55.5102 74.1185 56.0884 74.1185 57.2449 74.263C58.4014 74.4075 59.4133 74.4075 60.1361 74.4075C67.6531 74.4075 71.5561 69.3506 71.5561 59.3815C71.5561 53.8912 70.6888 50.1348 69.0987 48.112C67.5085 46.0893 65.3401 45.0779 62.5935 45.0779C61.5816 45.0779 60.2806 45.0779 58.6905 45.3669C57.1003 45.6558 55.9439 45.6559 55.3657 45.6559L55.5102 45.8003Z" fill="#1D1D1B"/>
</svg>
