<svg width="87" height="112" viewBox="0 0 87 112" fill="none" xmlns="http://www.w3.org/2000/svg">
<path d="M29.8203 73.9923H57.7587V0.289039H71.2213V73.2697H83.8153C83.8153 76.5936 83.6706 79.3394 83.6706 81.5071C83.6706 93.791 84.8286 102.895 87 108.965L75.2745 112C72.6689 105.208 71.3661 96.6813 71.2213 86.7097H16.213V13.151C9.69883 13.151 5.79035 13.151 4.198 13.151C2.60566 13.151 1.30283 13.151 0 13.151V0C3.03993 0 8.68553 0 17.2263 0C25.7671 0 32.8602 0 38.5058 0C41.401 0 45.3095 0.433551 50.376 1.30065L47.6256 14.1626C44.1514 13.44 40.9667 13.151 38.0715 13.151H29.8203V73.8477V73.9923Z" fill="#1D1D1B"/>
</svg>
