<svg width="34" height="53" viewBox="0 0 34 53" fill="none" xmlns="http://www.w3.org/2000/svg">
<path d="M17.0953 49.1598C15.1958 51.2972 12.9402 52.3659 10.3878 52.3659C7.83534 52.3659 5.81715 51.7722 4.03639 50.5254C1.54333 48.8036 0.296811 45.835 0.296811 41.7384C0.296811 40.4915 0.415502 39.3635 0.593578 38.2354C0.771654 37.1074 1.12783 36.0387 1.54334 34.97C1.95885 33.9013 2.55244 32.9513 3.26475 32.1795C3.97705 31.4077 4.80805 30.7546 5.93587 30.2796C7.06368 29.8046 8.25087 29.5671 9.61612 29.5671C10.4471 29.5671 11.2188 29.6265 11.9311 29.7453C12.6434 29.864 13.1183 29.9827 13.4151 30.1015C13.7119 30.2202 14.1867 30.3983 14.7803 30.6358C14.7803 29.6859 14.7209 28.7359 14.6022 27.8454C14.4835 26.9548 14.2461 26.0642 13.89 25.1736C13.5338 24.2831 13.0589 23.5706 12.3466 23.0362C11.6343 22.5019 10.8627 22.2644 9.85356 22.2644H9.55675C9.02252 22.2644 8.60702 22.2644 8.31022 22.3238C8.01343 22.3832 7.65728 22.5019 7.24177 22.7394C6.82625 22.9769 6.41074 23.3331 5.93587 23.8081C5.461 24.2831 4.98613 24.9955 4.4519 25.8267L4.09576 26.3017L0 23.7487L0.356138 23.0956C1.8401 20.7801 3.26472 19.1177 4.62997 18.2271C5.99522 17.3366 7.71665 16.8616 9.85356 16.8616C10.922 16.8616 11.9311 16.9803 12.7621 17.2178C13.5931 17.4553 14.5429 17.9896 15.552 18.7615C16.2049 19.2958 16.7392 20.0083 17.2734 20.8395C17.8076 20.0083 18.3418 19.3552 18.8761 18.8208C19.4103 18.2865 20.1226 17.8709 21.1317 17.4553C22.1408 17.0397 23.2686 16.8616 24.6339 16.8616C25.821 16.8616 26.8301 17.0991 27.7799 17.574C28.7296 18.049 29.5013 18.6427 30.0948 19.3552C30.6884 20.0677 31.2227 21.0176 31.6382 22.1457C32.0537 23.2737 32.4098 24.4018 32.5879 25.4111C32.766 26.4204 33.0034 27.6672 33.1222 29.0922C33.2409 30.5171 33.3002 31.7045 33.3596 32.5951C33.4189 33.4857 33.3596 34.6137 33.3596 35.8605L20.0632 36.2168V44.7663C20.5381 45.3007 21.2504 45.7756 22.0814 46.1912C22.9125 46.6068 23.8622 46.785 24.8713 46.785C26.474 46.785 28.1954 45.5381 30.0355 42.9852L33.7751 46.4881C32.2911 48.5067 30.6884 49.991 29.0264 50.8816C27.3643 51.7722 25.7617 52.2472 24.2183 52.2472C21.3691 52.2472 18.9948 51.1785 16.9766 49.0411L17.0953 49.1598ZM5.69843 41.2634C5.69843 45.0038 7.12306 46.9037 10.0316 46.9037C11.4562 46.9037 12.5247 46.31 13.3557 45.1819C14.1867 44.0539 14.6616 42.6883 14.899 41.1446V36.0387C13.5338 35.2668 11.9311 34.8512 10.091 34.8512C8.78507 34.8512 7.71662 35.4449 6.94495 36.6918C6.17329 37.9386 5.7578 39.4229 5.7578 41.2634H5.69843ZM7.77597 10.865C10.091 10.0932 12.7621 8.60891 15.9081 6.47152C19.0541 4.33414 21.7253 2.13738 24.0403 0L28.3141 5.10598C26.4146 7.00587 23.5654 9.08388 19.7664 11.3994C15.9675 13.7149 12.7621 15.2585 10.1503 16.0897L7.77597 10.9244V10.865ZM20.182 31.1108C22.9125 30.9327 25.6429 30.8139 28.1954 30.8139C28.1954 29.8046 28.1954 28.8547 28.0173 27.9047C27.8392 26.9548 27.7205 26.0642 27.483 25.1736C27.2456 24.2831 26.8895 23.5706 26.474 23.0362C26.0585 22.5019 25.5242 22.2644 24.99 22.2644C24.0996 22.2644 23.3873 22.3832 22.7938 22.68C22.2002 22.9769 21.7253 23.2737 21.3691 23.7487C21.013 24.2237 20.7755 24.8174 20.5975 25.5892C20.4194 26.3611 20.3007 27.1923 20.2413 27.9641C20.182 28.7359 20.182 29.8046 20.182 31.0514V31.1108Z" fill="#1D1D1B"/>
</svg>
