<svg width="257" height="109" viewBox="0 0 257 109" fill="none" xmlns="http://www.w3.org/2000/svg">
<path d="M37.6287 54.1949C33.188 53.6407 30.9608 50.322 30.9412 45.9979C30.9258 42.7928 30.9219 39.587 30.9296 36.3804C30.9296 36.3425 30.9485 36.3236 30.9862 36.3236H37.736C37.7669 36.3236 37.7966 36.3358 37.8184 36.3575C37.8403 36.3793 37.8526 36.4088 37.8526 36.4395C37.8518 39.1383 37.8503 41.8439 37.848 44.5566C37.8457 45.9388 38.2149 47.3743 39.8306 47.583C41.6112 47.8115 42.2102 46.4861 42.3302 44.9253C42.4371 43.5369 42.4387 42.1477 42.3348 40.7578C42.1779 38.6543 41.1704 36.9706 39.9194 35.3461C38.3261 33.2774 36.7251 31.2145 35.1164 29.1574C32.8811 26.2967 31.5147 23.2308 31.3497 19.5735C31.1454 15.0384 31.037 9.57567 36.215 7.80964C37.0652 7.51975 37.9949 7.34852 39.0043 7.29595C40.7138 7.20628 42.1755 7.24647 43.3896 7.41655C47.5683 8.00329 49.0973 10.9161 49.1227 14.8726C49.1397 17.5048 49.1404 20.1379 49.125 22.7716C49.125 22.8095 49.1062 22.8285 49.0685 22.8285L42.5252 22.8493C42.4943 22.8493 42.4647 22.837 42.4428 22.815C42.4209 22.7931 42.4087 22.7633 42.4087 22.7322C42.4094 20.6372 42.4113 18.5291 42.4144 16.4079C42.4167 15.1903 42.299 13.6933 40.7665 13.5101C38.9385 13.2921 38.4492 14.5166 38.4088 16.111C38.3857 17.0024 38.4073 17.8933 38.4735 18.7839C38.6212 20.7586 39.5317 22.3356 40.6984 23.8709C42.4333 26.1545 44.1751 28.4327 45.9238 30.7054C47.8452 33.2043 49.2751 35.7102 49.6513 38.9013C49.8832 40.8703 49.8752 43.0468 49.7471 45.1143C49.4574 49.799 47.214 53.7439 42.1478 54.2274C40.5384 54.3812 39.032 54.3704 37.6287 54.1949Z" fill="white"/>
<path d="M28.8803 48.6129C28.918 50.3283 28.9242 52.0139 28.8988 53.6698C28.8965 53.7788 28.8414 53.8333 28.7337 53.8333H22.0416C22.011 53.8333 21.9816 53.821 21.96 53.7993C21.9383 53.7775 21.9262 53.7481 21.9262 53.7173V33.6856C21.9262 33.6549 21.914 33.6254 21.8924 33.6037C21.8707 33.5819 21.8414 33.5697 21.8108 33.5697H17.2813C17.2503 33.5697 17.2207 33.5819 17.1988 33.6037C17.177 33.6254 17.1647 33.6549 17.1647 33.6856L17.167 53.6883C17.167 53.7849 17.1189 53.8333 17.0228 53.8333L10.2844 53.8309C10.2367 53.8309 10.2129 53.807 10.2129 53.759V7.76916C10.2129 7.73051 10.2321 7.71118 10.2706 7.71118H17.122C17.1333 7.71118 17.1442 7.7157 17.1522 7.72375C17.1602 7.73179 17.1647 7.74271 17.1647 7.75409L17.1705 26.0788C17.1705 26.0918 17.173 26.1046 17.178 26.1166C17.183 26.1285 17.1903 26.1394 17.1995 26.1485C17.2088 26.1577 17.2197 26.1649 17.2317 26.1699C17.2438 26.1749 17.2567 26.1774 17.2697 26.1774H21.8108C21.8414 26.1774 21.8707 26.1652 21.8924 26.1434C21.914 26.1217 21.9262 26.0922 21.9262 26.0614V7.78423C21.9262 7.73553 21.95 7.71118 21.9977 7.71118H28.8191C28.8427 7.71118 28.8653 7.72059 28.882 7.73733C28.8986 7.75408 28.908 7.77679 28.908 7.80047C28.908 21.3466 28.908 34.9032 28.908 48.4702C28.908 48.4903 28.9041 48.5089 28.8965 48.5259C28.8849 48.5537 28.8795 48.5827 28.8803 48.6129Z" fill="white"/>
<path d="M58.8324 26.4673L65.6607 26.4708C65.6776 26.4708 65.6937 26.4775 65.7056 26.4895C65.7175 26.5014 65.7242 26.5176 65.7242 26.5346L65.7207 33.4479C65.7207 33.4649 65.714 33.4811 65.7021 33.493C65.6902 33.505 65.6741 33.5117 65.6573 33.5117H58.8324C58.8156 33.5117 58.7994 33.5184 58.7875 33.5304C58.7756 33.5424 58.7689 33.5586 58.7689 33.5755L58.7678 46.7251C58.7678 46.742 58.7745 46.7582 58.7864 46.7702C58.7983 46.7821 58.8144 46.7888 58.8312 46.7888H67.9376C67.9544 46.7888 67.9706 46.7956 67.9825 46.8075C67.9944 46.8195 68.0011 46.8357 68.0011 46.8526V53.7695C68.0011 53.7864 67.9944 53.8026 67.9825 53.8146C67.9706 53.8265 67.9544 53.8333 67.9376 53.8333H51.8506C51.8337 53.8333 51.8176 53.8265 51.8057 53.8146C51.7938 53.8026 51.7871 53.7864 51.7871 53.7695V7.77496C51.7871 7.75804 51.7938 7.74182 51.8057 7.72986C51.8176 7.7179 51.8337 7.71118 51.8506 7.71118H67.5914C67.6082 7.71118 67.6244 7.7179 67.6363 7.72986C67.6482 7.74182 67.6549 7.75804 67.6549 7.77496V14.3439C67.6549 14.3609 67.6482 14.3771 67.6363 14.389C67.6244 14.401 67.6082 14.4077 67.5914 14.4077H58.8324C58.8156 14.4077 58.7994 14.4144 58.7875 14.4264C58.7756 14.4384 58.7689 14.4546 58.7689 14.4715V26.4035C58.7689 26.4119 58.7706 26.4202 58.7738 26.4279C58.7769 26.4357 58.7816 26.4427 58.7875 26.4486C58.7934 26.4545 58.8004 26.4592 58.8081 26.4624C58.8158 26.4656 58.8241 26.4673 58.8324 26.4673Z" fill="white"/>
<path d="M81.7513 45.2501L80.8443 53.7486C80.8417 53.772 80.8306 53.7936 80.8131 53.8092C80.7957 53.8248 80.773 53.8334 80.7496 53.8333H74.691C74.6776 53.8334 74.6643 53.8306 74.6519 53.8251C74.6396 53.8196 74.6286 53.8115 74.6197 53.8014C74.6107 53.7913 74.604 53.7794 74.6 53.7665C74.596 53.7536 74.5948 53.74 74.5964 53.7266L80.1911 7.79467C80.1939 7.77152 80.2051 7.75021 80.2226 7.73482C80.24 7.71942 80.2625 7.71101 80.2857 7.71118H88.4019C88.4248 7.71126 88.4468 7.71963 88.464 7.73476C88.4812 7.7499 88.4923 7.77076 88.4954 7.79351L94.4548 53.7254C94.4566 53.7388 94.4555 53.7525 94.4516 53.7654C94.4478 53.7784 94.4412 53.7904 94.4323 53.8006C94.4235 53.8108 94.4126 53.819 94.4003 53.8247C94.3881 53.8303 94.3748 53.8332 94.3613 53.8333H87.8122C87.7888 53.8334 87.7662 53.8248 87.7487 53.8092C87.7313 53.7936 87.7202 53.772 87.7176 53.7486L86.8105 45.2478C86.808 45.2244 86.7969 45.2028 86.7794 45.1872C86.7619 45.1716 86.7393 45.163 86.7159 45.1631L81.846 45.1654C81.8226 45.1653 81.7999 45.1739 81.7825 45.1895C81.765 45.2051 81.7539 45.2267 81.7513 45.2501ZM82.453 38.1964C82.4525 38.2016 82.4531 38.2068 82.4547 38.2117C82.4564 38.2166 82.459 38.2211 82.4625 38.2249C82.466 38.2287 82.4702 38.2318 82.4749 38.2339C82.4796 38.2359 82.4847 38.237 82.4899 38.237L86.012 38.2393C86.0171 38.2393 86.0222 38.2383 86.0269 38.2362C86.0317 38.2341 86.0359 38.2311 86.0394 38.2272C86.0429 38.2234 86.0455 38.2189 86.0471 38.214C86.0488 38.2091 86.0494 38.2039 86.0489 38.1987L84.2544 21.6296C84.2529 21.621 84.2484 21.6132 84.2417 21.6076C84.2351 21.602 84.2267 21.599 84.218 21.599C84.2094 21.599 84.201 21.602 84.1943 21.6076C84.1877 21.6132 84.1832 21.621 84.1817 21.6296L82.453 38.1964Z" fill="white"/>
<path d="M102.607 33.2658C102.559 33.2681 102.535 33.2936 102.535 33.3423V53.7021C102.535 53.7366 102.521 53.7696 102.497 53.794C102.472 53.8183 102.44 53.832 102.405 53.832L95.6681 53.8343C95.6375 53.8343 95.6082 53.822 95.5865 53.8C95.5649 53.778 95.5527 53.7483 95.5527 53.7172V7.82472C95.5527 7.79458 95.5647 7.76567 95.5859 7.74436C95.6071 7.72305 95.6358 7.71108 95.6658 7.71108C99.5187 7.71031 103.385 7.71069 107.266 7.71224C112.204 7.71456 113.879 10.6657 113.834 15.2066C113.807 17.9258 113.837 20.645 113.804 23.3642C113.775 25.6532 112.993 27.8135 110.887 28.8745C110.882 28.8771 110.878 28.881 110.875 28.8859C110.872 28.8907 110.871 28.8962 110.871 28.9018C110.871 28.9074 110.872 28.9128 110.875 28.9174C110.878 28.922 110.882 28.9256 110.887 28.9278C112.713 29.7588 113.677 31.1986 113.779 33.2472C113.801 33.674 113.813 34.1026 113.815 34.5332C113.837 38.6304 113.845 42.7275 113.842 46.8247C113.839 49.0685 113.554 51.4247 114.524 53.534C114.538 53.5661 114.545 53.6014 114.542 53.6367C114.54 53.6719 114.529 53.706 114.51 53.7358C114.491 53.7656 114.465 53.7901 114.434 53.8071C114.403 53.8241 114.368 53.8331 114.333 53.8331H107.723C107.672 53.8331 107.622 53.8182 107.579 53.7902C107.536 53.7622 107.502 53.7223 107.482 53.6754C107.137 52.8923 106.96 52.0486 106.95 51.1441C106.894 45.9817 106.876 40.8192 106.898 35.6568C106.904 34.1714 106.335 33.3957 104.855 33.289C104.097 33.2349 103.348 33.2271 102.607 33.2658ZM104.956 26.6063C106.781 26.3941 106.961 24.3278 106.921 22.9096C106.863 20.8838 106.891 18.8546 106.892 16.8277C106.892 15.4292 106.605 14.1328 104.993 14.0215C104.198 13.9658 103.412 13.9527 102.635 13.9821C102.608 13.983 102.582 13.9944 102.564 14.0138C102.545 14.0333 102.535 14.0593 102.535 14.0864V26.5542C102.535 26.5713 102.538 26.5883 102.545 26.604C102.552 26.6198 102.561 26.634 102.574 26.6457C102.586 26.6575 102.601 26.6665 102.617 26.6723C102.633 26.6781 102.65 26.6805 102.667 26.6794C103.446 26.6261 104.21 26.6933 104.956 26.6063Z" fill="white"/>
<path d="M127.787 53.8333H121.077C121.063 53.8333 121.049 53.8305 121.036 53.825C121.023 53.8196 121.011 53.8117 121.001 53.8017C120.991 53.7917 120.983 53.7798 120.978 53.7667C120.973 53.7536 120.97 53.7396 120.97 53.7254V14.5156C120.97 14.487 120.959 14.4595 120.938 14.4393C120.918 14.4191 120.891 14.4077 120.863 14.4077H115.221C115.192 14.4077 115.165 14.3964 115.145 14.3761C115.125 14.3559 115.113 14.3285 115.113 14.2999V7.81902C115.113 7.80486 115.116 7.79084 115.121 7.77775C115.127 7.76467 115.135 7.75278 115.145 7.74277C115.155 7.73275 115.167 7.72481 115.18 7.71939C115.193 7.71397 115.207 7.71118 115.221 7.71118H133.643C133.657 7.71118 133.671 7.71397 133.684 7.71939C133.697 7.72481 133.709 7.73275 133.719 7.74277C133.729 7.75278 133.737 7.76467 133.743 7.77775C133.748 7.79084 133.751 7.80486 133.751 7.81902V14.2999C133.751 14.3285 133.739 14.3559 133.719 14.3761C133.699 14.3964 133.672 14.4077 133.643 14.4077H128.001C127.987 14.4077 127.973 14.4105 127.96 14.4159C127.947 14.4214 127.935 14.4293 127.925 14.4393C127.916 14.4493 127.908 14.4612 127.902 14.4743C127.897 14.4874 127.894 14.5014 127.894 14.5156V53.7254C127.894 53.754 127.883 53.7814 127.863 53.8017C127.842 53.8219 127.815 53.8333 127.787 53.8333Z" fill="white"/>
<path d="M152.416 45.162L147.508 45.1643C147.49 45.1645 147.472 45.1714 147.459 45.1838C147.445 45.1962 147.436 45.2132 147.434 45.2315L146.524 53.766C146.522 53.7844 146.513 53.8013 146.5 53.8137C146.486 53.8261 146.468 53.8331 146.45 53.8333H140.35C140.339 53.8332 140.329 53.8308 140.319 53.8264C140.31 53.822 140.301 53.8156 140.294 53.8076C140.287 53.7996 140.282 53.7902 140.279 53.78C140.276 53.7699 140.275 53.7592 140.276 53.7486L145.874 7.77728C145.876 7.75894 145.885 7.74207 145.899 7.72988C145.913 7.7177 145.931 7.71104 145.949 7.71118H154.102C154.12 7.71133 154.138 7.71811 154.152 7.73027C154.165 7.74243 154.174 7.75914 154.176 7.77728L160.14 53.7498C160.141 53.7603 160.14 53.771 160.137 53.7812C160.134 53.7914 160.129 53.8007 160.122 53.8087C160.115 53.8167 160.106 53.8232 160.097 53.8276C160.087 53.832 160.077 53.8343 160.066 53.8344L153.474 53.8298C153.456 53.8296 153.438 53.8227 153.425 53.8103C153.411 53.7979 153.403 53.7809 153.401 53.7625L152.49 45.2292C152.488 45.2109 152.48 45.1939 152.466 45.1815C152.452 45.1691 152.435 45.1621 152.416 45.162ZM151.675 38.237C151.683 38.237 151.691 38.2354 151.698 38.2323C151.705 38.2291 151.711 38.2245 151.717 38.2187C151.722 38.2129 151.726 38.206 151.728 38.1986C151.731 38.1912 151.732 38.1833 151.731 38.1755L149.945 21.7107C149.915 21.434 149.886 21.4344 149.857 21.7119L148.131 38.201C148.131 38.206 148.131 38.211 148.133 38.2157C148.134 38.2205 148.137 38.2249 148.14 38.2286C148.143 38.2324 148.148 38.2354 148.152 38.2374C148.157 38.2394 148.162 38.2405 148.167 38.2405L151.675 38.237Z" fill="white"/>
<path d="M167.579 27.5747C167.551 27.8453 167.537 28.0872 167.537 28.3006C167.535 36.7933 167.535 45.2845 167.535 53.7741C167.535 53.7904 167.529 53.806 167.518 53.8176C167.507 53.8291 167.491 53.8356 167.475 53.8356L161.413 53.8286C161.302 53.8286 161.246 53.7726 161.246 53.6605V7.76916C161.246 7.75378 161.252 7.73904 161.263 7.72816C161.274 7.71729 161.288 7.71118 161.304 7.71118H167.523C167.544 7.71118 167.556 7.72123 167.561 7.74133L173.436 32.0217C173.485 32.2265 173.51 32.2234 173.51 32.0124L173.506 7.75872C173.506 7.74612 173.511 7.73402 173.52 7.72511C173.529 7.71619 173.541 7.71118 173.554 7.71118H179.826C179.841 7.71118 179.856 7.71729 179.867 7.72816C179.877 7.73904 179.883 7.75378 179.883 7.76916V53.6837C179.883 53.703 179.88 53.7222 179.872 53.74C179.865 53.7579 179.854 53.7741 179.841 53.7878C179.827 53.8015 179.811 53.8123 179.793 53.8197C179.775 53.8271 179.756 53.8309 179.737 53.8309L174.287 53.8344C174.261 53.8344 174.236 53.8257 174.215 53.8097C174.195 53.7938 174.181 53.7714 174.175 53.7463L167.602 27.5724C167.592 27.5306 167.584 27.5314 167.579 27.5747Z" fill="white"/>
<path d="M182.662 53.8204C182.606 53.8198 182.552 53.797 182.513 53.7568C182.473 53.7166 182.451 53.6624 182.451 53.6059V7.82592C182.451 7.79578 182.463 7.76688 182.484 7.74557C182.505 7.72425 182.533 7.71228 182.563 7.71228C186.176 7.71074 189.803 7.70842 193.443 7.70532C197.368 7.70301 199.914 9.50962 200.701 13.3826C200.88 14.2677 200.97 15.1046 200.971 15.8931C200.974 25.6799 200.967 35.4663 200.951 45.2523C200.942 50.4067 198.577 53.803 193.162 53.832C189.71 53.8506 186.21 53.8467 182.662 53.8204ZM193.794 17.4005C193.791 15.9476 193.612 14.0969 191.711 14.003C190.972 13.9666 190.24 13.9589 189.513 13.9798C189.499 13.9801 189.486 13.9857 189.477 13.9955C189.467 14.0052 189.462 14.0183 189.462 14.032V47.023C189.462 47.0671 189.484 47.0903 189.528 47.0926C190.172 47.1282 190.816 47.1274 191.459 47.0903C193.635 46.9662 193.81 45.1051 193.811 43.397C193.817 34.7319 193.812 26.0664 193.794 17.4005Z" fill="white"/>
<path d="M50.2882 98.4908C49.0845 96.908 48.6483 94.8544 48.6437 92.9063C48.636 89.7453 48.6371 86.5843 48.6472 83.4233C48.6472 83.3893 48.6637 83.3723 48.6968 83.3723L55.4801 83.3734C55.5186 83.3734 55.5378 83.3931 55.5378 83.4326C55.537 85.7061 55.5382 87.9777 55.5413 90.2474C55.5424 91.8719 55.3532 94.5216 57.6797 94.6283C59.2295 94.699 59.885 93.6623 60.0062 92.243C60.1435 90.6428 60.177 88.6982 59.9854 87.2893C59.728 85.4073 58.7967 83.9323 57.6254 82.404C56.0152 80.3044 54.3984 78.2098 52.7751 76.1203C50.6632 73.3999 49.3961 70.6413 49.1041 67.1742C48.6102 61.3183 48.9934 54.8456 56.4979 54.3574C62.29 53.9805 66.7502 54.9302 66.8253 61.9039C66.8537 64.489 66.8587 67.1247 66.8403 69.811C66.8403 69.8252 66.8347 69.8388 66.8247 69.8488C66.8148 69.8588 66.8012 69.8644 66.7872 69.8644H60.155C60.1394 69.8644 60.1244 69.8582 60.1134 69.8471C60.1024 69.836 60.0962 69.8209 60.0962 69.8052C60.0962 67.582 60.0954 65.3502 60.0939 63.1099C60.0927 61.6662 59.6853 60.4081 57.9555 60.5321C56.9799 60.6032 56.4095 61.1088 56.2441 62.0488C56.0259 63.2838 56.0467 64.8481 56.1748 66.0134C56.3975 68.0427 57.4408 69.6673 58.656 71.2628C60.7047 73.953 62.1145 75.7898 62.8854 76.7731C64.6257 78.9937 66.2021 81.1749 66.9614 83.8964C67.5661 86.0613 67.5465 88.3608 67.4946 90.7077C67.4669 91.9864 67.395 92.989 67.2788 93.7157C66.6071 97.9156 64.1283 100.86 59.7604 101.281C56.4587 101.598 52.5039 101.407 50.2882 98.4908Z" fill="white"/>
<path d="M92.3271 96.4268C92.3259 96.4213 92.3231 96.4165 92.3189 96.413C92.3148 96.4095 92.3095 96.4074 92.3039 96.4072C92.2984 96.4069 92.2928 96.4084 92.288 96.4115C92.2833 96.4147 92.2796 96.4192 92.2775 96.4244C91.2838 98.9001 89.1316 101.137 86.4058 101.438C82.0448 101.921 79.5025 98.6137 78.9508 94.6781C78.8839 94.2027 78.8504 93.4818 78.8504 92.5155C78.8474 82.9745 78.8528 73.4336 78.8666 63.8926C78.8724 60.2979 80.0576 56.3843 83.7308 54.9418C85.6118 54.2032 87.726 54.231 89.7755 54.3412C95.4187 54.645 97.0112 58.4229 97.0793 63.4369C97.1047 65.303 97.1174 67.241 97.1174 69.251C97.1174 69.2823 97.105 69.3124 97.0829 69.3346C97.0609 69.3568 97.0309 69.3692 96.9997 69.3692L90.4149 69.3762C90.3846 69.3762 90.3555 69.3641 90.3341 69.3426C90.3127 69.3211 90.3006 69.2918 90.3006 69.2614C90.3045 67.3342 90.3029 65.402 90.296 63.4647C90.2902 61.9155 89.3589 60.7524 87.7029 61.0539C86.0734 61.3508 85.9477 63.1446 85.9477 64.47C85.9438 73.3508 85.9407 82.232 85.9384 91.1136C85.9373 92.6118 86.4485 94.3859 88.2522 94.3743C90.311 94.3627 90.7911 92.8587 90.7911 91.1345C90.7895 87.4161 90.7918 83.7062 90.798 80.0049C90.798 79.9927 90.7956 79.9807 90.791 79.9695C90.7863 79.9583 90.7795 79.9482 90.7709 79.9397C90.7623 79.9311 90.7521 79.9244 90.7409 79.9199C90.7297 79.9154 90.7178 79.9131 90.7057 79.9132L87.7664 79.9283C87.7508 79.9285 87.7354 79.9255 87.721 79.9197C87.7066 79.9138 87.6935 79.9051 87.6824 79.8941C87.6714 79.8831 87.6626 79.87 87.6566 79.8556C87.6506 79.8412 87.6475 79.8257 87.6475 79.8101V72.9373C87.6475 72.9065 87.6597 72.877 87.6813 72.8553C87.703 72.8335 87.7323 72.8213 87.7629 72.8213H97.3263C97.3532 72.8213 97.3791 72.8319 97.3981 72.8508C97.4171 72.8698 97.4278 72.8954 97.4278 72.9222V100.796C97.4278 100.835 97.4086 100.854 97.3701 100.854H93.5353C93.5177 100.854 93.5005 100.848 93.4866 100.837C93.4726 100.827 93.4626 100.812 93.458 100.795L92.3271 96.4268Z" fill="white"/>
<path d="M145.57 86.8185C146.069 93.0431 145.437 101.122 137.148 101.334C135.697 101.371 134.221 101.393 132.791 101.11C128.202 100.206 126.785 96.5473 126.773 92.3125C126.766 89.3518 126.766 86.391 126.772 83.4302C126.773 83.3923 126.792 83.3734 126.83 83.3734H133.635C133.65 83.3734 133.665 83.3796 133.676 83.3907C133.688 83.4018 133.694 83.4168 133.694 83.4325C133.694 86.1969 133.694 88.9699 133.694 91.7513C133.694 93.4767 134.416 94.7627 136.316 94.5911C137.728 94.4624 138.091 93.159 138.179 91.9461C138.28 90.567 138.281 89.1871 138.182 87.8064C138.032 85.7366 137.068 84.0819 135.828 82.4735C134.149 80.2966 132.466 78.1228 130.78 75.9521C128.461 72.9697 127.227 69.7252 127.169 65.9276C127.133 63.5899 127.032 61.8204 127.535 59.8329C128.903 54.4339 134.075 53.9863 138.656 54.3829C143.439 54.7968 144.959 57.8767 144.971 62.3283C144.977 64.8213 144.977 67.3144 144.972 69.8075C144.972 69.8226 144.966 69.837 144.955 69.8477C144.945 69.8583 144.93 69.8643 144.915 69.8643H138.311C138.295 69.8643 138.28 69.858 138.269 69.8467C138.257 69.8354 138.251 69.82 138.251 69.804C138.252 67.6874 138.254 65.5623 138.256 63.4287C138.257 62.2251 138.145 60.7396 136.628 60.5495C134.968 60.3407 134.382 61.2893 134.288 62.7701C134.233 63.6266 134.222 64.4843 134.253 65.3432C134.337 67.58 135.339 69.3414 136.658 71.0645C138.535 73.5158 140.411 75.9679 142.287 78.4208C144.218 80.9475 145.308 83.5635 145.57 86.8185Z" fill="white"/>
<path d="M155.793 101.401C151.967 101.386 148.9 99.5633 147.921 95.6892C147.526 94.1249 147.43 92.8621 147.43 91.0764C147.425 81.8895 147.425 72.7025 147.428 63.5156C147.43 58.7173 149.561 54.7527 154.808 54.3689C158.685 54.0848 163.225 54.2437 165.025 58.4135C165.762 60.1239 165.882 62.1218 165.887 63.9876C165.892 66.6917 165.893 69.3951 165.888 72.0976C165.888 72.1127 165.882 72.1272 165.872 72.1378C165.861 72.1485 165.847 72.1545 165.832 72.1545H159.083C159.07 72.1544 159.057 72.15 159.047 72.142C159.037 72.1341 159.03 72.123 159.026 72.1104C158.958 71.8356 159.021 71.5109 159.022 71.3149C159.027 68.9277 159.026 66.5406 159.019 64.1534C159.014 62.145 158.304 60.5228 155.909 61.1153C154.882 61.3693 154.554 62.479 154.553 63.4066C154.551 72.8355 154.55 82.2644 154.551 91.6933C154.551 93.0164 154.971 94.3881 156.504 94.5644C158.268 94.7673 159.042 93.261 159.014 91.7443C158.947 88.138 159.03 84.5004 159.023 80.8223C159.023 80.8069 159.029 80.7921 159.04 80.7813C159.051 80.7704 159.065 80.7643 159.081 80.7643H165.833C165.848 80.7643 165.863 80.7705 165.874 80.7816C165.885 80.7927 165.892 80.8078 165.892 80.8234C165.891 84.3996 165.888 87.9842 165.885 91.5773C165.88 96.9021 163.791 101.376 157.727 101.401C157.081 101.404 156.437 101.404 155.793 101.401Z" fill="white"/>
<path d="M194.401 100.784C189.84 99.1505 189.18 94.14 189.177 89.976C189.168 76.7908 189.168 68.3669 189.175 64.7042C189.183 60.5181 190.386 56.0572 194.886 54.7342C196.609 54.2274 198.576 54.2286 200.375 54.3434C207.047 54.7724 208.267 59.9557 208.27 65.5275C208.275 73.7759 208.275 82.0244 208.271 90.2728C208.269 95.8457 206.758 101.166 200.043 101.392C198.153 101.456 196.253 101.449 194.401 100.784ZM196.297 90.2079C196.301 91.8603 196.248 94.5006 198.636 94.5864C200.693 94.6595 201.149 92.8424 201.149 91.2005C201.149 82.1968 201.145 73.1931 201.135 64.1893C201.134 62.9811 200.764 61.462 199.449 61.1107C198.633 60.8927 197.919 61.0055 197.306 61.4493C196.208 62.2413 196.303 64.0282 196.3 65.204C196.277 73.539 196.276 81.8736 196.297 90.2079Z" fill="white"/>
<path d="M213.401 99.4115C210.859 97.1376 210.469 93.4583 210.467 90.2741C210.464 81.6345 210.464 72.9953 210.466 64.3564C210.467 59.4445 212.43 54.9372 217.91 54.4026C220.042 54.1939 222.31 54.1869 224.304 54.8572C228.774 56.36 229.532 60.9855 229.533 65.0788C229.536 73.6798 229.536 82.2807 229.534 90.8817C229.533 96.5903 227.435 101.376 220.909 101.405C218.154 101.416 215.588 101.369 213.401 99.4115ZM219.136 94.3998C220.254 94.8544 221.635 94.4659 222.087 93.2565C222.308 92.6667 222.418 92.0297 222.418 91.3455C222.414 82.4006 222.41 73.456 222.407 64.5118C222.407 63.5911 222.317 62.7272 221.919 62.0152C221.229 60.7849 219.215 60.6794 218.306 61.6917C217.681 62.3886 217.566 63.5841 217.566 64.5304C217.561 73.4374 217.567 82.3445 217.582 91.2516C217.584 92.4993 217.831 93.8699 219.136 94.3998Z" fill="white"/>
<path d="M21.2845 100.832C17.6071 100.861 13.9331 100.866 10.2625 100.847C10.2494 100.847 10.2367 100.842 10.2274 100.832C10.2181 100.823 10.2129 100.81 10.2129 100.797V54.7911C10.2129 54.7772 10.2184 54.764 10.2281 54.7542C10.2378 54.7444 10.251 54.7389 10.2648 54.7389C14.0777 54.7188 17.8975 54.7254 21.7242 54.7586C22.4213 54.7648 23.1514 54.8827 23.9146 55.1123C27.9698 56.3356 28.7014 59.9199 28.7026 63.6676C28.7072 73.2604 28.708 82.8536 28.7049 92.4471C28.7049 92.8321 28.661 93.3833 28.5733 94.1007C28.0621 98.2682 25.566 100.798 21.2845 100.832ZM21.5384 64.4213C21.5361 62.878 21.3076 61.0319 19.2985 61.0273C18.2968 61.0249 17.6102 61.0226 17.2386 61.0203C17.1924 61.0203 17.1693 61.0435 17.1693 61.0899L17.1659 94.0404C17.1659 94.086 17.1885 94.1095 17.2339 94.1111C19.0504 94.183 20.9949 94.3998 21.4115 92.2129C21.5038 91.7258 21.55 91.2338 21.55 90.7367C21.5523 81.9649 21.5484 73.1931 21.5384 64.4213Z" fill="white"/>
<path d="M31.1582 100.777V54.8085C31.1582 54.7882 31.1662 54.7687 31.1805 54.7543C31.1948 54.74 31.2142 54.7319 31.2344 54.7319H46.9498C46.97 54.7319 46.9894 54.74 47.0037 54.7543C47.0179 54.7687 47.026 54.7882 47.026 54.8085V61.3519C47.026 61.3722 47.0179 61.3917 47.0037 61.4061C46.9894 61.4204 46.97 61.4285 46.9498 61.4285H38.2162C38.2062 61.4285 38.1963 61.4305 38.187 61.4343C38.1778 61.4381 38.1694 61.4438 38.1623 61.4509C38.1553 61.458 38.1496 61.4664 38.1458 61.4757C38.142 61.485 38.14 61.495 38.14 61.505V73.4162C38.14 73.4262 38.142 73.4362 38.1458 73.4454C38.1496 73.4547 38.1553 73.4632 38.1623 73.4703C38.1694 73.4774 38.1778 73.483 38.187 73.4869C38.1963 73.4907 38.2062 73.4927 38.2162 73.4927L45.0457 73.4857C45.0659 73.4857 45.0852 73.4938 45.0995 73.5082C45.1138 73.5225 45.1218 73.542 45.1218 73.5623V80.4559C45.1218 80.4762 45.1138 80.4957 45.0995 80.5101C45.0852 80.5244 45.0659 80.5325 45.0457 80.5325H38.2162C38.2062 80.5325 38.1963 80.5344 38.187 80.5383C38.1778 80.5421 38.1694 80.5478 38.1623 80.5549C38.1553 80.562 38.1496 80.5704 38.1458 80.5797C38.142 80.589 38.14 80.5989 38.14 80.609V93.7621C38.14 93.7824 38.148 93.8018 38.1623 93.8162C38.1766 93.8305 38.196 93.8386 38.2162 93.8386H47.3249C47.3451 93.8386 47.3644 93.8466 47.3787 93.861C47.393 93.8754 47.401 93.8948 47.401 93.9151V100.777C47.401 100.798 47.393 100.817 47.3787 100.832C47.3644 100.846 47.3451 100.854 47.3249 100.854H31.2344C31.2142 100.854 31.1948 100.846 31.1805 100.832C31.1662 100.817 31.1582 100.798 31.1582 100.777Z" fill="white"/>
<path d="M76.3887 54.7332H69.5384C69.5021 54.7332 69.4727 54.7627 69.4727 54.7992V100.788C69.4727 100.824 69.5021 100.854 69.5384 100.854H76.3887C76.425 100.854 76.4545 100.824 76.4545 100.788V54.7992C76.4545 54.7627 76.425 54.7332 76.3887 54.7332Z" fill="white"/>
<path d="M112.084 79.0853V54.7922C112.084 54.7778 112.09 54.7639 112.1 54.7537C112.11 54.7435 112.124 54.7377 112.139 54.7377L118.374 54.7343C118.397 54.7343 118.419 54.7433 118.435 54.7594C118.451 54.7755 118.46 54.7973 118.46 54.8201V100.796C118.46 100.811 118.454 100.826 118.443 100.837C118.432 100.848 118.417 100.854 118.402 100.854H112.832C112.812 100.854 112.794 100.847 112.779 100.836C112.764 100.824 112.753 100.807 112.748 100.788L106.158 74.5398C106.156 74.5307 106.15 74.5228 106.142 74.5176C106.135 74.5123 106.125 74.51 106.116 74.5112C106.107 74.5123 106.099 74.5168 106.092 74.5238C106.086 74.5307 106.083 74.5397 106.083 74.5491C106.084 74.5668 106.086 74.5831 106.089 74.5978C106.095 74.6236 106.101 74.6476 106.105 74.6668C106.109 74.686 106.111 74.6995 106.112 74.7056V100.796C106.112 100.811 106.106 100.826 106.095 100.837C106.084 100.848 106.069 100.854 106.054 100.854H99.9377C99.9071 100.854 99.8777 100.842 99.8561 100.82C99.8344 100.798 99.8223 100.769 99.8223 100.738V54.7899C99.8223 54.7745 99.8283 54.7598 99.8392 54.7489C99.85 54.738 99.8647 54.7319 99.88 54.7319H106.085C106.096 54.7319 106.107 54.7357 106.115 54.7427C106.124 54.7496 106.13 54.7593 106.132 54.7702L112.017 79.0934C112.017 79.0979 112.019 79.1021 112.021 79.106C112.023 79.1099 112.026 79.1133 112.029 79.116C112.033 79.1188 112.037 79.1208 112.041 79.122C112.045 79.1232 112.05 79.1235 112.054 79.123C112.059 79.1225 112.063 79.1211 112.067 79.1189C112.071 79.1167 112.074 79.1138 112.077 79.1103C112.08 79.1068 112.082 79.1028 112.083 79.0985C112.084 79.0942 112.084 79.0897 112.084 79.0853Z" fill="white"/>
<path d="M175.068 80.6751L175.062 100.769C175.062 100.78 175.059 100.791 175.055 100.802C175.051 100.812 175.045 100.821 175.037 100.829C175.029 100.837 175.02 100.843 175.01 100.848C174.999 100.852 174.988 100.854 174.977 100.854H168.166C168.144 100.854 168.123 100.845 168.107 100.829C168.091 100.813 168.082 100.792 168.082 100.769V54.8189C168.082 54.7965 168.091 54.7749 168.107 54.759C168.123 54.7432 168.144 54.7343 168.166 54.7343L174.981 54.7401C175.003 54.7401 175.025 54.749 175.04 54.7648C175.056 54.7807 175.065 54.8022 175.065 54.8247L175.063 73.1135C175.063 73.136 175.072 73.1575 175.087 73.1734C175.103 73.1892 175.125 73.1982 175.147 73.1982H179.711C179.733 73.1982 179.755 73.1892 179.771 73.1734C179.786 73.1575 179.795 73.136 179.795 73.1135V54.8166C179.795 54.7941 179.804 54.7726 179.82 54.7567C179.836 54.7409 179.857 54.7319 179.88 54.7319H186.722C186.744 54.7319 186.766 54.7409 186.781 54.7567C186.797 54.7726 186.806 54.7941 186.806 54.8166V100.769C186.806 100.792 186.797 100.813 186.781 100.829C186.766 100.845 186.744 100.854 186.722 100.854H179.88C179.857 100.854 179.836 100.845 179.82 100.829C179.804 100.813 179.795 100.792 179.795 100.769V80.6751C179.795 80.6526 179.786 80.6311 179.771 80.6152C179.755 80.5994 179.733 80.5904 179.711 80.5904H175.153C175.13 80.5904 175.109 80.5994 175.093 80.6152C175.077 80.6311 175.068 80.6526 175.068 80.6751Z" fill="white"/>
<path d="M238.993 93.7226H247.34C247.362 93.7226 247.383 93.7313 247.398 93.7467C247.414 93.7622 247.422 93.7831 247.422 93.805V100.772C247.422 100.794 247.414 100.814 247.398 100.83C247.383 100.845 247.362 100.854 247.34 100.854H232.012C231.99 100.854 231.969 100.845 231.954 100.83C231.938 100.814 231.93 100.794 231.93 100.772V54.8143C231.93 54.7924 231.938 54.7715 231.954 54.756C231.969 54.7406 231.99 54.7319 232.012 54.7319H238.83C238.851 54.7319 238.872 54.7406 238.887 54.756C238.903 54.7715 238.912 54.7924 238.912 54.8143V93.6403C238.912 93.6621 238.92 93.6831 238.936 93.6985C238.951 93.714 238.972 93.7226 238.993 93.7226Z" fill="white"/>
</svg>
