<svg width="415" height="540" viewBox="0 0 415 540" fill="none" xmlns="http://www.w3.org/2000/svg">
<path fill-rule="evenodd" clip-rule="evenodd" d="M411 129H4V536H411V129ZM0 125V540H415V125H0Z" fill="black"/>
<path fill-rule="evenodd" clip-rule="evenodd" d="M146.086 0.585786C146.461 0.210714 146.97 0 147.5 0H267C267.53 0 268.039 0.210714 268.414 0.585786L299.914 32.0858C300.289 32.4609 300.5 32.9696 300.5 33.5V127C300.5 128.105 299.605 129 298.5 129H267C265.895 129 265 128.105 265 127V35.5H149.5V127C149.5 128.105 148.605 129 147.5 129H116C114.895 129 114 128.105 114 127V33.5C114 32.9696 114.211 32.4609 114.586 32.0858L146.086 0.585786ZM149.5 31.5H265V4H149.5V31.5ZM145.5 6.82843V31.5H120.828L145.5 6.82843ZM118 35.5H145.5V125H118V35.5ZM269 6.82843L293.672 31.5H269V6.82843ZM269 35.5V125H296.5V35.5H269Z" fill="black"/>
</svg>
