<svg width="249" height="249" viewBox="0 0 249 249" fill="none" xmlns="http://www.w3.org/2000/svg">
<path d="M22.1648 15.5625H15.5625V22.1648H22.1648V15.5625Z" fill="black"/>
<path d="M28.767 15.5625H22.1648V22.1648H28.767V15.5625Z" fill="black"/>
<path d="M35.3693 15.5625H28.767V22.1648H35.3693V15.5625Z" fill="black"/>
<path d="M41.9716 15.5625H35.3693V22.1648H41.9716V15.5625Z" fill="black"/>
<path d="M48.5739 15.5625H41.9716V22.1648H48.5739V15.5625Z" fill="black"/>
<path d="M55.1761 15.5625H48.5739V22.1648H55.1761V15.5625Z" fill="black"/>
<path d="M61.7784 15.5625H55.1761V22.1648H61.7784V15.5625Z" fill="black"/>
<path d="M74.983 15.5625H68.3807V22.1648H74.983V15.5625Z" fill="black"/>
<path d="M88.1875 15.5625H81.5852V22.1648H88.1875V15.5625Z" fill="black"/>
<path d="M107.994 15.5625H101.392V22.1648H107.994V15.5625Z" fill="black"/>
<path d="M114.597 15.5625H107.994V22.1648H114.597V15.5625Z" fill="black"/>
<path d="M121.199 15.5625H114.597V22.1648H121.199V15.5625Z" fill="black"/>
<path d="M127.801 15.5625H121.199V22.1648H127.801V15.5625Z" fill="black"/>
<path d="M141.006 15.5625H134.403V22.1648H141.006V15.5625Z" fill="black"/>
<path d="M167.415 15.5625H160.812V22.1648H167.415V15.5625Z" fill="black"/>
<path d="M180.619 15.5625H174.017V22.1648H180.619V15.5625Z" fill="black"/>
<path d="M193.824 15.5625H187.222V22.1648H193.824V15.5625Z" fill="black"/>
<path d="M200.426 15.5625H193.824V22.1648H200.426V15.5625Z" fill="black"/>
<path d="M207.028 15.5625H200.426V22.1648H207.028V15.5625Z" fill="black"/>
<path d="M213.631 15.5625H207.028V22.1648H213.631V15.5625Z" fill="black"/>
<path d="M220.233 15.5625H213.631V22.1648H220.233V15.5625Z" fill="black"/>
<path d="M226.835 15.5625H220.233V22.1648H226.835V15.5625Z" fill="black"/>
<path d="M233.438 15.5625H226.835V22.1648H233.438V15.5625Z" fill="black"/>
<path d="M22.1648 22.1648H15.5625V28.767H22.1648V22.1648Z" fill="black"/>
<path d="M61.7784 22.1648H55.1761V28.767H61.7784V22.1648Z" fill="black"/>
<path d="M81.5852 22.1648H74.983V28.767H81.5852V22.1648Z" fill="black"/>
<path d="M88.1875 22.1648H81.5852V28.767H88.1875V22.1648Z" fill="black"/>
<path d="M94.7898 22.1648H88.1875V28.767H94.7898V22.1648Z" fill="black"/>
<path d="M107.994 22.1648H101.392V28.767H107.994V22.1648Z" fill="black"/>
<path d="M121.199 22.1648H114.597V28.767H121.199V22.1648Z" fill="black"/>
<path d="M127.801 22.1648H121.199V28.767H127.801V22.1648Z" fill="black"/>
<path d="M141.006 22.1648H134.403V28.767H141.006V22.1648Z" fill="black"/>
<path d="M154.21 22.1648H147.608V28.767H154.21V22.1648Z" fill="black"/>
<path d="M160.812 22.1648H154.21V28.767H160.812V22.1648Z" fill="black"/>
<path d="M167.415 22.1648H160.812V28.767H167.415V22.1648Z" fill="black"/>
<path d="M174.017 22.1648H167.415V28.767H174.017V22.1648Z" fill="black"/>
<path d="M193.824 22.1648H187.222V28.767H193.824V22.1648Z" fill="black"/>
<path d="M233.438 22.1648H226.835V28.767H233.438V22.1648Z" fill="black"/>
<path d="M22.1648 28.767H15.5625V35.3693H22.1648V28.767Z" fill="black"/>
<path d="M35.3693 28.767H28.767V35.3693H35.3693V28.767Z" fill="black"/>
<path d="M41.9716 28.767H35.3693V35.3693H41.9716V28.767Z" fill="black"/>
<path d="M48.5739 28.767H41.9716V35.3693H48.5739V28.767Z" fill="black"/>
<path d="M61.7784 28.767H55.1761V35.3693H61.7784V28.767Z" fill="black"/>
<path d="M88.1875 28.767H81.5852V35.3693H88.1875V28.767Z" fill="black"/>
<path d="M94.7898 28.767H88.1875V35.3693H94.7898V28.767Z" fill="black"/>
<path d="M107.994 28.767H101.392V35.3693H107.994V28.767Z" fill="black"/>
<path d="M114.597 28.767H107.994V35.3693H114.597V28.767Z" fill="black"/>
<path d="M121.199 28.767H114.597V35.3693H121.199V28.767Z" fill="black"/>
<path d="M154.21 28.767H147.608V35.3693H154.21V28.767Z" fill="black"/>
<path d="M167.415 28.767H160.812V35.3693H167.415V28.767Z" fill="black"/>
<path d="M193.824 28.767H187.222V35.3693H193.824V28.767Z" fill="black"/>
<path d="M207.028 28.767H200.426V35.3693H207.028V28.767Z" fill="black"/>
<path d="M213.631 28.767H207.028V35.3693H213.631V28.767Z" fill="black"/>
<path d="M220.233 28.767H213.631V35.3693H220.233V28.767Z" fill="black"/>
<path d="M233.438 28.767H226.835V35.3693H233.438V28.767Z" fill="black"/>
<path d="M22.1648 35.3693H15.5625V41.9716H22.1648V35.3693Z" fill="black"/>
<path d="M35.3693 35.3693H28.767V41.9716H35.3693V35.3693Z" fill="black"/>
<path d="M41.9716 35.3693H35.3693V41.9716H41.9716V35.3693Z" fill="black"/>
<path d="M48.5739 35.3693H41.9716V41.9716H48.5739V35.3693Z" fill="black"/>
<path d="M61.7784 35.3693H55.1761V41.9716H61.7784V35.3693Z" fill="black"/>
<path d="M74.983 35.3693H68.3807V41.9716H74.983V35.3693Z" fill="black"/>
<path d="M94.7898 35.3693H88.1875V41.9716H94.7898V35.3693Z" fill="black"/>
<path d="M101.392 35.3693H94.7898V41.9716H101.392V35.3693Z" fill="black"/>
<path d="M114.597 35.3693H107.994V41.9716H114.597V35.3693Z" fill="black"/>
<path d="M127.801 35.3693H121.199V41.9716H127.801V35.3693Z" fill="black"/>
<path d="M134.403 35.3693H127.801V41.9716H134.403V35.3693Z" fill="black"/>
<path d="M141.006 35.3693H134.403V41.9716H141.006V35.3693Z" fill="black"/>
<path d="M160.812 35.3693H154.21V41.9716H160.812V35.3693Z" fill="black"/>
<path d="M167.415 35.3693H160.812V41.9716H167.415V35.3693Z" fill="black"/>
<path d="M174.017 35.3693H167.415V41.9716H174.017V35.3693Z" fill="black"/>
<path d="M180.619 35.3693H174.017V41.9716H180.619V35.3693Z" fill="black"/>
<path d="M193.824 35.3693H187.222V41.9716H193.824V35.3693Z" fill="black"/>
<path d="M207.028 35.3693H200.426V41.9716H207.028V35.3693Z" fill="black"/>
<path d="M213.631 35.3693H207.028V41.9716H213.631V35.3693Z" fill="black"/>
<path d="M220.233 35.3693H213.631V41.9716H220.233V35.3693Z" fill="black"/>
<path d="M233.438 35.3693H226.835V41.9716H233.438V35.3693Z" fill="black"/>
<path d="M22.1648 41.9716H15.5625V48.5739H22.1648V41.9716Z" fill="black"/>
<path d="M35.3693 41.9716H28.767V48.5739H35.3693V41.9716Z" fill="black"/>
<path d="M41.9716 41.9716H35.3693V48.5739H41.9716V41.9716Z" fill="black"/>
<path d="M48.5739 41.9716H41.9716V48.5739H48.5739V41.9716Z" fill="black"/>
<path d="M61.7784 41.9716H55.1761V48.5739H61.7784V41.9716Z" fill="black"/>
<path d="M88.1875 41.9716H81.5852V48.5739H88.1875V41.9716Z" fill="black"/>
<path d="M107.994 41.9716H101.392V48.5739H107.994V41.9716Z" fill="black"/>
<path d="M114.597 41.9716H107.994V48.5739H114.597V41.9716Z" fill="black"/>
<path d="M121.199 41.9716H114.597V48.5739H121.199V41.9716Z" fill="black"/>
<path d="M147.608 41.9716H141.006L141.006 48.5739H147.608V41.9716Z" fill="black"/>
<path d="M160.812 41.9716H154.21V48.5739H160.812V41.9716Z" fill="black"/>
<path d="M180.619 41.9716H174.017V48.5739H180.619V41.9716Z" fill="black"/>
<path d="M193.824 41.9716H187.222V48.5739H193.824V41.9716Z" fill="black"/>
<path d="M207.028 41.9716H200.426V48.5739H207.028V41.9716Z" fill="black"/>
<path d="M213.631 41.9716H207.028V48.5739H213.631V41.9716Z" fill="black"/>
<path d="M220.233 41.9716H213.631V48.5739H220.233V41.9716Z" fill="black"/>
<path d="M233.438 41.9716H226.835V48.5739H233.438V41.9716Z" fill="black"/>
<path d="M22.1648 48.5739H15.5625V55.1761H22.1648V48.5739Z" fill="black"/>
<path d="M61.7784 48.5739H55.1761V55.1761H61.7784V48.5739Z" fill="black"/>
<path d="M74.983 48.5739H68.3807V55.1761H74.983V48.5739Z" fill="black"/>
<path d="M81.5852 48.5739H74.983V55.1761H81.5852V48.5739Z" fill="black"/>
<path d="M101.392 48.5739H94.7898V55.1761H101.392V48.5739Z" fill="black"/>
<path d="M121.199 48.5739H114.597V55.1761H121.199V48.5739Z" fill="black"/>
<path d="M134.403 48.5739H127.801V55.1761H134.403V48.5739Z" fill="black"/>
<path d="M154.21 48.5739H147.608V55.1761H154.21V48.5739Z" fill="black"/>
<path d="M160.812 48.5739H154.21V55.1761H160.812V48.5739Z" fill="black"/>
<path d="M193.824 48.5739H187.222V55.1761H193.824V48.5739Z" fill="black"/>
<path d="M233.438 48.5739H226.835V55.1761H233.438V48.5739Z" fill="black"/>
<path d="M22.1648 55.1761H15.5625V61.7784H22.1648V55.1761Z" fill="black"/>
<path d="M28.767 55.1761H22.1648V61.7784H28.767V55.1761Z" fill="black"/>
<path d="M35.3693 55.1761H28.767V61.7784H35.3693V55.1761Z" fill="black"/>
<path d="M41.9716 55.1761H35.3693V61.7784H41.9716V55.1761Z" fill="black"/>
<path d="M48.5739 55.1761H41.9716V61.7784H48.5739V55.1761Z" fill="black"/>
<path d="M55.1761 55.1761H48.5739V61.7784H55.1761V55.1761Z" fill="black"/>
<path d="M61.7784 55.1761H55.1761V61.7784H61.7784V55.1761Z" fill="black"/>
<path d="M74.983 55.1761H68.3807V61.7784H74.983V55.1761Z" fill="black"/>
<path d="M88.1875 55.1761H81.5852V61.7784H88.1875V55.1761Z" fill="black"/>
<path d="M101.392 55.1761H94.7898V61.7784H101.392V55.1761Z" fill="black"/>
<path d="M114.597 55.1761H107.994V61.7784H114.597V55.1761Z" fill="black"/>
<path d="M127.801 55.1761H121.199V61.7784H127.801V55.1761Z" fill="black"/>
<path d="M141.006 55.1761H134.403V61.7784H141.006V55.1761Z" fill="black"/>
<path d="M154.21 55.1761H147.608V61.7784H154.21V55.1761Z" fill="black"/>
<path d="M167.415 55.1761H160.812V61.7784H167.415V55.1761Z" fill="black"/>
<path d="M180.619 55.1761H174.017V61.7784H180.619V55.1761Z" fill="black"/>
<path d="M193.824 55.1761H187.222V61.7784H193.824V55.1761Z" fill="black"/>
<path d="M200.426 55.1761H193.824V61.7784H200.426V55.1761Z" fill="black"/>
<path d="M207.028 55.1761H200.426V61.7784H207.028V55.1761Z" fill="black"/>
<path d="M213.631 55.1761H207.028V61.7784H213.631V55.1761Z" fill="black"/>
<path d="M220.233 55.1761H213.631V61.7784H220.233V55.1761Z" fill="black"/>
<path d="M226.835 55.1761H220.233V61.7784H226.835V55.1761Z" fill="black"/>
<path d="M233.438 55.1761H226.835V61.7784H233.438V55.1761Z" fill="black"/>
<path d="M94.7898 61.7784H88.1875V68.3807H94.7898V61.7784Z" fill="black"/>
<path d="M101.392 61.7784H94.7898V68.3807H101.392V61.7784Z" fill="black"/>
<path d="M107.994 61.7784H101.392V68.3807H107.994V61.7784Z" fill="black"/>
<path d="M134.403 61.7784H127.801V68.3807H134.403V61.7784Z" fill="black"/>
<path d="M147.608 61.7784H141.006L141.006 68.3807H147.608V61.7784Z" fill="black"/>
<path d="M160.812 61.7784H154.21V68.3807H160.812V61.7784Z" fill="black"/>
<path d="M167.415 61.7784H160.812V68.3807H167.415V61.7784Z" fill="black"/>
<path d="M55.1761 68.3807H48.5739V74.983H55.1761V68.3807Z" fill="black"/>
<path d="M61.7784 68.3807H55.1761V74.983H61.7784V68.3807Z" fill="black"/>
<path d="M74.983 68.3807H68.3807V74.983H74.983V68.3807Z" fill="black"/>
<path d="M81.5852 68.3807H74.983V74.983H81.5852V68.3807Z" fill="black"/>
<path d="M88.1875 68.3807H81.5852V74.983H88.1875V68.3807Z" fill="black"/>
<path d="M107.994 68.3807H101.392V74.983H107.994V68.3807Z" fill="black"/>
<path d="M114.597 68.3807H107.994V74.983H114.597V68.3807Z" fill="black"/>
<path d="M121.199 68.3807H114.597V74.983H121.199V68.3807Z" fill="black"/>
<path d="M154.21 68.3807H147.608V74.983H154.21V68.3807Z" fill="black"/>
<path d="M174.017 68.3807H167.415V74.983H174.017V68.3807Z" fill="black"/>
<path d="M187.222 68.3807H180.619V74.983H187.222V68.3807Z" fill="black"/>
<path d="M200.426 68.3807H193.824V74.983H200.426V68.3807Z" fill="black"/>
<path d="M213.631 68.3807H207.028V74.983H213.631V68.3807Z" fill="black"/>
<path d="M233.438 68.3807H226.835V74.983H233.438V68.3807Z" fill="black"/>
<path d="M28.767 74.983H22.1648V81.5852H28.767V74.983Z" fill="black"/>
<path d="M35.3693 74.983H28.767V81.5852H35.3693V74.983Z" fill="black"/>
<path d="M55.1761 74.983H48.5739V81.5852H55.1761V74.983Z" fill="black"/>
<path d="M68.3807 74.983H61.7784V81.5852H68.3807V74.983Z" fill="black"/>
<path d="M74.983 74.983H68.3807V81.5852H74.983V74.983Z" fill="black"/>
<path d="M81.5852 74.983H74.983V81.5852H81.5852V74.983Z" fill="black"/>
<path d="M94.7898 74.983H88.1875V81.5852H94.7898V74.983Z" fill="black"/>
<path d="M101.392 74.983H94.7898V81.5852H101.392V74.983Z" fill="black"/>
<path d="M114.597 74.983H107.994V81.5852H114.597V74.983Z" fill="black"/>
<path d="M121.199 74.983H114.597V81.5852H121.199V74.983Z" fill="black"/>
<path d="M147.608 74.983H141.006V81.5852H147.608V74.983Z" fill="black"/>
<path d="M160.812 74.983H154.21V81.5852H160.812V74.983Z" fill="black"/>
<path d="M167.415 74.983H160.812V81.5852H167.415V74.983Z" fill="black"/>
<path d="M200.426 74.983H193.824V81.5852H200.426V74.983Z" fill="black"/>
<path d="M213.631 74.983H207.028V81.5852H213.631V74.983Z" fill="black"/>
<path d="M233.438 74.983H226.835V81.5852H233.438V74.983Z" fill="black"/>
<path d="M41.9716 81.5852H35.3693V88.1875H41.9716V81.5852Z" fill="black"/>
<path d="M48.5739 81.5852H41.9716V88.1875H48.5739V81.5852Z" fill="black"/>
<path d="M61.7784 81.5852H55.1761V88.1875H61.7784V81.5852Z" fill="black"/>
<path d="M68.3807 81.5852H61.7784V88.1875H68.3807V81.5852Z" fill="black"/>
<path d="M81.5852 81.5852H74.983V88.1875H81.5852V81.5852Z" fill="black"/>
<path d="M88.1875 81.5852H81.5852V88.1875H88.1875V81.5852Z" fill="black"/>
<path d="M101.392 81.5852H94.7898V88.1875H101.392V81.5852Z" fill="black"/>
<path d="M121.199 81.5852H114.597V88.1875H121.199V81.5852Z" fill="black"/>
<path d="M127.801 81.5852H121.199V88.1875H127.801V81.5852Z" fill="black"/>
<path d="M134.403 81.5852H127.801V88.1875H134.403V81.5852Z" fill="black"/>
<path d="M167.415 81.5852H160.812V88.1875H167.415V81.5852Z" fill="black"/>
<path d="M174.017 81.5852H167.415V88.1875H174.017V81.5852Z" fill="black"/>
<path d="M180.619 81.5852H174.017V88.1875H180.619V81.5852Z" fill="black"/>
<path d="M187.222 81.5852H180.619V88.1875H187.222V81.5852Z" fill="black"/>
<path d="M193.824 81.5852H187.222V88.1875H193.824V81.5852Z" fill="black"/>
<path d="M220.233 81.5852H213.631V88.1875H220.233V81.5852Z" fill="black"/>
<path d="M226.835 81.5852H220.233V88.1875H226.835V81.5852Z" fill="black"/>
<path d="M28.767 88.1875H22.1648V94.7898H28.767V88.1875Z" fill="black"/>
<path d="M48.5739 88.1875H41.9716V94.7898H48.5739V88.1875Z" fill="black"/>
<path d="M55.1761 88.1875H48.5739V94.7898H55.1761V88.1875Z" fill="black"/>
<path d="M68.3807 88.1875H61.7784V94.7898H68.3807V88.1875Z" fill="black"/>
<path d="M81.5852 88.1875H74.983V94.7898H81.5852V88.1875Z" fill="black"/>
<path d="M101.392 88.1875H94.7898V94.7898H101.392V88.1875Z" fill="black"/>
<path d="M107.994 88.1875H101.392V94.7898H107.994V88.1875Z" fill="black"/>
<path d="M114.597 88.1875H107.994V94.7898H114.597V88.1875Z" fill="black"/>
<path d="M121.199 88.1875H114.597V94.7898H121.199V88.1875Z" fill="black"/>
<path d="M127.801 88.1875H121.199V94.7898H127.801V88.1875Z" fill="black"/>
<path d="M134.403 88.1875H127.801V94.7898H134.403V88.1875Z" fill="black"/>
<path d="M141.006 88.1875H134.403V94.7898H141.006V88.1875Z" fill="black"/>
<path d="M147.608 88.1875H141.006V94.7898H147.608V88.1875Z" fill="black"/>
<path d="M160.812 88.1875H154.21V94.7898H160.812V88.1875Z" fill="black"/>
<path d="M193.824 88.1875H187.222V94.7898H193.824V88.1875Z" fill="black"/>
<path d="M200.426 88.1875H193.824V94.7898H200.426V88.1875Z" fill="black"/>
<path d="M220.233 88.1875H213.631V94.7898H220.233V88.1875Z" fill="black"/>
<path d="M22.1648 94.7898H15.5625V101.392H22.1648V94.7898Z" fill="black"/>
<path d="M28.767 94.7898H22.1648V101.392H28.767V94.7898Z" fill="black"/>
<path d="M41.9716 94.7898H35.3693V101.392H41.9716V94.7898Z" fill="black"/>
<path d="M48.5739 94.7898H41.9716V101.392H48.5739V94.7898Z" fill="black"/>
<path d="M61.7784 94.7898H55.1761V101.392H61.7784V94.7898Z" fill="black"/>
<path d="M68.3807 94.7898H61.7784V101.392H68.3807V94.7898Z" fill="black"/>
<path d="M74.983 94.7898H68.3807V101.392H74.983V94.7898Z" fill="black"/>
<path d="M88.1875 94.7898H81.5852V101.392H88.1875V94.7898Z" fill="black"/>
<path d="M101.392 94.7898H94.7898V101.392H101.392V94.7898Z" fill="black"/>
<path d="M121.199 94.7898H114.597V101.392H121.199V94.7898Z" fill="black"/>
<path d="M127.801 94.7898H121.199V101.392H127.801V94.7898Z" fill="black"/>
<path d="M154.21 94.7898H147.608V101.392H154.21V94.7898Z" fill="black"/>
<path d="M167.415 94.7898H160.812V101.392H167.415V94.7898Z" fill="black"/>
<path d="M180.619 94.7898H174.017V101.392H180.619V94.7898Z" fill="black"/>
<path d="M200.426 94.7898H193.824V101.392H200.426V94.7898Z" fill="black"/>
<path d="M207.028 94.7898H200.426V101.392H207.028V94.7898Z" fill="black"/>
<path d="M213.631 94.7898H207.028V101.392H213.631V94.7898Z" fill="black"/>
<path d="M233.438 94.7898H226.835V101.392H233.438V94.7898Z" fill="black"/>
<path d="M41.9716 101.392H35.3693V107.994H41.9716V101.392Z" fill="black"/>
<path d="M74.983 101.392H68.3807V107.994H74.983V101.392Z" fill="black"/>
<path d="M107.994 101.392H101.392V107.994H107.994V101.392Z" fill="black"/>
<path d="M121.199 101.392H114.597V107.994H121.199V101.392Z" fill="black"/>
<path d="M127.801 101.392H121.199V107.994H127.801V101.392Z" fill="black"/>
<path d="M147.608 101.392H141.006V107.994H147.608V101.392Z" fill="black"/>
<path d="M154.21 101.392H147.608V107.994H154.21V101.392Z" fill="black"/>
<path d="M160.812 101.392H154.21V107.994H160.812V101.392Z" fill="black"/>
<path d="M167.415 101.392H160.812V107.994H167.415V101.392Z" fill="black"/>
<path d="M174.017 101.392H167.415V107.994H174.017V101.392Z" fill="black"/>
<path d="M180.619 101.392H174.017V107.994H180.619V101.392Z" fill="black"/>
<path d="M200.426 101.392H193.824V107.994H200.426V101.392Z" fill="black"/>
<path d="M207.028 101.392H200.426V107.994H207.028V101.392Z" fill="black"/>
<path d="M226.835 101.392H220.233V107.994H226.835V101.392Z" fill="black"/>
<path d="M233.438 101.392H226.835V107.994H233.438V101.392Z" fill="black"/>
<path d="M22.1648 107.994H15.5625V114.597H22.1648V107.994Z" fill="black"/>
<path d="M35.3693 107.994H28.767V114.597H35.3693V107.994Z" fill="black"/>
<path d="M61.7784 107.994H55.1761V114.597H61.7784V107.994Z" fill="black"/>
<path d="M74.983 107.994H68.3807V114.597H74.983V107.994Z" fill="black"/>
<path d="M81.5852 107.994H74.983V114.597H81.5852V107.994Z" fill="black"/>
<path d="M94.7898 107.994H88.1875V114.597H94.7898V107.994Z" fill="black"/>
<path d="M114.597 107.994H107.994V114.597H114.597V107.994Z" fill="black"/>
<path d="M121.199 107.994H114.597V114.597H121.199V107.994Z" fill="black"/>
<path d="M141.006 107.994H134.403V114.597H141.006L141.006 107.994Z" fill="black"/>
<path d="M154.21 107.994H147.608V114.597H154.21V107.994Z" fill="black"/>
<path d="M167.415 107.994H160.812V114.597H167.415V107.994Z" fill="black"/>
<path d="M174.017 107.994H167.415V114.597H174.017V107.994Z" fill="black"/>
<path d="M207.028 107.994H200.426V114.597H207.028V107.994Z" fill="black"/>
<path d="M226.835 107.994H220.233V114.597H226.835V107.994Z" fill="black"/>
<path d="M233.438 107.994H226.835V114.597H233.438V107.994Z" fill="black"/>
<path d="M22.1648 114.597H15.5625V121.199H22.1648V114.597Z" fill="black"/>
<path d="M28.767 114.597H22.1648V121.199H28.767V114.597Z" fill="black"/>
<path d="M41.9716 114.597H35.3693V121.199H41.9716V114.597Z" fill="black"/>
<path d="M74.983 114.597H68.3807V121.199H74.983V114.597Z" fill="black"/>
<path d="M107.994 114.597H101.392V121.199H107.994V114.597Z" fill="black"/>
<path d="M121.199 114.597H114.597V121.199H121.199V114.597Z" fill="black"/>
<path d="M154.21 114.597H147.608V121.199H154.21V114.597Z" fill="black"/>
<path d="M160.812 114.597H154.21V121.199H160.812V114.597Z" fill="black"/>
<path d="M167.415 114.597H160.812V121.199H167.415V114.597Z" fill="black"/>
<path d="M180.619 114.597H174.017V121.199H180.619V114.597Z" fill="black"/>
<path d="M207.028 114.597H200.426V121.199H207.028V114.597Z" fill="black"/>
<path d="M213.631 114.597H207.028V121.199H213.631V114.597Z" fill="black"/>
<path d="M226.835 114.597H220.233V121.199H226.835V114.597Z" fill="black"/>
<path d="M35.3693 121.199H28.767V127.801H35.3693V121.199Z" fill="black"/>
<path d="M48.5739 121.199H41.9716V127.801H48.5739V121.199Z" fill="black"/>
<path d="M61.7784 121.199H55.1761V127.801H61.7784V121.199Z" fill="black"/>
<path d="M74.983 121.199H68.3807V127.801H74.983V121.199Z" fill="black"/>
<path d="M81.5852 121.199H74.983V127.801H81.5852V121.199Z" fill="black"/>
<path d="M94.7898 121.199H88.1875V127.801H94.7898V121.199Z" fill="black"/>
<path d="M107.994 121.199H101.392V127.801H107.994V121.199Z" fill="black"/>
<path d="M134.403 121.199H127.801V127.801H134.403V121.199Z" fill="black"/>
<path d="M154.21 121.199H147.608V127.801H154.21V121.199Z" fill="black"/>
<path d="M160.812 121.199H154.21V127.801H160.812V121.199Z" fill="black"/>
<path d="M174.017 121.199H167.415V127.801H174.017V121.199Z" fill="black"/>
<path d="M180.619 121.199H174.017V127.801H180.619V121.199Z" fill="black"/>
<path d="M187.222 121.199H180.619V127.801H187.222V121.199Z" fill="black"/>
<path d="M193.824 121.199H187.222V127.801H193.824V121.199Z" fill="black"/>
<path d="M207.028 121.199H200.426V127.801H207.028V121.199Z" fill="black"/>
<path d="M226.835 121.199H220.233V127.801H226.835V121.199Z" fill="black"/>
<path d="M233.438 121.199H226.835V127.801H233.438V121.199Z" fill="black"/>
<path d="M28.767 127.801H22.1648V134.403H28.767V127.801Z" fill="black"/>
<path d="M35.3693 127.801H28.767V134.403H35.3693V127.801Z" fill="black"/>
<path d="M41.9716 127.801H35.3693V134.403H41.9716V127.801Z" fill="black"/>
<path d="M48.5739 127.801H41.9716V134.403H48.5739V127.801Z" fill="black"/>
<path d="M68.3807 127.801H61.7784V134.403H68.3807V127.801Z" fill="black"/>
<path d="M88.1875 127.801H81.5852V134.403H88.1875V127.801Z" fill="black"/>
<path d="M94.7898 127.801H88.1875V134.403H94.7898V127.801Z" fill="black"/>
<path d="M114.597 127.801H107.994V134.403H114.597V127.801Z" fill="black"/>
<path d="M121.199 127.801H114.597V134.403H121.199V127.801Z" fill="black"/>
<path d="M127.801 127.801H121.199V134.403H127.801V127.801Z" fill="black"/>
<path d="M147.608 127.801H141.006V134.403H147.608V127.801Z" fill="black"/>
<path d="M154.21 127.801H147.608V134.403H154.21V127.801Z" fill="black"/>
<path d="M160.812 127.801H154.21V134.403H160.812V127.801Z" fill="black"/>
<path d="M180.619 127.801H174.017V134.403H180.619V127.801Z" fill="black"/>
<path d="M213.631 127.801H207.028V134.403H213.631V127.801Z" fill="black"/>
<path d="M220.233 127.801H213.631V134.403H220.233V127.801Z" fill="black"/>
<path d="M226.835 127.801H220.233V134.403H226.835V127.801Z" fill="black"/>
<path d="M22.1648 134.403H15.5625V141.006H22.1648V134.403Z" fill="black"/>
<path d="M55.1761 134.403H48.5739V141.006H55.1761V134.403Z" fill="black"/>
<path d="M61.7784 134.403H55.1761V141.006H61.7784V134.403Z" fill="black"/>
<path d="M134.403 134.403H127.801V141.006H134.403V134.403Z" fill="black"/>
<path d="M141.006 134.403H134.403V141.006H141.006L141.006 134.403Z" fill="black"/>
<path d="M147.608 134.403H141.006L141.006 141.006H147.608V134.403Z" fill="black"/>
<path d="M154.21 134.403H147.608V141.006H154.21V134.403Z" fill="black"/>
<path d="M160.812 134.403H154.21V141.006H160.812V134.403Z" fill="black"/>
<path d="M174.017 134.403H167.415V141.006H174.017V134.403Z" fill="black"/>
<path d="M187.222 134.403H180.619V141.006H187.222V134.403Z" fill="black"/>
<path d="M220.233 134.403H213.631V141.006H220.233V134.403Z" fill="black"/>
<path d="M22.1648 141.006H15.5625V147.608H22.1648V141.006Z" fill="black"/>
<path d="M41.9716 141.006H35.3693V147.608H41.9716V141.006Z" fill="black"/>
<path d="M48.5739 141.006L41.9716 141.006V147.608H48.5739V141.006Z" fill="black"/>
<path d="M68.3807 141.006L61.7784 141.006V147.608H68.3807V141.006Z" fill="black"/>
<path d="M74.983 141.006H68.3807V147.608H74.983V141.006Z" fill="black"/>
<path d="M88.1875 141.006H81.5852V147.608H88.1875V141.006Z" fill="black"/>
<path d="M121.199 141.006H114.597V147.608H121.199V141.006Z" fill="black"/>
<path d="M127.801 141.006L121.199 141.006V147.608H127.801V141.006Z" fill="black"/>
<path d="M147.608 141.006H141.006L141.006 147.608H147.608V141.006Z" fill="black"/>
<path d="M154.21 141.006H147.608V147.608H154.21V141.006Z" fill="black"/>
<path d="M160.812 141.006H154.21V147.608H160.812V141.006Z" fill="black"/>
<path d="M180.619 141.006H174.017V147.608H180.619V141.006Z" fill="black"/>
<path d="M187.222 141.006H180.619V147.608H187.222V141.006Z" fill="black"/>
<path d="M200.426 141.006H193.824V147.608H200.426V141.006Z" fill="black"/>
<path d="M213.631 141.006L207.028 141.006V147.608H213.631V141.006Z" fill="black"/>
<path d="M28.767 147.608H22.1648V154.21H28.767V147.608Z" fill="black"/>
<path d="M35.3693 147.608H28.767V154.21H35.3693V147.608Z" fill="black"/>
<path d="M55.1761 147.608H48.5739V154.21H55.1761V147.608Z" fill="black"/>
<path d="M61.7784 147.608H55.1761V154.21H61.7784V147.608Z" fill="black"/>
<path d="M68.3807 147.608H61.7784V154.21H68.3807V147.608Z" fill="black"/>
<path d="M81.5852 147.608H74.983V154.21H81.5852V147.608Z" fill="black"/>
<path d="M88.1875 147.608H81.5852V154.21H88.1875V147.608Z" fill="black"/>
<path d="M94.7898 147.608H88.1875V154.21H94.7898V147.608Z" fill="black"/>
<path d="M114.597 147.608H107.994V154.21H114.597V147.608Z" fill="black"/>
<path d="M127.801 147.608H121.199V154.21H127.801V147.608Z" fill="black"/>
<path d="M147.608 147.608H141.006V154.21H147.608V147.608Z" fill="black"/>
<path d="M160.812 147.608H154.21V154.21H160.812V147.608Z" fill="black"/>
<path d="M167.415 147.608H160.812V154.21H167.415V147.608Z" fill="black"/>
<path d="M180.619 147.608H174.017V154.21H180.619V147.608Z" fill="black"/>
<path d="M193.824 147.608H187.222V154.21H193.824V147.608Z" fill="black"/>
<path d="M200.426 147.608H193.824V154.21H200.426V147.608Z" fill="black"/>
<path d="M213.631 147.608H207.028V154.21H213.631V147.608Z" fill="black"/>
<path d="M28.767 154.21H22.1648V160.812H28.767V154.21Z" fill="black"/>
<path d="M41.9716 154.21H35.3693V160.812H41.9716V154.21Z" fill="black"/>
<path d="M68.3807 154.21H61.7784V160.812H68.3807V154.21Z" fill="black"/>
<path d="M74.983 154.21H68.3807V160.812H74.983V154.21Z" fill="black"/>
<path d="M88.1875 154.21H81.5852V160.812H88.1875V154.21Z" fill="black"/>
<path d="M114.597 154.21H107.994V160.812H114.597V154.21Z" fill="black"/>
<path d="M121.199 154.21H114.597V160.812H121.199V154.21Z" fill="black"/>
<path d="M127.801 154.21H121.199V160.812H127.801V154.21Z" fill="black"/>
<path d="M134.403 154.21H127.801V160.812H134.403V154.21Z" fill="black"/>
<path d="M147.608 154.21H141.006V160.812H147.608V154.21Z" fill="black"/>
<path d="M160.812 154.21H154.21V160.812H160.812V154.21Z" fill="black"/>
<path d="M167.415 154.21H160.812V160.812H167.415V154.21Z" fill="black"/>
<path d="M174.017 154.21H167.415V160.812H174.017V154.21Z" fill="black"/>
<path d="M180.619 154.21H174.017V160.812H180.619V154.21Z" fill="black"/>
<path d="M193.824 154.21H187.222V160.812H193.824V154.21Z" fill="black"/>
<path d="M220.233 154.21H213.631V160.812H220.233V154.21Z" fill="black"/>
<path d="M226.835 154.21H220.233V160.812H226.835V154.21Z" fill="black"/>
<path d="M233.438 154.21H226.835V160.812H233.438V154.21Z" fill="black"/>
<path d="M22.1648 160.812H15.5625V167.415H22.1648V160.812Z" fill="black"/>
<path d="M28.767 160.812H22.1648V167.415H28.767V160.812Z" fill="black"/>
<path d="M48.5739 160.812H41.9716V167.415H48.5739V160.812Z" fill="black"/>
<path d="M61.7784 160.812H55.1761V167.415H61.7784V160.812Z" fill="black"/>
<path d="M68.3807 160.812H61.7784V167.415H68.3807V160.812Z" fill="black"/>
<path d="M74.983 160.812H68.3807V167.415H74.983V160.812Z" fill="black"/>
<path d="M88.1875 160.812H81.5852V167.415H88.1875V160.812Z" fill="black"/>
<path d="M107.994 160.812H101.392V167.415H107.994V160.812Z" fill="black"/>
<path d="M127.801 160.812H121.199V167.415H127.801V160.812Z" fill="black"/>
<path d="M141.006 160.812H134.403V167.415H141.006L141.006 160.812Z" fill="black"/>
<path d="M154.21 160.812H147.608V167.415H154.21V160.812Z" fill="black"/>
<path d="M160.812 160.812H154.21V167.415H160.812V160.812Z" fill="black"/>
<path d="M174.017 160.812H167.415V167.415H174.017V160.812Z" fill="black"/>
<path d="M187.222 160.812H180.619V167.415H187.222V160.812Z" fill="black"/>
<path d="M207.028 160.812H200.426V167.415H207.028V160.812Z" fill="black"/>
<path d="M22.1648 167.415H15.5625V174.017H22.1648V167.415Z" fill="black"/>
<path d="M28.767 167.415H22.1648V174.017H28.767V167.415Z" fill="black"/>
<path d="M35.3693 167.415H28.767V174.017H35.3693V167.415Z" fill="black"/>
<path d="M41.9716 167.415H35.3693V174.017H41.9716V167.415Z" fill="black"/>
<path d="M55.1761 167.415H48.5739V174.017H55.1761V167.415Z" fill="black"/>
<path d="M101.392 167.415H94.7898V174.017H101.392V167.415Z" fill="black"/>
<path d="M107.994 167.415H101.392V174.017H107.994V167.415Z" fill="black"/>
<path d="M114.597 167.415H107.994V174.017H114.597V167.415Z" fill="black"/>
<path d="M121.199 167.415H114.597V174.017H121.199V167.415Z" fill="black"/>
<path d="M134.403 167.415H127.801V174.017H134.403V167.415Z" fill="black"/>
<path d="M147.608 167.415H141.006L141.006 174.017H147.608V167.415Z" fill="black"/>
<path d="M154.21 167.415H147.608V174.017H154.21V167.415Z" fill="black"/>
<path d="M160.812 167.415H154.21V174.017H160.812V167.415Z" fill="black"/>
<path d="M167.415 167.415H160.812V174.017H167.415V167.415Z" fill="black"/>
<path d="M174.017 167.415H167.415V174.017H174.017V167.415Z" fill="black"/>
<path d="M180.619 167.415H174.017V174.017H180.619V167.415Z" fill="black"/>
<path d="M213.631 167.415H207.028V174.017H213.631V167.415Z" fill="black"/>
<path d="M226.835 167.415H220.233V174.017H226.835V167.415Z" fill="black"/>
<path d="M233.438 167.415H226.835V174.017H233.438V167.415Z" fill="black"/>
<path d="M28.767 174.017H22.1648V180.619H28.767V174.017Z" fill="black"/>
<path d="M61.7784 174.017H55.1761V180.619H61.7784V174.017Z" fill="black"/>
<path d="M68.3807 174.017H61.7784V180.619H68.3807V174.017Z" fill="black"/>
<path d="M81.5852 174.017H74.983V180.619H81.5852V174.017Z" fill="black"/>
<path d="M88.1875 174.017H81.5852V180.619H88.1875V174.017Z" fill="black"/>
<path d="M127.801 174.017H121.199V180.619H127.801V174.017Z" fill="black"/>
<path d="M134.403 174.017H127.801V180.619H134.403V174.017Z" fill="black"/>
<path d="M141.006 174.017H134.403V180.619H141.006L141.006 174.017Z" fill="black"/>
<path d="M147.608 174.017H141.006L141.006 180.619H147.608V174.017Z" fill="black"/>
<path d="M154.21 174.017H147.608V180.619H154.21V174.017Z" fill="black"/>
<path d="M160.812 174.017H154.21V180.619H160.812V174.017Z" fill="black"/>
<path d="M167.415 174.017H160.812V180.619H167.415V174.017Z" fill="black"/>
<path d="M174.017 174.017H167.415V180.619H174.017V174.017Z" fill="black"/>
<path d="M180.619 174.017H174.017V180.619H180.619V174.017Z" fill="black"/>
<path d="M187.222 174.017H180.619V180.619H187.222V174.017Z" fill="black"/>
<path d="M193.824 174.017H187.222V180.619H193.824V174.017Z" fill="black"/>
<path d="M200.426 174.017H193.824V180.619H200.426V174.017Z" fill="black"/>
<path d="M207.028 174.017H200.426V180.619H207.028V174.017Z" fill="black"/>
<path d="M233.438 174.017H226.835V180.619H233.438V174.017Z" fill="black"/>
<path d="M74.983 180.619H68.3807V187.222H74.983V180.619Z" fill="black"/>
<path d="M81.5852 180.619H74.983V187.222H81.5852V180.619Z" fill="black"/>
<path d="M88.1875 180.619H81.5852V187.222H88.1875V180.619Z" fill="black"/>
<path d="M101.392 180.619H94.7898V187.222H101.392V180.619Z" fill="black"/>
<path d="M114.597 180.619H107.994V187.222H114.597V180.619Z" fill="black"/>
<path d="M134.403 180.619H127.801V187.222H134.403V180.619Z" fill="black"/>
<path d="M141.006 180.619H134.403V187.222H141.006V180.619Z" fill="black"/>
<path d="M154.21 180.619H147.608V187.222H154.21V180.619Z" fill="black"/>
<path d="M180.619 180.619H174.017V187.222H180.619V180.619Z" fill="black"/>
<path d="M207.028 180.619H200.426V187.222H207.028V180.619Z" fill="black"/>
<path d="M233.438 180.619H226.835V187.222H233.438V180.619Z" fill="black"/>
<path d="M22.1648 187.222H15.5625V193.824H22.1648V187.222Z" fill="black"/>
<path d="M28.767 187.222H22.1648V193.824H28.767V187.222Z" fill="black"/>
<path d="M35.3693 187.222H28.767V193.824H35.3693V187.222Z" fill="black"/>
<path d="M41.9716 187.222H35.3693V193.824H41.9716V187.222Z" fill="black"/>
<path d="M48.5739 187.222H41.9716V193.824H48.5739V187.222Z" fill="black"/>
<path d="M55.1761 187.222H48.5739V193.824H55.1761V187.222Z" fill="black"/>
<path d="M61.7784 187.222H55.1761V193.824H61.7784V187.222Z" fill="black"/>
<path d="M81.5852 187.222H74.983V193.824H81.5852V187.222Z" fill="black"/>
<path d="M88.1875 187.222H81.5852V193.824H88.1875V187.222Z" fill="black"/>
<path d="M94.7898 187.222H88.1875V193.824H94.7898V187.222Z" fill="black"/>
<path d="M101.392 187.222H94.7898V193.824H101.392V187.222Z" fill="black"/>
<path d="M107.994 187.222H101.392V193.824H107.994V187.222Z" fill="black"/>
<path d="M114.597 187.222H107.994V193.824H114.597V187.222Z" fill="black"/>
<path d="M121.199 187.222H114.597V193.824H121.199V187.222Z" fill="black"/>
<path d="M127.801 187.222H121.199V193.824H127.801V187.222Z" fill="black"/>
<path d="M147.608 187.222H141.006L141.006 193.824H147.608V187.222Z" fill="black"/>
<path d="M160.812 187.222H154.21V193.824H160.812V187.222Z" fill="black"/>
<path d="M167.415 187.222H160.812V193.824H167.415V187.222Z" fill="black"/>
<path d="M180.619 187.222H174.017V193.824H180.619V187.222Z" fill="black"/>
<path d="M193.824 187.222H187.222V193.824H193.824V187.222Z" fill="black"/>
<path d="M207.028 187.222H200.426V193.824H207.028V187.222Z" fill="black"/>
<path d="M213.631 187.222H207.028V193.824H213.631V187.222Z" fill="black"/>
<path d="M233.438 187.222H226.835V193.824H233.438V187.222Z" fill="black"/>
<path d="M22.1648 193.824H15.5625V200.426H22.1648V193.824Z" fill="black"/>
<path d="M61.7784 193.824H55.1761V200.426H61.7784V193.824Z" fill="black"/>
<path d="M74.983 193.824H68.3807V200.426H74.983V193.824Z" fill="black"/>
<path d="M81.5852 193.824H74.983V200.426H81.5852V193.824Z" fill="black"/>
<path d="M88.1875 193.824H81.5852V200.426H88.1875V193.824Z" fill="black"/>
<path d="M114.597 193.824H107.994V200.426H114.597V193.824Z" fill="black"/>
<path d="M121.199 193.824H114.597V200.426H121.199V193.824Z" fill="black"/>
<path d="M134.403 193.824H127.801V200.426H134.403V193.824Z" fill="black"/>
<path d="M147.608 193.824H141.006V200.426H147.608V193.824Z" fill="black"/>
<path d="M154.21 193.824H147.608V200.426H154.21V193.824Z" fill="black"/>
<path d="M167.415 193.824H160.812V200.426H167.415V193.824Z" fill="black"/>
<path d="M180.619 193.824H174.017V200.426H180.619V193.824Z" fill="black"/>
<path d="M207.028 193.824H200.426V200.426H207.028V193.824Z" fill="black"/>
<path d="M22.1648 200.426H15.5625V207.028H22.1648V200.426Z" fill="black"/>
<path d="M35.3693 200.426H28.767V207.028H35.3693V200.426Z" fill="black"/>
<path d="M41.9716 200.426H35.3693V207.028H41.9716V200.426Z" fill="black"/>
<path d="M48.5739 200.426H41.9716V207.028H48.5739V200.426Z" fill="black"/>
<path d="M61.7784 200.426H55.1761V207.028H61.7784V200.426Z" fill="black"/>
<path d="M88.1875 200.426H81.5852V207.028H88.1875V200.426Z" fill="black"/>
<path d="M94.7898 200.426H88.1875V207.028H94.7898V200.426Z" fill="black"/>
<path d="M107.994 200.426H101.392V207.028H107.994V200.426Z" fill="black"/>
<path d="M127.801 200.426H121.199V207.028H127.801V200.426Z" fill="black"/>
<path d="M174.017 200.426H167.415V207.028H174.017V200.426Z" fill="black"/>
<path d="M180.619 200.426H174.017V207.028H180.619V200.426Z" fill="black"/>
<path d="M187.222 200.426H180.619V207.028H187.222V200.426Z" fill="black"/>
<path d="M193.824 200.426H187.222V207.028H193.824V200.426Z" fill="black"/>
<path d="M200.426 200.426H193.824V207.028H200.426V200.426Z" fill="black"/>
<path d="M207.028 200.426H200.426V207.028H207.028V200.426Z" fill="black"/>
<path d="M213.631 200.426H207.028V207.028H213.631V200.426Z" fill="black"/>
<path d="M220.233 200.426H213.631V207.028H220.233V200.426Z" fill="black"/>
<path d="M233.438 200.426H226.835V207.028H233.438V200.426Z" fill="black"/>
<path d="M22.1648 207.028H15.5625V213.631H22.1648V207.028Z" fill="black"/>
<path d="M35.3693 207.028H28.767V213.631H35.3693V207.028Z" fill="black"/>
<path d="M41.9716 207.028H35.3693V213.631H41.9716V207.028Z" fill="black"/>
<path d="M48.5739 207.028H41.9716V213.631H48.5739V207.028Z" fill="black"/>
<path d="M61.7784 207.028H55.1761V213.631H61.7784V207.028Z" fill="black"/>
<path d="M94.7898 207.028H88.1875V213.631H94.7898V207.028Z" fill="black"/>
<path d="M101.392 207.028H94.7898V213.631H101.392V207.028Z" fill="black"/>
<path d="M107.994 207.028H101.392V213.631H107.994V207.028Z" fill="black"/>
<path d="M127.801 207.028H121.199V213.631H127.801V207.028Z" fill="black"/>
<path d="M134.403 207.028H127.801V213.631H134.403V207.028Z" fill="black"/>
<path d="M167.415 207.028H160.812V213.631H167.415V207.028Z" fill="black"/>
<path d="M174.017 207.028H167.415V213.631H174.017V207.028Z" fill="black"/>
<path d="M187.222 207.028H180.619V213.631H187.222V207.028Z" fill="black"/>
<path d="M193.824 207.028H187.222V213.631H193.824V207.028Z" fill="black"/>
<path d="M207.028 207.028H200.426V213.631H207.028V207.028Z" fill="black"/>
<path d="M213.631 207.028H207.028V213.631H213.631V207.028Z" fill="black"/>
<path d="M220.233 207.028H213.631V213.631H220.233V207.028Z" fill="black"/>
<path d="M226.835 207.028H220.233V213.631H226.835V207.028Z" fill="black"/>
<path d="M233.438 207.028H226.835V213.631H233.438V207.028Z" fill="black"/>
<path d="M22.1648 213.631H15.5625V220.233H22.1648V213.631Z" fill="black"/>
<path d="M35.3693 213.631H28.767V220.233H35.3693V213.631Z" fill="black"/>
<path d="M41.9716 213.631H35.3693V220.233H41.9716V213.631Z" fill="black"/>
<path d="M48.5739 213.631H41.9716V220.233H48.5739V213.631Z" fill="black"/>
<path d="M61.7784 213.631H55.1761V220.233H61.7784V213.631Z" fill="black"/>
<path d="M88.1875 213.631H81.5852V220.233H88.1875V213.631Z" fill="black"/>
<path d="M114.597 213.631H107.994V220.233H114.597V213.631Z" fill="black"/>
<path d="M141.006 213.631H134.403V220.233H141.006V213.631Z" fill="black"/>
<path d="M167.415 213.631H160.812V220.233H167.415V213.631Z" fill="black"/>
<path d="M193.824 213.631H187.222V220.233H193.824V213.631Z" fill="black"/>
<path d="M220.233 213.631H213.631V220.233H220.233V213.631Z" fill="black"/>
<path d="M22.1648 220.233H15.5625V226.835H22.1648V220.233Z" fill="black"/>
<path d="M61.7784 220.233H55.1761V226.835H61.7784V220.233Z" fill="black"/>
<path d="M107.994 220.233H101.392V226.835H107.994V220.233Z" fill="black"/>
<path d="M114.597 220.233H107.994V226.835H114.597V220.233Z" fill="black"/>
<path d="M121.199 220.233H114.597V226.835H121.199V220.233Z" fill="black"/>
<path d="M127.801 220.233H121.199V226.835H127.801V220.233Z" fill="black"/>
<path d="M141.006 220.233H134.403V226.835H141.006V220.233Z" fill="black"/>
<path d="M147.608 220.233H141.006V226.835H147.608V220.233Z" fill="black"/>
<path d="M160.812 220.233H154.21V226.835H160.812V220.233Z" fill="black"/>
<path d="M193.824 220.233H187.222V226.835H193.824V220.233Z" fill="black"/>
<path d="M200.426 220.233H193.824V226.835H200.426V220.233Z" fill="black"/>
<path d="M213.631 220.233H207.028V226.835H213.631V220.233Z" fill="black"/>
<path d="M233.438 220.233H226.835V226.835H233.438V220.233Z" fill="black"/>
<path d="M22.1648 226.835H15.5625V233.438H22.1648V226.835Z" fill="black"/>
<path d="M28.767 226.835H22.1648V233.438H28.767V226.835Z" fill="black"/>
<path d="M35.3693 226.835H28.767V233.438H35.3693V226.835Z" fill="black"/>
<path d="M41.9716 226.835H35.3693V233.438H41.9716V226.835Z" fill="black"/>
<path d="M48.5739 226.835H41.9716V233.438H48.5739V226.835Z" fill="black"/>
<path d="M55.1761 226.835H48.5739V233.438H55.1761V226.835Z" fill="black"/>
<path d="M61.7784 226.835H55.1761V233.438H61.7784V226.835Z" fill="black"/>
<path d="M81.5852 226.835H74.983V233.438H81.5852V226.835Z" fill="black"/>
<path d="M88.1875 226.835H81.5852V233.438H88.1875V226.835Z" fill="black"/>
<path d="M101.392 226.835H94.7898V233.438H101.392V226.835Z" fill="black"/>
<path d="M107.994 226.835H101.392V233.438H107.994V226.835Z" fill="black"/>
<path d="M141.006 226.835H134.403V233.438H141.006V226.835Z" fill="black"/>
<path d="M160.812 226.835H154.21V233.438H160.812V226.835Z" fill="black"/>
<path d="M167.415 226.835H160.812V233.438H167.415V226.835Z" fill="black"/>
<path d="M174.017 226.835H167.415V233.438H174.017V226.835Z" fill="black"/>
<path d="M187.222 226.835H180.619V233.438H187.222V226.835Z" fill="black"/>
<path d="M207.028 226.835H200.426V233.438H207.028V226.835Z" fill="black"/>
<path d="M220.233 226.835H213.631V233.438H220.233V226.835Z" fill="black"/>
</svg>
