<svg width="98" height="168" viewBox="0 0 98 168" fill="none" xmlns="http://www.w3.org/2000/svg">
<path d="M34.7742 25.8141C24.6581 29.3532 19.6 36.6394 19.3892 47.2565C19.3892 52.461 21.4968 57.6654 25.7118 62.6617L9.06237 73.6952C2.95054 64.9517 0 56.2082 0 47.881C0 36.4312 3.16129 27.0632 9.48387 20.1933C15.8065 13.3234 24.2366 8.32714 34.5634 6.24535V0H59.0107V5.62082C70.3914 7.49442 79.6645 12.0744 87.0409 19.3606C94.4172 26.6468 98 35.8067 98 46.632C98 49.3383 97.7892 51.8364 97.157 54.5428C96.5247 57.2491 95.471 59.539 94.2064 61.829C92.9419 64.119 91.4667 66.2007 90.4129 67.8662C89.3591 69.5316 87.4624 71.4052 85.3548 73.487C83.2473 75.5688 81.5613 77.026 80.2968 78.0669C79.0322 79.1078 77.3462 80.5651 75.028 82.4387C72.7097 84.3123 71.2344 85.5613 70.6021 85.9777C61.9613 93.0558 57.5355 100.758 57.3247 108.877V109.71V115.331H35.6172V109.918L34.9849 25.8141H34.7742ZM31.1914 168V135.108H61.9613V168H31.1914ZM57.7462 72.4461C57.7462 72.4461 60.0645 70.7807 62.8043 68.6989C65.5441 66.6171 67.2301 65.368 68.0731 64.7435C68.9161 64.119 70.1806 62.8699 71.8667 61.2045C73.5527 59.539 75.028 58.0818 75.6602 57.0409C76.2925 56 76.9247 54.5428 77.557 52.8773C78.1892 51.2119 78.4 49.3383 78.4 47.6729C78.4 42.2602 76.714 37.4721 73.1312 33.5167C69.5484 29.5613 64.9118 26.855 58.5892 25.1896C58.5892 30.3941 58.3785 38.3048 58.1677 48.7138C57.957 59.1227 57.7462 67.2416 57.7462 72.4461Z" fill="#1D1D1B"/>
</svg>
