<svg width="137" height="164" viewBox="0 0 137 164" fill="none" xmlns="http://www.w3.org/2000/svg">
<path d="M0 17.175C4.17047 11.5198 9.80061 7.33078 16.8904 4.39847C23.9802 1.46616 31.4871 0 39.828 0C50.6712 0 59.6378 2.51341 66.519 7.33078C74.4429 2.51341 84.035 0 95.0868 0C108.849 0 119.484 3.77011 126.365 11.1009C133.247 18.4317 137 28.9042 137 42.3091C137 46.0792 136.374 49.6398 135.332 53.2005C134.289 56.7612 132.83 59.9029 131.578 62.2069C130.327 64.5108 128.242 67.2337 125.531 70.166C122.82 73.0983 120.735 75.1928 119.484 76.4495C118.233 77.7063 115.939 79.5913 113.228 81.8953C104.262 89.4355 99.8828 97.3946 99.8828 105.563V111.218H78.4049V105.773C78.4049 98.8608 79.8645 92.7867 82.5753 87.5504C85.2862 82.3142 89.4566 77.2874 95.0868 72.47C96.5464 71.2133 98.8402 69.1188 101.968 66.6054C105.096 64.0919 107.181 62.2069 108.641 60.7407C110.1 59.2746 111.56 57.8084 113.228 55.7139C114.897 53.6194 116.148 51.5249 116.773 49.4304C117.399 47.3359 117.816 45.0319 117.816 42.5185C117.816 35.3972 115.939 29.5326 111.977 25.3435C108.015 21.1545 102.177 18.8506 94.4612 18.8506C88.414 18.8506 83.2009 20.1073 78.6134 22.4112C80.9072 28.2759 81.9498 34.7688 81.9498 42.0996C81.9498 45.8697 81.3242 49.4304 80.2816 52.9911C79.239 56.5517 77.7793 59.6935 76.5282 61.9974C75.277 64.3014 73.1918 67.0243 70.481 69.9566C67.7702 72.8889 65.6849 74.9834 64.4338 76.2401C63.1827 77.4968 60.8889 79.3819 58.1781 81.6858C49.2116 89.2261 44.8326 97.1852 44.8326 105.354V111.009H23.3547V105.563C23.3547 98.6513 24.8143 92.5773 27.5251 87.341C30.2359 82.1047 34.4064 77.0779 40.0365 72.2605C41.4962 71.0038 43.79 68.9093 46.9178 66.3959C50.0457 63.8825 52.1309 61.9974 53.5906 60.5313C55.0502 59.0651 56.5099 57.599 58.1781 55.5045C59.8463 53.41 61.0974 51.3154 61.723 49.2209C62.3486 47.1264 62.7656 44.8225 62.7656 42.3091C62.7656 35.1877 60.8889 29.3231 56.9269 25.1341C52.965 20.9451 47.1263 18.6411 39.411 18.6411C33.5723 18.6411 28.3592 19.6884 23.9802 21.9923C19.6012 24.2963 16.2648 27.4381 14.1796 31.8365L0.834094 16.7561L0 17.175ZM18.7671 130.907H49.2116V164H18.7671V130.907ZM74.0259 130.907H104.47V164H74.0259V130.907Z" fill="#1D1D1B"/>
</svg>
