<svg width="113" height="163" viewBox="0 0 113 163" fill="none" xmlns="http://www.w3.org/2000/svg">
<path d="M0 17.0702C4.17745 11.4496 9.81701 7.28608 16.9187 4.37165C24.0203 1.45722 31.5397 0 39.8946 0C53.6802 0 64.3327 3.74713 71.2255 11.0332C78.1183 18.3193 81.878 28.728 81.878 42.0511C81.878 45.7982 81.2514 49.3372 80.207 52.8761C79.1627 56.4151 77.7005 59.5377 76.4473 61.8276C75.1941 64.1175 73.1053 66.8237 70.39 69.7382C67.6747 72.6526 65.5859 74.7344 64.3327 75.9834C63.0795 77.2324 60.7819 79.106 58.0666 81.3959C49.085 88.8902 44.6987 96.8008 44.6987 104.92V110.54H23.1849V105.128C23.1849 98.258 24.647 92.2209 27.3623 87.0166C30.0776 81.8122 34.2551 76.8161 39.8946 72.0281C41.3567 70.7791 43.6544 68.6973 46.7874 66.1992C49.9205 63.7011 52.0092 61.8276 53.4714 60.3704C54.9335 58.9132 56.3956 57.4559 58.0666 55.3742C59.7375 53.2925 60.9907 51.2107 61.6174 49.129C62.244 47.0472 62.6617 44.7573 62.6617 42.2593C62.6617 35.1814 60.7819 29.3525 56.8133 25.189C52.8447 21.0255 46.9963 18.7356 39.268 18.7356C33.4196 18.7356 28.1978 19.7765 23.8115 22.0664C19.4251 24.3563 16.0832 27.4789 13.9945 31.8506L0.626632 16.8621L0 17.0702ZM18.7985 130.109H49.2939V163H18.7985V130.109ZM82.5046 130.109H113V163H82.5046V130.109ZM110.076 2.08174L108.196 110.332H87.9353L86.0554 2.08174H110.285H110.076Z" fill="#1D1D1B"/>
</svg>
