<svg width="121" height="163" viewBox="0 0 121 163" fill="none" xmlns="http://www.w3.org/2000/svg">
<path d="M0 130.151H30.4586V163H0V130.151ZM27.538 2.28699L25.6604 110.399H5.42414L3.54655 2.28699H27.7465H27.538ZM39.2207 17.0485C43.3931 11.4349 49.0259 7.27679 56.119 4.36607C63.2121 1.45536 70.7224 0 79.0672 0C92.8362 0 103.476 3.74235 110.36 11.0191C117.245 18.2959 121 28.6913 121 41.9974C121 45.7398 120.374 49.2742 119.331 52.8087C118.288 56.3431 116.828 59.4617 115.576 61.7487C114.324 64.0357 112.238 66.7385 109.526 69.6492C106.814 72.5599 104.728 74.639 103.476 75.8865C102.224 77.1339 99.9293 79.0051 97.2172 81.2921C88.2465 88.7768 83.8655 96.6773 83.8655 104.786V110.399H62.3776V104.994C62.3776 98.1327 63.8379 92.1033 66.55 86.9056C69.2621 81.7079 73.4345 76.7181 79.0672 71.9362C80.5276 70.6888 82.8224 68.6097 85.9517 66.1148C89.081 63.6199 91.1672 61.7487 92.6276 60.2934C94.0879 58.838 95.5482 57.3827 97.2172 55.3036C98.8862 53.2245 100.138 51.1454 100.764 49.0663C101.39 46.9872 101.807 44.7003 101.807 42.2054C101.807 35.1365 99.9293 29.315 95.9655 25.1569C92.0017 20.9987 86.1603 18.7117 78.4414 18.7117C72.6 18.7117 67.3845 19.7513 63.0034 22.0383C58.6224 24.3253 55.2845 27.4439 53.1983 31.8099L39.8465 16.8406L39.2207 17.0485ZM57.9966 129.943H88.4552V162.792H57.9966V129.943Z" fill="#1D1D1B"/>
</svg>
