<svg width="1440" height="395" viewBox="0 0 1440 395" fill="none" xmlns="http://www.w3.org/2000/svg">
<g clip-path="url(#clip0_207_4754)">
<rect x="-124.953" y="14.0363" width="1653.76" height="109" transform="rotate(9.1 -124.953 14.0363)" fill="white" stroke="black" stroke-width="4"/>
<path d="M-6.10018 143.462L-169.94 117.22L-75.4122 21.9711L88.4281 48.2141L-6.10018 143.462Z" fill="black" stroke="black" stroke-width="4"/>
<path d="M301.974 192.808L138.134 166.565L232.662 71.3168L396.502 97.5598L301.974 192.808Z" fill="black" stroke="black" stroke-width="4"/>
<path d="M610.046 242.153L446.206 215.91L540.734 120.662L704.575 146.905L610.046 242.153Z" fill="black" stroke="black" stroke-width="4"/>
<path d="M918.121 291.499L754.28 265.256L848.809 170.007L1012.65 196.25L918.121 291.499Z" fill="black" stroke="black" stroke-width="4"/>
<path d="M1226.19 340.844L1062.35 314.601L1156.88 219.353L1320.72 245.596L1226.19 340.844Z" fill="black" stroke="black" stroke-width="4"/>
<path d="M1494.28 384.384L1330.44 358.141L1424.97 262.893L1588.81 289.136L1494.28 384.384Z" fill="black" stroke="black" stroke-width="4"/>
<rect x="-26.9297" y="254.128" width="1570.05" height="109" transform="rotate(-9.23 -26.9297 254.128)" fill="white" stroke="black" stroke-width="4"/>
<path d="M167.433 332.743L3.65219 359.357L63.4296 239.214L227.21 212.599L167.433 332.743Z" fill="black" stroke="black" stroke-width="4"/>
<path d="M1358.44 139.432L1194.66 166.047L1254.43 45.9031L1418.21 19.2885L1358.44 139.432Z" fill="black" stroke="black" stroke-width="4"/>
</g>
<defs>
<clipPath id="clip0_207_4754">
<rect width="1440" height="395" fill="white"/>
</clipPath>
</defs>
</svg>
