<svg width="1440" height="395" viewBox="0 0 1440 395" fill="none" xmlns="http://www.w3.org/2000/svg">
<g clip-path="url(#clip0_211_5059)">
<rect x="-1.65851" y="2.29114" width="1653.76" height="109" transform="matrix(-0.987414 0.158158 0.158158 0.987414 1541.82 12.0363)" fill="white" stroke="black" stroke-width="4"/>
<path d="M1424.97 143.462L1588.81 117.22L1494.28 21.9711L1330.44 48.2141L1424.97 143.462Z" fill="black" stroke="black" stroke-width="4"/>
<path d="M1116.89 192.808L1280.73 166.565L1186.21 71.3168L1022.36 97.5598L1116.89 192.808Z" fill="black" stroke="black" stroke-width="4"/>
<path d="M808.821 242.153L972.661 215.91L878.133 120.662L714.293 146.905L808.821 242.153Z" fill="black" stroke="black" stroke-width="4"/>
<path d="M500.747 291.499L664.587 265.256L570.059 170.007L406.218 196.25L500.747 291.499Z" fill="black" stroke="black" stroke-width="4"/>
<path d="M192.674 340.844L356.515 314.601L261.986 219.353L98.1461 245.596L192.674 340.844Z" fill="black" stroke="black" stroke-width="4"/>
<path d="M-75.4115 384.384L88.4288 358.141L-6.09956 262.893L-169.94 289.136L-75.4115 384.384Z" fill="black" stroke="black" stroke-width="4"/>
<rect x="-2.2949" y="1.65331" width="1570.05" height="109" transform="matrix(-0.987052 -0.160398 -0.160398 0.987052 1443.8 252.128)" fill="white" stroke="black" stroke-width="4"/>
<path d="M1251.43 332.743L1415.21 359.357L1355.44 239.214L1191.66 212.599L1251.43 332.743Z" fill="black" stroke="black" stroke-width="4"/>
<path d="M60.4307 139.432L224.211 166.047L164.434 45.9031L0.653293 19.2885L60.4307 139.432Z" fill="black" stroke="black" stroke-width="4"/>
</g>
<defs>
<clipPath id="clip0_211_5059">
<rect width="1440" height="395" fill="white"/>
</clipPath>
</defs>
</svg>
