<svg width="263" height="222" viewBox="0 0 263 222" fill="none" xmlns="http://www.w3.org/2000/svg">
<path fill-rule="evenodd" clip-rule="evenodd" d="M239.51 35.4618C253.232 56.0057 261.029 81.5849 262.416 100.026C265.201 137.037 242.804 199.478 166.54 216.741C128.688 225.309 85.6778 223.958 52.821 206.928C36.3612 198.397 22.4419 185.923 13.0566 168.804C3.6732 151.689 -1.11135 130.054 0.496396 103.301C1.78302 81.8909 6.95889 66.2059 14.6701 55.008C22.3992 43.7843 32.5879 37.1977 43.637 33.8631C64.94 27.4337 89.3534 33.1005 105.858 40.4247C115.163 27.5664 141.248 3.91755 180.089 0.959817C205.838 -1.00098 225.794 14.9291 239.51 35.4618ZM236.183 37.6836C222.847 17.7181 204.075 3.14483 180.392 4.94827C141.594 7.90274 116.038 32.3594 108.208 44.0462L107.257 45.4668L105.705 44.7475C89.6393 37.2979 65.4355 31.4624 44.7928 37.6925C34.5348 40.7883 25.134 46.8655 17.9645 57.2767C10.7772 67.7138 5.74553 82.6349 4.48919 103.541C2.91824 129.681 7.60494 150.54 16.564 166.881C25.5211 183.219 38.8155 195.164 54.6617 203.377C86.4169 219.836 128.388 221.275 165.657 212.839C239.636 196.094 261.092 135.743 258.427 100.326C257.09 82.5514 249.512 57.6377 236.183 37.6836ZM219.261 132.972C228.8 73.8701 192.359 43.5916 166.201 44.9305C155.636 45.4712 150.35 49.7729 147.788 54.602C145.33 59.2334 145.204 64.6781 145.934 68.5921C148.023 69.8061 149.703 71.7443 151.055 73.9353C152.617 76.4655 153.848 79.5015 154.811 82.6123C156.454 87.9183 157.386 93.6551 157.803 97.9562C161.985 97.78 166.196 99.3002 170.197 101.599C174.922 104.315 179.614 108.267 184.01 112.395C186.86 115.071 189.658 117.894 192.278 120.536C193.682 121.952 195.035 123.317 196.317 124.579C200.101 128.305 203.205 131.075 205.544 132.274C212.612 135.895 217.448 134.208 219.261 132.972ZM165.997 40.9357C195.517 39.4247 233.351 73.0057 223.082 134.384L222.97 135.053L222.475 135.516C219.851 137.965 212.904 140.54 203.72 135.834C200.741 134.307 197.211 131.073 193.511 127.429C192.159 126.098 190.773 124.7 189.354 123.269C186.772 120.664 184.078 117.946 181.272 115.311C176.943 111.246 172.521 107.548 168.204 105.067C163.867 102.575 159.893 101.459 156.357 102.14L154.131 102.568L153.983 100.307C153.709 96.1368 152.802 89.6458 150.99 83.7957C150.084 80.8707 148.974 78.1793 147.652 76.0366C146.317 73.8753 144.868 72.4364 143.353 71.7564L142.45 71.3508L142.225 70.3864C141.156 65.8093 141.022 58.8178 144.254 52.7269C147.573 46.4731 154.245 41.5372 165.997 40.9357ZM97.783 75.874C92.6072 72.4324 86.2144 68.9818 79.5301 66.5495C72.7489 64.0819 65.5196 62.6082 58.9019 63.3861C52.1997 64.174 46.1429 67.2798 41.9799 73.8437C37.8759 80.3146 35.7504 89.9296 36.3036 103.502C38.5161 157.784 69.2519 181.425 84.9174 186.451L86.0415 186.812L86.9005 186.002C91.9483 181.242 99.3859 172.279 105.518 160.7C111.653 149.117 116.545 134.797 116.331 119.359C116.12 104.115 113.131 93.7009 109.341 86.8503C105.704 80.2763 101.256 76.8778 97.783 75.874ZM45.3578 75.9861C41.8667 81.4907 39.7637 90.1724 40.3003 103.339C42.3916 154.648 70.6169 176.982 85.0201 182.257C89.7267 177.607 96.4048 169.361 101.983 158.828C107.91 147.638 112.533 133.986 112.332 119.414C112.127 104.647 109.235 94.9205 105.841 88.7866C102.421 82.6048 98.5681 80.1791 96.4675 79.6618L96.125 79.5775L95.832 79.381C90.8276 76.0256 84.6125 72.6555 78.1623 70.3083C71.6895 67.953 65.1277 66.6818 59.3689 67.3588C53.6947 68.0258 48.79 70.5745 45.3578 75.9861ZM145.844 130.332L148.262 132.593C153.125 137.137 161.303 143.945 169.974 149.55C174.309 152.352 178.726 154.827 182.883 156.57C187.068 158.325 190.842 159.275 193.934 159.183L201.036 158.973L195.087 162.857C188.31 167.282 176.475 173.736 162.867 178.817C149.286 183.888 133.744 187.664 119.622 186.54L116.287 186.275L118.1 183.463C121.931 177.52 127.883 167.866 133.274 158.245C138.705 148.551 143.434 139.12 144.968 133.525L145.844 130.332ZM147.841 137.621C145.621 143.705 141.342 152.028 136.764 160.2C132.133 168.465 127.097 176.743 123.316 182.723C135.711 183.002 149.244 179.634 161.468 175.07C171.937 171.161 181.327 166.421 188.044 162.496C185.856 161.983 183.601 161.208 181.336 160.259C176.89 158.395 172.258 155.789 167.802 152.909C160.151 147.963 152.902 142.129 147.841 137.621Z" fill="black"/>
</svg>
