<svg width="164" height="138" viewBox="0 0 164 138" fill="none" xmlns="http://www.w3.org/2000/svg">
<path fill-rule="evenodd" clip-rule="evenodd" d="M18.5669 24.1504C10.4618 36.2579 5.85273 51.3881 5.04169 62.145C3.4296 83.5259 16.4152 120.088 61.3868 130.245C84.152 135.387 109.716 134.488 128.996 124.516C138.605 119.547 146.645 112.333 152.059 102.478C157.476 92.6189 160.334 79.9943 159.377 64.1024C158.612 51.396 155.551 42.4054 151.241 36.1603C146.949 29.9408 141.331 26.3164 135.186 24.466C122.77 20.7269 108.119 24.2244 98.3411 28.7487L96.7922 29.4654L95.8408 28.0484C91.1351 21.0396 75.6426 6.22844 52.1139 4.44062C37.9732 3.36615 26.679 12.0323 18.5669 24.1504ZM15.2429 21.9252C23.736 9.23814 36.2146 -0.779005 52.417 0.452122C76.0356 2.24676 92.0633 16.3254 98.1782 24.4407C108.387 20.0363 123.261 16.6973 136.339 20.6359C143.274 22.7241 149.68 26.8563 154.533 33.8883C159.368 40.8945 162.574 50.6502 163.37 63.8619C164.364 80.3677 161.408 93.7704 155.565 104.404C149.721 115.041 141.056 122.783 130.834 128.069C110.453 138.61 83.8522 139.42 60.5055 134.147C13.2532 123.474 -0.679816 84.8265 1.05301 61.8442C1.91442 50.4195 6.74288 34.6227 15.2429 21.9252ZM25.206 83.0757C18.8437 45.1308 42.304 23.9788 61.0482 24.9362C68.4886 25.3162 72.8521 28.4606 75.0363 32.5674C77.1341 36.5117 77.0373 40.9995 76.3529 43.9258L76.1272 44.8905L75.223 45.2955C74.4895 45.6241 73.7026 46.3627 72.9258 47.6183C72.1603 48.8554 71.5025 50.437 70.9577 52.1924C69.8679 55.7033 69.3189 59.6162 69.1538 62.1259L69.0052 64.3857L66.7811 63.9587C64.8714 63.5921 62.6286 64.1777 60.0371 65.6637C57.466 67.1382 54.8034 69.3543 52.1595 71.8317C50.4456 73.4376 48.8118 75.0823 47.2342 76.6703C46.3603 77.55 45.5036 78.4123 44.6602 79.2411C42.4049 81.4571 40.1557 83.5275 38.2033 84.5257C32.3075 87.5404 27.687 85.9524 25.8151 84.2083L25.3183 83.7454L25.206 83.0757ZM29.0196 81.6055C23.422 45.9918 45.4588 28.1452 60.8441 28.931C67.1019 29.2506 70.0786 31.7641 71.5048 34.4457C72.8416 36.9592 72.9792 39.9312 72.6226 42.1719C71.3404 43.0039 70.3267 44.2168 69.5242 45.5136C68.5189 47.1386 67.7401 49.0651 67.1375 51.0066C66.1978 54.0341 65.6322 57.2763 65.3433 59.8555C62.8216 59.9238 60.343 60.8774 58.0473 62.1938C55.0684 63.902 52.1364 66.3717 49.4244 68.9129C47.6667 70.56 45.9284 72.3091 44.3134 73.9342C43.4544 74.7986 42.6303 75.6278 41.8567 76.388C39.5176 78.6863 37.6953 80.2929 36.3823 80.9643C32.6281 82.8839 30.086 82.1814 29.0196 81.6055ZM115.187 44.4297C111.296 45.8426 107.536 47.8759 104.507 49.9027L104.214 50.0986L103.872 50.1827C102.856 50.4324 100.641 51.7302 98.6093 55.3956C96.6034 59.0134 94.8467 64.8373 94.7226 73.7888C94.6012 82.5452 97.3864 90.777 100.984 97.555C104.235 103.68 108.098 108.52 110.907 111.368C119.581 107.948 136.145 94.4818 137.394 63.9005C137.72 55.9151 136.434 50.7792 134.41 47.5953C132.445 44.5039 129.657 43.0495 126.371 42.6641C123.001 42.2688 119.101 43.0086 115.187 44.4297ZM137.786 45.4496C140.424 49.6007 141.733 55.6715 141.391 64.0638C140.02 97.6258 120.948 112.396 111.013 115.577L109.891 115.936L109.033 115.128C105.872 112.155 101.255 106.597 97.4509 99.4303C93.6447 92.2594 90.5895 83.3583 90.723 73.7334C90.8537 64.3038 92.7073 57.7913 95.111 53.4561C97.3703 49.3811 100.187 47.1269 102.551 46.3997C105.753 44.285 109.694 42.1688 113.822 40.6698C118.044 39.1369 122.61 38.1955 126.837 38.6913C131.148 39.197 135.089 41.2059 137.786 45.4496ZM73.7858 79.0284L74.6615 82.215C75.5741 85.5359 78.4275 91.2325 81.768 97.1815C85.0676 103.058 88.7129 108.957 91.0578 112.587L92.8757 115.4L89.5362 115.666C80.7061 116.367 71.0432 114.012 62.6611 110.889C54.252 107.756 46.9371 103.777 42.7317 101.037L36.7677 97.1517L43.8825 97.3621C45.6234 97.4136 47.8219 96.8772 50.346 95.8211C52.8423 94.7766 55.5122 93.2859 58.1498 91.5846C63.4266 88.181 68.4108 84.0411 71.3689 81.2824L73.7858 79.0284ZM49.4717 100.411C53.3915 102.592 58.472 105.06 64.0575 107.141C71.0634 109.751 78.7204 111.697 85.8094 111.787C83.59 108.246 80.8355 103.691 78.2802 99.14C75.7282 94.5951 73.2955 89.9189 71.8296 86.2439C68.7627 88.9071 64.6464 92.1541 60.3179 94.946C57.5599 96.725 54.6748 98.3459 51.8899 99.5111C51.0858 99.8475 50.2772 100.152 49.4717 100.411Z" fill="black"/>
</svg>
