<svg width="531" height="315" viewBox="0 0 531 315" fill="none" xmlns="http://www.w3.org/2000/svg">
<path d="M31.8711 135.984C36.2444 158.534 49.2767 207.066 66.4198 220.798M194.556 54.1999C212.195 76.2447 243.187 150.625 226.044 271.787M120.211 100.141C134.205 128.748 160.97 197.575 156.072 244.021M334.938 44.1031C322.11 50.8343 298.377 105.795 306.074 271.787M404.91 94.0825C394.122 127.739 372.548 205.956 372.548 249.574M498.935 167.285C489.459 186.805 465.786 228.876 446.893 240.992M505.932 158.197C520.655 180.747 543.105 231.298 515.116 253.108C487.127 274.917 453.89 264.214 440.771 256.137C427.505 263.878 395.289 277.037 372.548 267.748C362.198 278.013 334.413 296.827 306.074 289.961C293.829 307.126 260.068 331.156 222.982 289.961C205.052 292.149 166.567 289.153 156.072 259.671C133.331 264.551 84.3502 266.133 70.3558 233.419C61.6093 235.27 40.4427 234.529 25.7485 216.759C7.38086 194.546 -17.984 169.304 27.9352 126.392C64.6705 92.0628 98.6362 88.5289 111.027 91.0531C108.257 77.0857 119.424 47.2324 186.247 39.5588C189.017 28.9571 201.553 7.34983 229.542 5.73434C264.528 3.71497 308.698 -10.9255 340.623 36.0249C363.947 37.0348 410.333 47.0312 409.283 78.9372C443.686 87.8559 511.18 116.194 505.932 158.197Z" stroke="black" stroke-width="4"/>
</svg>
